<?xml version="1.0" standalone="no"?>
<!DOCTYPE svg PUBLIC "-//W3C//DTD SVG 1.1//EN" "http://www.w3.org/Graphics/SVG/1.1/DTD/svg11.dtd" >
<svg xmlns="http://www.w3.org/2000/svg" xmlns:xlink="http://www.w3.org/1999/xlink" version="1.1">
<metadata>
Created by FontForge 20200427 at Fri Oct 31 10:42:40 2014
 By www
Copyright (c) 2012 by Brittney Murphy. All rights reserved.
</metadata>
<defs>
<font id="AlwaysForever" horiz-adv-x="236" >
  <font-face 
    font-family="AlwaysForever"
    font-weight="400"
    font-stretch="normal"
    units-per-em="1000"
    panose-1="0 0 0 0 0 0 0 0 0 0"
    ascent="800"
    descent="-200"
    x-height="350"
    cap-height="472"
    bbox="-104 -308 463 638.995"
    underline-thickness="50"
    underline-position="-100"
    unicode-range="U+0020-FB00"
  />
<missing-glyph horiz-adv-x="159" 
 />
    <glyph glyph-name=".notdef" horiz-adv-x="159" 
 />
    <glyph glyph-name="U" unicode="U" horiz-adv-x="253" 
d="M44 464l7 -7q-3 -84 -15 -167t-12 -168q0 -11 1 -31t5.5 -40t13 -35t24.5 -15q11 0 24.5 13.5t26 34t24.5 46t21 50t14.5 44.5t5.5 31q0 9 -0.5 29.5t-0.5 46.5q0 35 1 75t5 74.5t10.5 57.5t18.5 23q7 0 11 -7.5t6 -18t2.5 -20.5t0.5 -14q0 -30 -6.5 -67.5t-14 -73
t-13.5 -64.5t-6 -44q0 -94 15 -185q3 -19 10 -42.5t7 -41.5q0 -2 -1.5 -5t-4.5 -3q-7 0 -12 13t-9.5 34t-7.5 46.5t-5 51.5t-3.5 48.5t-1.5 37.5q-6 -18 -16 -49t-25 -61.5t-34 -52.5t-43 -22q-20 0 -31.5 19t-17 44.5t-7 51t-1.5 39.5q0 81 11 158.5t15 158.5zM219 505
q-11 -21 -14.5 -50t-4.5 -60.5t-0.5 -62.5t-1.5 -55q11 43 18.5 86t7.5 88q0 14 -1 27t-4 27z" />
    <glyph glyph-name="V" unicode="V" horiz-adv-x="222" 
d="M148 8q-7 0 -14.5 15.5t-14 36t-11 39.5t-6.5 26q-3 11 -10.5 39t-17 63.5t-20 75t-20 73t-17 56.5t-10.5 26l7 6q10 -1 18 -19.5t14 -42t10.5 -46t6.5 -31.5q2 -10 8.5 -34.5t15 -56t17.5 -65t18 -63t15.5 -51t10.5 -26.5q7 38 6.5 77t4.5 77q8 73 18.5 145t16.5 145
l8 8l7 -8q-6 -73 -16 -145t-18 -145q-2 -17 -3.5 -46.5t-4.5 -58t-7.5 -49.5t-11.5 -21z" />
    <glyph glyph-name="W" unicode="W" horiz-adv-x="324" 
d="M49 532l8 -7q-2 -63 -7 -125.5t-11 -125.5t-10.5 -125.5t-4.5 -125.5q0 -22 6 -41q11 11 21 40t18.5 67t15 81.5t11.5 83.5t7.5 72.5t2.5 50.5l7 5l8 -5q0 -11 -0.5 -31.5t-0.5 -46.5q0 -42 2.5 -91.5t11 -93t25 -72.5t43.5 -29q30 0 48 28.5t27.5 66.5t12.5 76.5t3 59.5
q0 34 -3 63.5t-10 57.5t-18 55.5t-26 57.5l-1 3l7 9q11 -6 20 -23.5t16.5 -42.5t13.5 -53.5t9.5 -55t5.5 -48.5t2 -34q0 -25 -4 -64.5t-15.5 -77t-33 -65t-56.5 -27.5q-20 0 -34.5 12.5t-24.5 32t-16 44t-9 49.5t-4.5 47.5t-1.5 37.5q-2 -9 -5.5 -32t-9 -51t-13 -58.5
t-16 -55.5t-17.5 -41t-19 -16q-11 0 -15.5 13t-4.5 21q0 66 4.5 131t10.5 130.5t11 130.5t6 131z" />
    <glyph glyph-name="X" unicode="X" horiz-adv-x="239" 
d="M12 439l7 7l4 -1q22 -18 43 -38t35 -45q12 44 29.5 86t45.5 78l7 3l7 -9q-31 -38 -49 -82.5t-29 -91.5q38 -59 61 -118.5t35.5 -120.5t16.5 -125t5 -133l-7 -7l-7 7q-2 64 -5.5 126t-15 122t-32 117.5t-56.5 113.5q-19 -86 -24 -172.5t-7 -174.5l-7 -6l-7 6q2 92 7 183
t27 181q-16 26 -38 47.5t-45 42.5z" />
    <glyph glyph-name="Y" unicode="Y" horiz-adv-x="347" 
d="M49 463l8 -6q-6 -27 -12 -46.5t-10.5 -38t-7.5 -40t-3 -51.5q0 -9 1 -31t4 -49.5t8 -57t12 -54t17 -40.5t23 -16t26.5 15.5t26 40t24 54t21 57.5t15.5 51t9 35q4 19 8.5 47t9.5 53t9.5 43t9.5 18q6 0 12.5 -16.5t14 -43t14 -59t12 -65t9.5 -61t5 -46.5l3 -44q11 8 23 16
t25 13l2 -2q-1 -6 -7 -12.5t-14 -12.5t-16 -11t-12 -8q2 -21 3 -42t1 -42q0 -68 -16 -133t-60 -119q-17 -21 -41.5 -38t-53.5 -17t-41 20t-12 46q0 47 19 94.5t49 91.5t66.5 81.5t71.5 65.5q-11 161 -54 315q-3 -17 -10 -53.5t-18 -81.5t-25.5 -92.5t-32 -87t-37.5 -65
t-42 -25.5q-15 0 -27 16t-20.5 41.5t-14 56t-9 59t-5 51.5t-1.5 34q0 48 7 97.5t27 92.5zM154 -287q11 0 22.5 6t22.5 14.5t20.5 18t16.5 17.5q22 25 36 57t22 67t11 70.5t3 67.5q0 14 -0.5 27.5t-1.5 27.5q-32 -29 -65.5 -63t-61.5 -73t-45.5 -82t-17.5 -89q0 -9 1.5 -20
t5.5 -21.5t11.5 -17.5t19.5 -7z" />
    <glyph glyph-name="Z" unicode="Z" horiz-adv-x="395" 
d="M9 501q1 4 8 6t16 3t19 1.5t17 0.5q11 0 34.5 0.5t52 -1t58.5 -5.5t54.5 -12.5t40 -23t15.5 -35.5q0 -15 -15.5 -46t-38.5 -71.5t-49.5 -87t-49.5 -91t-38.5 -84t-15.5 -66.5q0 -5 1 -10.5t5 -10.5q21 1 57.5 17t75.5 37.5t73.5 44t52.5 36.5h4l7 -5l-3 -8
q-10 -8 -30 -21t-45.5 -28.5t-53.5 -31t-53.5 -28t-46.5 -20.5t-31 -8q-15 0 -21.5 9.5t-6.5 23.5q0 30 15.5 71.5t38.5 86.5t50 90.5t50 85.5t38.5 70.5t15.5 45.5q0 22 -22.5 34.5t-53 18.5t-63 7.5t-52.5 1.5q-26 0 -51 -1t-51 -3z" />
    <glyph glyph-name="A" unicode="A" horiz-adv-x="356" 
d="M8 148l7 8q9 0 27 4t36.5 9.5t32.5 9.5l14 4q0 12 1 40t3.5 63.5t7 73.5t12 69.5t18.5 52t26 20.5q13 0 23 -16.5t17.5 -42.5t12 -57.5t7.5 -60.5t4.5 -52.5t1.5 -33.5q15 6 30.5 12.5t32.5 6.5l6 -7q-1 -3 -10 -7t-20 -8t-21.5 -7t-14.5 -4q2 -20 7 -60.5t12.5 -84
t17 -81t20.5 -51.5q5 -7 15 -11.5t12 -12.5l-7 -7q-15 0 -27.5 19t-22.5 48.5t-17.5 65.5t-12.5 69.5t-8 61t-4 39.5q-27 -11 -54 -22.5t-54 -22.5v-175q0 -4 -2 -16.5t-8 -12.5t-7.5 9t-1.5 15q0 43 2 86.5t2 86.5q-26 -10 -53 -17.5t-55 -10.5zM195 484q-11 0 -19.5 -19
t-14.5 -49t-10 -65.5t-6.5 -68t-3.5 -58.5t-1 -35q27 11 53 23t53 23q-1 9 -2.5 30.5t-4.5 49.5t-7 57.5t-9.5 54.5t-12.5 41t-15 16z" />
    <glyph glyph-name="B" unicode="B" horiz-adv-x="327" 
d="M17 461l7 -7q4 -62 7.5 -122.5t6.5 -122.5q1 14 4 36.5t8 49t12.5 53t18.5 48.5t25.5 35.5t34.5 13.5q22 0 28 -17.5t6 -35.5q0 -36 -7.5 -71t-17.5 -70q6 1 12 1h12q24 0 49.5 -5.5t46 -17t34 -30.5t13.5 -46t-15.5 -52.5t-39.5 -45.5t-52.5 -32.5t-53.5 -12.5
q-6 0 -16.5 2t-20.5 6t-17.5 10t-7.5 14l8 7h4q23 -23 57 -23q23 0 47 11t44 28.5t33 40t13 46.5t-14 41t-34 27t-43.5 14.5t-42.5 4.5q-11 0 -20 -3l-6 -15t-9.5 -20.5t-12 -18t-13.5 -7.5q-8 0 -10.5 9t-2.5 15q0 17 13 30t28 18q11 32 18.5 64.5t7.5 65.5v12.5t-1.5 17
t-5 15t-9.5 6.5q-22 0 -37.5 -19.5t-26 -50t-17 -67.5t-9.5 -72.5t-4 -64.5t-1 -43q0 -5 1 -19t1 -29q0 -17 -2.5 -30.5t-9.5 -13.5l-4 3q0 109 -8 216t-16 216zM109 194q5 8 9 15t7 15q-6 -6 -11 -13.5t-5 -16.5z" />
    <glyph glyph-name="C" unicode="C" horiz-adv-x="274" 
d="M188 302q-3 1 -4.5 15t-3.5 35t-5 45t-9 44.5t-16 34.5t-26 14q-20 0 -36 -15t-27.5 -38.5t-19.5 -52.5t-13.5 -57.5t-7.5 -53t-2 -38.5q0 -35 6 -75.5t22.5 -75.5t45 -58.5t72.5 -23.5q33 0 48.5 14t22 32t8.5 33.5t8 18.5l8 -8q-3 -21 -9 -40t-17.5 -33.5t-28.5 -23.5
t-41 -9q-50 0 -81 25.5t-48 63.5t-23 82.5t-6 82.5q0 27 5.5 71.5t20 87t38.5 73.5t61 31q16 0 27.5 -11.5t18 -29.5t10.5 -40t5.5 -43.5t2 -40t1.5 -29.5z" />
    <glyph glyph-name="D" unicode="D" horiz-adv-x="278" 
d="M17 481l8 -8q0 -64 1 -127t3 -127q1 18 3.5 45.5t8 58.5t13.5 62t21.5 56t32 40.5t43.5 15.5t43 -13t30.5 -34t20.5 -47.5t13 -53.5t6.5 -51.5t1.5 -41.5q0 -19 -1 -42t-4.5 -47t-9 -46.5t-14.5 -39.5q-6 -11 -17 -26t-24.5 -28.5t-28.5 -23t-29 -9.5q-15 0 -23 11.5
t-11 24.5l8 7q4 -8 13 -17t18 -9q33 0 54 30t33.5 70.5t17 81.5t4.5 63q0 25 -4 63.5t-16 75t-33.5 63t-55.5 26.5q-28 0 -46.5 -31t-30 -78.5t-17 -105t-8 -111t-2.5 -96v-59.5l1 -8h-9l-7 7q-8 118 -10 235.5t-4 235.5z" />
    <glyph glyph-name="E" unicode="E" 
d="M7 259l7 7h5q2 54 5.5 107.5t3.5 107.5h-17l-8 7l7 7q46 2 91.5 6.5t91.5 10.5l7 -7q-2 -5 -23.5 -9t-49 -7t-52.5 -5t-33 -3q0 -54 -3.5 -106.5t-5.5 -106.5q29 5 59 9t59 10l8 -6q-2 -5 -19.5 -9.5t-39 -8t-41.5 -6t-27 -3.5v-39t2 -51.5t7 -55t15 -50t25.5 -36.5
t39.5 -14q26 0 51 12t46 27l4 1l7 -7l-4 -7q-21 -16 -46 -27.5t-52 -11.5q-28 0 -46.5 14t-31 36t-19 50t-9 57t-3 55t-0.5 45h-3z" />
    <glyph glyph-name="F" unicode="F" horiz-adv-x="357" 
d="M10 37l5 7q22 5 39 13t36 19v39q0 29 1 68.5t4 82.5t8.5 85t15.5 75.5t24 54t34 20.5q23 0 47.5 -13t45 -33t33.5 -44.5t13 -47.5q0 -50 -19.5 -91.5t-50 -77.5t-68.5 -66.5t-74 -57.5l2 -57q30 23 61 37t70 14q30 0 50 -13t31 -33.5t15.5 -46.5t4.5 -51
q0 -26 -6.5 -64.5t-20.5 -73.5t-38 -60t-58 -25q-23 0 -41.5 16t-32 41.5t-22.5 57t-14.5 63t-8 59t-2.5 44.5q-3 -4 -8 -14.5l-10 -21t-9.5 -19t-7.5 -9.5l-7 9q0 19 14 40.5t27 34.5l-2 32t-1 32q-14 -8 -32.5 -20t-35.5 -12l-4 1zM328 -81q0 23 -4.5 47t-15.5 43
t-29.5 31t-46.5 12q-34 0 -67.5 -17.5t-56.5 -40.5q0 -17 2 -44t7 -58t13 -63t20.5 -57.5t29 -41.5t38.5 -16q29 0 50 23.5t34.5 56.5t19.5 68t6 57zM183 481q-19 0 -32.5 -21.5t-22 -55.5t-14 -75t-8 -79t-3 -69.5t-0.5 -45.5v-24.5t1 -24.5q28 24 62 53.5t64 63t50.5 71
t20.5 77.5q0 22 -9.5 45t-26 42t-38 31t-44.5 12z" />
    <glyph glyph-name="G" unicode="G" horiz-adv-x="281" 
d="M150 499q7 0 16 -2t17.5 -6.5t14.5 -11t6 -14.5l-6 -7q-8 10 -20.5 18.5t-26.5 8.5q-39 0 -64.5 -29t-40 -70t-20 -84.5t-5.5 -72.5q0 -17 1.5 -46.5t7.5 -58t19.5 -50t37.5 -21.5q17 0 31 13t26 33.5t21 46.5t15.5 51t9.5 46.5t3 34.5q0 6 -2.5 24.5t-2.5 37.5
q0 17 3.5 28.5t12.5 11.5q4 0 6.5 -4.5t4 -10.5t2 -12t0.5 -8q0 -16 -4.5 -31.5t-4.5 -30.5q0 -44 11.5 -88.5t25.5 -90.5t25.5 -92.5t11.5 -93.5q0 -25 -7.5 -62t-22.5 -71t-38.5 -58.5t-55.5 -24.5q-20 0 -32.5 14.5t-19.5 34.5t-9.5 41.5t-2.5 36.5q0 22 7.5 55.5
t22 66.5t34 58.5t43.5 31.5l6 -6q-2 -8 -17.5 -22t-33.5 -38t-33 -61t-15 -92q0 -12 2 -30.5t8 -35t16.5 -28.5t27.5 -12q24 0 43 25.5t32.5 60t21 69t7.5 51.5q0 40 -7.5 79.5t-18 79.5t-21.5 79t-19 78q-4 -19 -12.5 -53.5t-22 -68t-32.5 -58.5t-44 -25q-28 0 -44 24
t-24 56.5t-10 66t-2 52.5q0 21 2.5 49t8.5 58t16.5 58.5t26 51t37 36.5t50.5 14z" />
    <glyph glyph-name="H" unicode="H" horiz-adv-x="346" 
d="M32 191q-4 -2 -12 -8t-12 -6l-7 7l3 6l27 18l-4 138t-3 138l7 7l8 -7q1 -67 2.5 -133.5t4.5 -133.5q47 29 95 54.5t101 40.5q2 47 3.5 93t1.5 93l8 7l8 -7l-7 -181q18 4 36 7t36 4l8 -7q-2 -3 -13 -6t-24.5 -5.5t-26 -5t-16.5 -3.5q-1 -14 -1 -27.5v-27.5
q0 -50 6.5 -99.5t6.5 -97.5q0 -7 -5 -9q-8 1 -12.5 22.5t-7 50.5t-3 59.5t-0.5 50.5q0 19 -0.5 37t1.5 37q-53 -16 -100.5 -41.5t-94.5 -54.5q3 -36 3.5 -73t1.5 -74t3.5 -73t10.5 -72l-6 -9q-7 0 -11.5 16t-7.5 41.5t-5 56.5t-2.5 61.5t-0.5 57v42.5v16v0z" />
    <glyph glyph-name="I" unicode="I" horiz-adv-x="100" 
d="M36 472l7 -8q2 -27 2 -54v-54v-116q0 -67 4 -132.5t19 -128.5l-5 -9q-11 1 -17 27t-9.5 68t-4.5 95t-1.5 107.5t-0.5 106t-1 90.5z" />
    <glyph glyph-name="J" unicode="J" horiz-adv-x="124" 
d="M48 475l7 -7q3 -45 10 -89.5t14.5 -88.5t13 -88.5t5.5 -88.5q0 -40 -7 -81t-22 -79t-40 -70t-61 -54q-10 -6 -22 -12.5t-24 -6.5q-16 0 -16 16l8 7l7 -8q46 12 77 43t49.5 71.5t26 86t7.5 87.5q0 45 -5.5 89.5t-12.5 88.5t-13.5 88t-9.5 89z" />
    <glyph glyph-name="K" unicode="K" horiz-adv-x="203" 
d="M166 457l9 -8q-11 -33 -33 -74t-44.5 -83t-39.5 -82t-17 -71q0 -46 29.5 -64.5t70.5 -18.5q4 0 14.5 1t21.5 1t19 -2t8 -7l-8 -7q-14 0 -27 -0.5t-24 -0.5q-24 0 -43.5 2.5t-34 12.5t-24.5 28.5t-15 50.5v-66t1 -66l-8 -7l-8 7q0 123 -1.5 244t-1.5 244l7 8l7 -8
q0 -85 1 -168t2 -168q7 40 24.5 76.5t37.5 72.5t39.5 72t30.5 75z" />
    <glyph glyph-name="L" unicode="L" horiz-adv-x="194" 
d="M28 515l7 -7q-3 -61 -7 -122t-4 -122q0 -13 0.5 -36.5t3 -51.5t7 -57t13 -52.5t21 -38.5t31.5 -15q13 0 23.5 5t20.5 11.5t19 13t19 8.5l6 -7q-1 -6 -12.5 -14t-25.5 -15t-28 -12t-20 -5q-23 0 -39 15.5t-26 39.5t-15.5 54t-8 59.5t-3 55t-0.5 41.5q0 62 4 122.5t7 122.5
z" />
    <glyph glyph-name="M" unicode="M" horiz-adv-x="377" 
d="M16 443l7 -7q2 -77 4.5 -153t7.5 -153q1 12 6 43.5t12.5 71.5t16.5 83t19 79t20.5 59t20.5 23q6 0 10 -15.5t5.5 -37t2 -43.5t0.5 -34q0 -3 0.5 -21t2 -43.5t3 -55t4 -57t6 -48.5t7.5 -29q10 16 20 49.5t19.5 74t20 83.5t21 78t22.5 57.5t25 22.5q7 0 12.5 -18.5t10 -49
t8.5 -68.5t7.5 -77.5t6.5 -76.5t6 -64q2 -23 7.5 -48t5.5 -47q0 -2 -1.5 -5.5t-4.5 -3.5q-6 0 -10.5 16.5t-8.5 43.5t-7.5 61t-6.5 69.5t-6 68.5t-5 58q-3 31 -5.5 61.5t-13.5 59.5q-11 -15 -21 -47t-20 -72t-20.5 -82.5t-20.5 -78t-20.5 -58t-20.5 -22.5q-9 0 -16 29.5
t-11 67.5t-6 73.5t-2 48.5v49q0 28 -1.5 54.5t-8.5 52.5q-8 -13 -17.5 -44.5t-19 -73.5t-18 -89.5t-15.5 -91t-11 -78.5t-4 -52q0 -1 0.5 -2t0.5 -2t-2 -1h-4h-1l-6 3q-2 4 -4 32t-4.5 69t-4.5 89t-3.5 91.5t-2.5 76.5t-1 44z" />
    <glyph glyph-name="N" unicode="N" horiz-adv-x="260" 
d="M13 406l8 -7q2 -77 11 -152t14 -152q3 14 9.5 47t16.5 74t22 85t26 80.5t29.5 60t32.5 23.5q9 0 15.5 -14t11 -36t6.5 -48t3.5 -50t2 -43.5t0.5 -26.5q4 -80 13.5 -152.5t39.5 -148.5v-4l-7 -7l-6 5q-15 39 -24.5 76.5t-15.5 75t-9 75.5t-5 80q0 7 -0.5 24t-1 39t-2 45.5
t-5 43t-8 32t-11.5 12.5q-13 0 -27 -26t-27.5 -66t-25.5 -88.5t-22.5 -93t-18 -79.5l-10.5 -49l-8 -6l-8 5l1 2q-2 15 -3 30t-1 30q0 75 -10.5 148.5t-12.5 148.5z" />
    <glyph glyph-name="O" unicode="O" horiz-adv-x="200" 
d="M111 453l-7 -7q-2 0 -3.5 0.5t-3.5 0.5q-17 -2 -29.5 -17t-21 -37.5t-14.5 -49t-9 -52t-4 -47t-1 -33.5q0 -17 2.5 -48.5t11 -63t23.5 -55t39 -23.5q25 0 40.5 24.5t24 57.5t11.5 66t3 50q0 25 -3 54.5t-11.5 58t-23.5 52t-40 37.5l-1 5l8 7q26 -6 42.5 -33t25.5 -62
t12.5 -70t3.5 -56q0 -20 -3.5 -55t-14 -69t-29 -58.5t-47.5 -24.5t-46 27t-26 63.5t-12 73t-3 55.5q0 12 1.5 35t5.5 49.5t10.5 54t17 50t24.5 36.5t33 14q2 0 4.5 -1t4.5 -2z" />
    <glyph glyph-name="P" unicode="P" horiz-adv-x="265" 
d="M21 451l8 -7q0 -88 4 -174.5t11 -174.5v222q0 8 -0.5 20.5t-0.5 29.5q0 25 1.5 53.5t7.5 53t17.5 41t30.5 16.5q18 0 36.5 -16.5t34.5 -42.5t30 -58t24.5 -63t16 -58t5.5 -42q0 -41 -23.5 -65t-64.5 -24q-5 0 -15.5 1t-22 3t-20 5.5t-9.5 9.5l6 7q18 -2 36 -7t36 -5
q16 0 27.5 7t19 18t11 25.5t3.5 28.5t-5 39t-14 54t-22 59t-27.5 54.5t-31 40t-33.5 15.5q-16 0 -25 -21t-13 -48.5t-4.5 -54t-0.5 -36.5q0 -84 2 -166t2 -165v-7.5t-1 -14t-3.5 -13.5t-6.5 -6q-5 0 -9 14t-6 32.5t-3.5 37.5t-2.5 29q-7 87 -10 173t-4 173z" />
    <glyph glyph-name="Q" unicode="Q" horiz-adv-x="244" 
d="M116 483q30 0 51.5 -24t34.5 -57.5t19 -69t6 -58.5q0 -27 -3 -58.5t-9.5 -62.5t-17 -60t-24.5 -53q17 -71 35 -140.5t41 -138.5l-6 -9l-7 5q-23 66 -40 133.5t-34 135.5q-8 -10 -19.5 -17t-25.5 -7q-36 0 -57.5 26t-33.5 62.5t-15.5 76t-3.5 65.5q0 24 4 66t15.5 83.5
t33 71.5t56.5 30zM157 44q-2 8 -8 30t-12.5 46.5t-12.5 45t-9 24.5l7 8q6 -2 13 -21t13.5 -43t12 -46.5t7.5 -29.5q13 20 21.5 45t13.5 51.5t7 53t2 50.5q0 20 -4 55t-15 69.5t-30 60t-48 25.5q-19 0 -33.5 -13.5t-25.5 -35t-18 -47.5t-11 -51.5t-6 -47.5t-2 -35
q0 -22 3.5 -58.5t14 -72t30 -61.5t50.5 -26q12 0 23 6.5t17 17.5z" />
    <glyph glyph-name="R" unicode="R" horiz-adv-x="327" 
d="M13 448l8 -7q2 -41 5 -80.5t5 -80.5q1 19 7 52.5t17.5 65.5t29.5 56t43 24q14 0 23 -10.5t14 -25.5t6.5 -31t1.5 -26q0 -37 -8 -72t-21 -68t-30.5 -65t-35.5 -63q63 -23 125 -45.5t123 -50.5l5 -8l-9 -7q-30 14 -74.5 31.5t-85.5 33t-70.5 28t-29.5 16.5q19 28 36 62
t30 71t21 74t8 70q0 6 -1.5 18t-5.5 24t-10 21t-15 9q-16 0 -29 -17.5t-23 -45.5t-17.5 -61t-12 -65t-6.5 -57.5t-2 -37.5q0 -43 2.5 -85.5t2.5 -85.5l-8 -5l-6 6q0 109 -7.5 215.5t-13.5 215.5z" />
    <glyph glyph-name="S" unicode="S" horiz-adv-x="348" 
d="M223 480l-6 -8q-4 0 -10 4t-14 9.5t-18 9.5t-22 4q-23 0 -43.5 -12t-35.5 -31t-24 -42t-9 -44q0 -37 22 -60.5t55 -40t71 -29t71 -26.5t55 -33t22 -49q0 -35 -23 -62.5t-56 -46t-70 -28t-65 -9.5q-17 0 -37 4.5t-37.5 13.5t-29.5 23.5t-12 34.5q0 9 5.5 20.5t13 24
t15 23.5t12.5 19l6 3l8 -6v-3q-13 -18 -27.5 -38.5t-14.5 -44.5q0 -18 11 -29.5t27 -18t33.5 -9t31.5 -2.5q27 0 60.5 9t63 26t50 41.5t20.5 56.5q0 26 -22 42.5t-54.5 30t-71 25.5t-71 29.5t-54.5 42t-22 62.5q0 25 10 51.5t27.5 47.5t41 34.5t50.5 13.5q20 0 34.5 -8.5
t29.5 -19.5z" />
    <glyph glyph-name="a" unicode="a" 
d="M7 148q0 19 4.5 54t15.5 68.5t28.5 58.5t44.5 25q17 0 29.5 -11t21.5 -23q0 5 1.5 9t6.5 6l7 -7v-35t1 -60t3.5 -71.5t8 -68.5t14.5 -51.5t23 -20.5l18 8l6 -8q-2 -6 -10.5 -11.5t-14.5 -5.5q-18 0 -29 23t-17.5 53t-9.5 59.5t-4 43.5q-3 -17 -11.5 -45t-21.5 -56
t-30.5 -48t-39.5 -20q-15 0 -24 17.5t-13.5 40t-6 45t-1.5 31.5zM56 33q14 0 26.5 14t23.5 36t19 49t14 52.5t9 46.5t3 32v41q-6 0 -10.5 5.5t-9.5 12t-11.5 12t-16.5 5.5q-24 0 -39.5 -24t-24.5 -56t-13 -64t-4 -49q0 -8 0.5 -26.5t3.5 -38t10 -34t20 -14.5z" />
    <glyph glyph-name="b" unicode="b" horiz-adv-x="256" 
d="M77 35q-8 0 -12 24t-6 63t-4.5 88.5t-7 100.5t-13 98.5t-23.5 83.5l-1 4l7 8q8 0 12.5 -12t6.5 -18q13 -47 20 -98t10.5 -103.5t5.5 -104.5t6 -101q3 13 7.5 38t11 55.5t14.5 62t18 57.5t22 42.5t27 16.5q19 0 31.5 -15.5t19.5 -36.5t9.5 -43t2.5 -36q0 -17 -5.5 -51
t-16.5 -68t-27 -59.5t-38 -25.5q-9 0 -13.5 5t-6.5 12.5t-2.5 16t-1.5 14.5l8 8l6 -5l6 -34l9 -1q34 35 52 83.5t18 97.5q0 10 -3 30t-9.5 40.5t-16 36t-22.5 15.5q-11 0 -21 -16.5t-18.5 -42.5t-16 -57t-13 -60t-10 -52t-6.5 -32q-2 -5 -5.5 -17t-10.5 -12z" />
    <glyph glyph-name="c" unicode="c" horiz-adv-x="190" 
d="M120 294l-8 7q0 6 -0.5 16t-3 20t-8 17t-14.5 7q-21 0 -33.5 -26t-19 -60t-9 -66.5t-2.5 -45.5q0 -11 1.5 -34.5t6.5 -47.5t14 -42.5t25 -18.5t32.5 17.5t30.5 39t24.5 39.5t16.5 19l7 -6q0 -9 -12 -29.5t-28.5 -41.5t-34 -37t-29.5 -16q-24 0 -38 16.5t-20.5 39.5
t-8.5 48t-2 42q0 11 1 32t3.5 46.5t7.5 51.5t14 47.5t22 35t32 13.5q13 0 21 -8.5t12 -20.5t5.5 -25t1.5 -22z" />
    <glyph glyph-name="d" unicode="d" horiz-adv-x="211" 
d="M75 347q22 0 37.5 -16t27.5 -31q-1 5 -1 15v22q0 23 1.5 52.5t5.5 55t11.5 43t19.5 17.5q7 0 11 -9t6.5 -20t3 -22.5t0.5 -15.5q0 -26 -2.5 -56.5t-7.5 -61.5t-11.5 -60.5t-14.5 -54.5q7 -61 20 -122t30 -120l-7 -8l-6 4q-17 52 -29 105t-19 107q-5 -14 -13 -37
t-20 -44.5t-27 -37.5t-33 -16q-17 0 -27 17t-14.5 40.5t-5.5 48.5t-1 40v43t5 55t19 47t41 20zM148 199q-2 17 -3.5 39.5t-8 42.5t-20 33.5t-38.5 13.5q-22 0 -33 -17t-15.5 -40.5t-5 -48t-0.5 -38.5q0 -8 0.5 -29.5t4 -44t10.5 -40.5t20 -18t27.5 19.5t27 44.5t22 49
t12.5 34zM154 346q0 -25 0.5 -51.5t4.5 -51.5q10 47 17.5 93.5t7.5 94.5q0 15 -2 29.5t-7 28.5q-14 -32 -17.5 -70t-3.5 -73zM166 158v8v-8z" />
    <glyph glyph-name="e" unicode="e" horiz-adv-x="184" 
d="M2 184l6 6q0 15 0.5 41t5.5 51.5t16 44.5t31 19q14 0 26 -11t21 -26.5t14 -32.5t5 -29q0 -13 -4.5 -29.5t-12.5 -31.5t-20 -25t-28 -10q-11 0 -21.5 5.5t-16.5 13.5q2 -13 7.5 -38t15 -49.5t23 -42.5t31.5 -18q10 0 19 6.5t16.5 16.5t13 20.5t9.5 18.5l7 2l8 -6
q-2 -10 -9.5 -22.5t-17.5 -23.5t-22 -18.5t-23 -7.5q-24 0 -41 19t-28 46t-16.5 55.5t-6.5 46.5l-3 1zM59 328q-13 0 -20.5 -15t-11 -34.5t-4.5 -39t-1 -28.5q0 -20 8 -33t30 -13q15 0 24.5 8.5t15.5 21t8 26.5t2 26q0 10 -3 24t-9 27t-16 21.5t-23 8.5z" />
    <glyph glyph-name="f" unicode="f" horiz-adv-x="189" 
d="M4 178q0 2 5.5 5t13 6.5t14 6.5t9.5 5q1 12 3.5 37.5t7 57t11.5 64.5t17 60.5t23 45t29 17.5q20 0 30 -17.5t10 -34.5q0 -26 -10.5 -60.5t-27.5 -69t-38 -64t-41 -44.5l-6 -127q19 11 41 11q25 0 42.5 -14t27.5 -35t14.5 -45t4.5 -44q0 -14 -4 -45t-12.5 -62.5
t-22.5 -55.5t-33 -24t-31.5 18t-20.5 46t-12 62t-6 65.5t-2 57v36.5q-3 -3 -6 -8t-7 -10t-7.5 -9t-6.5 -5l-7 8q1 11 13.5 23.5l20.5 20.5q0 32 1 62.5t3 62.5q-7 -4 -14.5 -8t-15.5 -4l-5 1zM166 -56q0 17 -2.5 37.5t-10 38.5t-21.5 30.5t-36 12.5t-42 -15q0 -10 0.5 -34.5
t2 -55t4.5 -64t9.5 -61t16 -45t23.5 -17.5q16 0 27 23t17.5 52.5t9 58t2.5 39.5zM145 468q-15 0 -27 -15.5t-20.5 -40t-14.5 -54t-10 -57.5t-6.5 -51.5t-3.5 -35.5q19 18 37 45t32 57t22.5 61t8.5 58q0 9 -3 21t-15 12z" />
    <glyph glyph-name="h" unicode="h" horiz-adv-x="175" 
d="M22 487l7 -7q0 -17 -0.5 -44t-1 -60t-1 -70t-0.5 -73q0 -65 2 -119.5t8 -77.5q5 12 11 41t13 65.5t15.5 76t18 72.5t20 54t21.5 21q5 0 8 -5t4.5 -11.5t1.5 -13v-9.5q0 -27 -3 -72t-3 -96q0 -33 2.5 -65.5t9 -60t18.5 -48t31 -29.5l5 -6l-8 -8q-25 10 -39 31.5t-21 48
t-8.5 54t-1.5 50.5q0 35 2.5 71.5t2.5 72.5q0 19 -1 38t-5 39q-19 -40 -29 -82.5t-17.5 -85t-16.5 -84.5t-25 -82l-6 -4q-9 0 -13.5 21.5t-7 50t-3 56.5t-0.5 42q0 75 1 150.5t1 150.5z" />
    <glyph glyph-name="i" unicode="i" horiz-adv-x="88" 
d="M36 344l8 -7q-1 -42 -3 -83.5t-2 -83.5q0 -36 7 -74t7 -67q0 -7 -5 -9q-8 0 -12.5 21t-7 47t-3.5 50.5t-1 32.5q0 42 2.5 83t2.5 83zM50 453l-12 -11q-8 3 -8 11q5 5 14 5z" />
    <glyph glyph-name="j" unicode="j" horiz-adv-x="86" 
d="M44 344l-4 -6q0 -50 5 -99t10.5 -98t10.5 -98.5t5 -98.5q0 -26 -6.5 -67.5t-21.5 -81.5t-39 -68.5t-59 -28.5q-14 0 -22 8t-13 19.5t-8 24.5t-6 23v3l7 7q6 -1 9.5 -12t8 -23.5t10.5 -23t18 -10.5q19 0 34.5 13t27.5 34.5t21 47.5t14.5 52.5t8.5 49.5t3 38q0 45 -5.5 90
t-12 89.5t-12 89t-5.5 89.5q0 9 1.5 24t10.5 20zM44 451l-8 -8h-7l-7 10q2 2 4 3l4 2h7z" />
    <glyph glyph-name="k" unicode="k" horiz-adv-x="187" 
d="M21 470l7 -7v-382q1 17 10 47.5t20.5 63.5t23.5 62t21 44v2v-1l6 2l7 -8q-7 -15 -19 -43.5t-24 -59t-20.5 -58.5t-8.5 -43q0 -31 20 -44t48 -13q32 0 66 13l9 -6q0 -6 -10 -10t-22.5 -7t-24.5 -4t-17 -1q-22 0 -43.5 8.5t-32.5 29.5q-1 -4 -2 -12t-3 -16t-5.5 -14.5
t-9.5 -6.5l-4 7v450z" />
    <glyph glyph-name="l" unicode="l" horiz-adv-x="67" 
d="M33 494q0 -42 -0.5 -84t-0.5 -84q0 -81 2.5 -160t12.5 -159l-7 -6q-6 0 -9.5 16.5t-6 42.5t-3.5 59t-1.5 67t-1 66t-0.5 57l-1 92q0 -2 0 12.5t0.5 33t2 35t5.5 19.5l6 -2l2 -5v0z" />
    <glyph glyph-name="g" unicode="g" horiz-adv-x="219" 
d="M148 320l-6 -8q-5 1 -17.5 10.5t-31.5 9.5q-23 0 -37 -24t-22.5 -56t-11.5 -63.5t-3 -47.5q0 -11 1 -29.5t5.5 -37.5t13.5 -32.5t25 -13.5q14 0 25 14t19 35.5t13 48t8.5 51t5.5 44.5l3 30l7 7l7 -8q4 -52 15.5 -102t22.5 -101l19 3l7 -7q-2 -7 -10 -8.5t-13 -2.5
q10 -36 16 -75t6 -77q0 -17 -5 -45t-15 -55t-26.5 -47t-38.5 -20q-17 0 -28.5 13.5t-18 32t-9.5 38t-3 31.5q0 27 6.5 59.5t19.5 62.5t33 54.5t48 36.5q-8 36 -17.5 71.5t-16.5 71.5q-3 -17 -6.5 -46t-11.5 -57.5t-22 -49.5t-37 -21q-22 0 -34.5 16t-19 38t-8 45.5
t-1.5 39.5q0 21 3 54t12 64.5t26.5 54t47.5 22.5q14 0 28 -5t26 -13zM136 -274q17 0 29 20.5t20 47.5t12 53.5t4 39.5q0 36 -5.5 71t-13.5 70q-25 -12 -43 -35.5t-30 -52t-17.5 -59.5t-5.5 -56q0 -10 3 -26.5t9 -32.5t15.5 -28t22.5 -12z" />
    <glyph glyph-name="m" unicode="m" horiz-adv-x="297" 
d="M16 341l7 -7v-35v-41q0 -54 2.5 -108.5t13.5 -105.5q10 20 17 48.5t12 58.5l10 60t10 54t12 38.5t17 14.5q7 0 11 -9t6 -20.5t2.5 -23t0.5 -15.5q0 -8 -0.5 -19.5t-0.5 -25.5q0 -15 0.5 -31t2 -31t4.5 -27t8 -19q13 17 21.5 42.5t15 54t11.5 56.5t12 49l8 5l6 -5
q7 -27 8 -66.5t3.5 -78.5t12 -73t35.5 -51l2 -6l-10 -7q-25 12 -36.5 44t-15.5 69.5t-4 75t-3 61.5q-3 -12 -8.5 -42.5t-13 -62.5t-18.5 -56.5t-26 -24.5q-10 0 -15.5 13.5t-8.5 35t-3.5 47t-1.5 49.5t-2 43.5t-4 27.5q-8 -15 -11 -31.5t-7 -33.5q-2 -7 -5.5 -26t-8 -42
t-10.5 -48.5t-12.5 -46.5t-12.5 -34.5t-12 -13.5q-5 0 -9 16.5t-7 43t-5 60.5t-3.5 68.5t-2.5 67t-1 57.5z" />
    <glyph glyph-name="n" unicode="n" horiz-adv-x="212" 
d="M16 298l7 -7q9 -57 11.5 -114t18.5 -113q4 11 7.5 36.5t7 57t7.5 65t10.5 61t16 45.5t23.5 18t21.5 -20.5t12 -52.5t7 -71t6.5 -76t10.5 -66.5t19.5 -43.5q9 -10 18 -19t19 -17l-6 -7q-30 9 -46 37t-24 65.5t-10.5 79.5t-4.5 78.5t-7 63t-18 33.5q-10 0 -16.5 -17
t-11 -43.5t-8 -59.5t-7.5 -65.5t-8.5 -61.5t-10.5 -47l-3 -1q-9 0 -15.5 16.5t-11.5 41.5t-8.5 55.5t-6 59t-4.5 51t-3 31.5z" />
    <glyph glyph-name="o" unicode="o" horiz-adv-x="186" 
d="M13 214q0 21 1.5 44.5t8 44t19 34t34.5 13.5q30 0 48.5 -21t28.5 -50t13.5 -60.5t3.5 -52.5q0 -17 -4 -44t-13.5 -52t-25.5 -43t-39 -18t-38 20.5t-23 49t-11 57.5t-3 46v32zM157 175q0 18 -4 45t-13.5 52t-25.5 43t-40 18q-17 0 -27 -17t-14.5 -39.5t-5.5 -45t-1 -33.5
q0 -14 2 -42t8.5 -56t18.5 -49.5t33 -21.5q22 0 35.5 17t21 40.5t10 48.5t2.5 40z" />
    <glyph glyph-name="p" unicode="p" horiz-adv-x="207" 
d="M56 -127q1 22 -4 51t-7 49l-39 320l-2 4l9 12q5 -1 8.5 -13.5t6 -32t3.5 -42.5t2.5 -44.5t3.5 -39t6 -24.5q1 12 3.5 35.5t7 51t11.5 56t17 51.5t23.5 38t30.5 15q16 0 27 -19t17.5 -44t9 -50t2.5 -36q0 -20 -3.5 -56t-14 -71.5t-29 -61.5t-47.5 -26q-11 0 -24 8.5
t-14 20.5l8 11q8 -4 17.5 -14t16.5 -10q22 0 36.5 23.5t23 55t12 63t3.5 46.5q0 10 -1.5 33.5t-6 48t-13.5 43.5t-23 19l-11 -5q-21 -30 -33.5 -63.5t-19 -69t-9 -72t-2.5 -71.5v-48.5t1 -53.5t4 -53.5t8 -47.5h-3l-5 -4l-7 6v11z" />
    <glyph glyph-name="q" unicode="q" horiz-adv-x="193" 
d="M164 305q-5 0 -6.5 3t-2 7t-1.5 7t-4 5q-22 -9 -45 -36.5t-41.5 -62t-30.5 -70t-12 -58.5q0 -19 11 -29q14 3 25.5 19.5t21 40t17 50t14 49t13 37.5t13.5 15t9 -4.5t2 -9.5q0 -81 1.5 -161.5t6.5 -160.5q15 8 32.5 13.5t35.5 5.5t31 -7.5t21 -19.5t11.5 -27.5t3.5 -31.5
q0 -15 -4 -41t-13.5 -51t-24 -43.5t-35.5 -18.5t-35 24t-22 55.5t-12 63t-5 46.5q-19 -19 -28 -45t-11 -52l-7 -7l-8 7q2 33 14 64t38 53q-1 21 -1 42v42q0 42 0.5 84t0.5 84q0 18 -0.5 36.5t-2.5 36.5q-8 -16 -15.5 -50t-18 -68t-26 -59.5t-39.5 -25.5q-14 0 -22 12.5
t-8 25.5t6.5 37t17.5 51.5t25.5 56t30.5 51.5t32.5 37.5t31.5 14.5q11 0 15 -10.5t6 -18.5zM229 -51q-20 0 -38.5 -4t-34.5 -16q0 -14 2.5 -44.5t9.5 -62.5t19 -56t30 -24q14 0 25 17t18.5 39.5t11 45t3.5 33.5q0 10 -2.5 22.5t-7.5 23.5t-14 18.5t-22 7.5z" />
    <glyph glyph-name="r" unicode="r" horiz-adv-x="171" 
d="M59 -12q-1 17 -2.5 46.5t-4 65t-6.5 73.5t-9 71.5t-11.5 58.5t-14.5 35l7 6q7 -1 13 -16t11 -37.5t9 -49t6.5 -51t4 -43t1.5 -24.5q1 23 4 62.5t11.5 78t25.5 69t47 35.5l7 -7l-6 -7q-23 -3 -37.5 -31t-23.5 -68.5t-13 -87.5t-6.5 -86.5t-4.5 -66t-6 -26.5h-2v0z" />
    <glyph glyph-name="s" unicode="s" horiz-adv-x="217" 
d="M138 351l-7 -7q-7 1 -13 4t-13 3q-16 0 -30 -12.5t-25 -30.5t-17.5 -37.5t-6.5 -32.5q0 -18 13 -28t32.5 -16t42.5 -10.5t42.5 -12.5t32.5 -21.5t13 -37.5q0 -22 -10.5 -42t-27 -35t-38 -24t-42.5 -9q-25 0 -39.5 8t-22 22t-10 32.5t-2.5 38.5q0 8 7 10l8 -8
q0 -15 1 -30.5t6.5 -29t16 -22t29.5 -8.5q20 0 39.5 7.5t34.5 20.5t24.5 31t9.5 39t-13 32.5t-32.5 18t-42.5 11t-42.5 12t-32.5 20.5t-13 37q0 17 8.5 38t22.5 39.5t32 31t37 12.5q14 0 26 -9z" />
    <glyph glyph-name="t" unicode="t" horiz-adv-x="160" 
d="M2 290q0 4 9.5 7.5t21 6t22.5 4t15 2.5q4 45 7 90l6 90l7 7l7 -7q-2 -45 -5.5 -89t-6.5 -89l54 8l7 -7q0 -4 -8.5 -7t-19 -4.5t-20.5 -2.5t-14 -2q-4 -42 -6 -84.5t-2 -84.5q0 -33 3 -65.5t13 -64.5q4 -11 11.5 -24t8.5 -24l-7 -8l-6 5q-12 27 -19.5 47.5t-11 40t-4.5 41
t-1 50.5q0 42 1 84t4 84q-15 -2 -29.5 -4.5t-28.5 -6.5z" />
    <glyph glyph-name="u" unicode="u" horiz-adv-x="198" 
d="M13 339q7 -2 11 -22t6.5 -47.5t4 -55.5t3.5 -45q1 -12 4 -30.5t7.5 -37.5t11 -35.5t14.5 -25.5q11 8 19.5 27.5t15 45t11.5 54.5t8 56.5t5 50.5t3 37v15.5t1 24t3 22.5t6 10q2 0 4.5 -2.5l3.5 -3.5q0 -48 -3.5 -95.5t-3.5 -95.5q0 -18 0.5 -42t3 -49t7.5 -47.5t14 -38.5
q5 -8 11.5 -15t8.5 -15l-7 -8q-15 0 -25 24.5t-16 56t-8.5 61.5t-2.5 41q-5 -15 -9 -33.5t-10 -37t-14.5 -35t-21.5 -26.5h-2q-3 0 -5.5 1t-4.5 2q-27 36 -35 74.5t-9.5 78.5t-2.5 79t-15 75l8 7v0z" />
    <glyph glyph-name="v" unicode="v" horiz-adv-x="144" 
d="M76 -3q-12 0 -21 30t-16.5 71t-13 83t-10.5 66q-2 11 -6.5 23t-4.5 23q0 4 2 9t7 5q4 0 8 -15t8.5 -40t9.5 -56.5t11 -63.5t12 -62.5t14 -52.5q6 16 11.5 45t9.5 64.5t6.5 75t4.5 76t3 68t2 51.5l8 7l7 -7q-1 -30 -2.5 -71.5t-4 -85.5t-6 -88t-9 -78t-13 -55.5
t-17.5 -21.5z" />
    <glyph glyph-name="w" unicode="w" horiz-adv-x="309" 
d="M17 327l8 -8q0 -35 1 -75t5.5 -80t14.5 -78t29 -69h6q16 23 26 61t15.5 74.5t7.5 63t3 27.5l6 4l9 -9q-2 -12 -4 -25t-2 -24t2.5 -36.5t9.5 -51.5t17.5 -46t27.5 -20q20 0 35 23t24.5 54t14 61t4.5 45q0 18 -4.5 41.5t-14 44.5t-25.5 35.5t-39 14.5q-8 0 -15 -1.5
t-15 -2.5l-7 6q-1 1 -1 2q0 3 3.5 4.5t8 2t8 1t4.5 0.5q32 0 53 -12.5t33.5 -33t17.5 -47t5 -53.5q0 -16 -5 -49t-16 -66.5t-27.5 -58.5t-40.5 -25q-17 0 -28.5 12.5t-19 29.5t-12.5 35.5t-8 30.5l-5.5 -33t-10 -41.5t-17 -36t-27.5 -15.5q-13 0 -23 20.5t-17 52t-11 69
t-6.5 73t-3.5 63t-1 38.5z" />
    <glyph glyph-name="x" unicode="x" horiz-adv-x="224" 
d="M25 333q-4 0 -8 -2l-7 7q2 5 6.5 7.5t9.5 2.5q13 0 27.5 -14t28 -33t24.5 -38.5t16 -30.5q16 33 31 65.5t44 57.5l11 -6l-4 -7q-14 -12 -24.5 -27t-18.5 -31.5t-15 -34t-15 -33.5q11 -21 24 -56t26.5 -77t26 -87.5t22 -88t15.5 -79t6 -59.5q0 -2 -1.5 -5t-4.5 -3l-8 6
q-3 14 -9.5 50t-16 82.5t-21 97t-23 94t-23 73t-20.5 34.5q-23 -55 -41.5 -111.5t-27.5 -116.5l-8 -7l-7 8q11 63 30.5 123.5t44.5 119.5q-5 9 -15.5 28.5t-24 39.5t-27 35.5t-23.5 15.5z" />
    <glyph glyph-name="y" unicode="y" horiz-adv-x="220" 
d="M17 329l8 -7q0 -17 -0.5 -41.5t-0.5 -53.5q0 -27 0.5 -56t3 -55.5t6.5 -48.5t11 -35q6 1 15.5 23t20 54t21.5 70.5t20.5 73.5t17 62.5t11.5 38.5l6 3q6 -1 11 -18t8 -45t5 -63t2.5 -71t1 -70.5t0.5 -60.5v11l15 -2.5t11 -8.5l-9 -7l-16 3v-42.5t-2 -66.5t-6 -76.5
t-12.5 -72.5t-22 -54t-33.5 -21t-31.5 12.5t-18 30t-8.5 37t-2 33.5q0 28 6.5 66t21 74t37.5 63.5t56 33.5v83q0 51 -2.5 102t-12.5 97q-5 -11 -12 -38t-15.5 -61t-18.5 -71t-21 -67.5t-22 -50t-21 -19.5t-16.5 19.5t-10.5 50t-6 66.5t-2.5 70t-0.5 61v38zM121 -290
q20 29 30.5 69t15 83.5t4.5 86.5v78q-16 0 -30.5 -13t-27 -33t-22 -45t-16 -49.5t-10 -46t-3.5 -34.5q0 -11 2 -28t7.5 -32.5t15 -26.5t25.5 -11q3 0 9 2z" />
    <glyph glyph-name="z" unicode="z" horiz-adv-x="220" 
d="M49 341q-13 0 -20.5 -3.5t-18.5 -5.5l-8 7q0 5 5.5 8.5t13 5t14.5 2t11 0.5q16 0 36 -1t38 -6.5t30 -17.5t12 -34q0 -23 -18.5 -53.5t-41 -65t-41 -70t-18.5 -67.5q0 -11 4.5 -19t17.5 -8q15 0 33 10t36 23.5t35.5 26.5t32.5 20l8 -7l-4 -7q-18 -8 -35 -21.5t-33.5 -26.5
t-35 -22t-39.5 -9q-19 0 -28 10.5t-9 28.5q0 33 18.5 66.5t41 66.5t41.5 65t19 62q0 16 -11 24.5t-27 12.5t-32.5 4.5t-26.5 0.5z" />
    <glyph glyph-name="space" unicode=" " horiz-adv-x="137" 
 />
    <glyph glyph-name="zero" unicode="0" horiz-adv-x="251" 
d="M137 432l-7 -7q-5 2 -10 4.5t-10 2.5q-19 0 -33 -16.5t-24 -43t-16 -58t-9.5 -62t-5 -55t-1.5 -36.5t1 -36t5.5 -48.5t15 -43t28.5 -18.5q14 0 30.5 13.5t32.5 34.5t30.5 47.5t25.5 52.5t17.5 48t6.5 36q0 27 -12.5 47.5t-31.5 37.5t-40.5 31t-40.5 28l-4 7l8 7l4 -1
q20 -15 43.5 -30t43 -32.5t32.5 -39.5t13 -52q0 -16 -7 -41t-18.5 -52.5t-27.5 -55.5t-34 -50t-37 -36t-38 -14q-21 0 -33.5 20.5t-18.5 48.5t-8 55.5t-2 41.5t2 40.5t6.5 57.5t12 63.5t19.5 59t28 43t38 16.5q7 0 13 -2.5t11 -6.5z" />
    <glyph glyph-name="one" unicode="1" horiz-adv-x="102" 
d="M48 436l7 -8q0 -57 -2.5 -112.5t-2.5 -112.5q0 -54 4.5 -108.5t16.5 -108.5l-6 -9q-7 1 -11.5 16t-7.5 37.5t-5 49.5t-3 52t-1.5 45t-0.5 28q0 56 2 111.5t2 111.5z" />
    <glyph glyph-name="two" unicode="2" horiz-adv-x="202" 
d="M20 333l-7 7q1 12 12 27.5t26 29.5t31.5 24t28.5 10q10 0 16.5 -6.5t10 -15.5t5 -19.5t1.5 -17.5q0 -46 -17 -90.5t-38 -87.5t-38 -83.5t-17 -78.5l5 -3q11 0 30 6.5t40 15t40 17.5t31 14l6 -6q-1 -8 -21 -18.5t-45 -20t-48.5 -16t-32.5 -6.5q-3 0 -11 1t-8 7q0 42 17 84
t37 85t37 88t17 93q0 5 -0.5 12.5t-2.5 14t-6 11.5t-12 5q-9 0 -22 -9t-25.5 -21.5t-21.5 -25.5t-10 -21z" />
    <glyph glyph-name="three" unicode="3" horiz-adv-x="264" 
d="M82 417l4 -3q13 8 28 13.5t31 5.5q26 0 36 -16.5t10 -39.5q0 -21 -7 -40t-18 -36t-25 -32.5t-28 -29.5q18 5 36 9.5t37 4.5q29 0 47 -15.5t18 -45.5q0 -23 -13.5 -56.5t-34.5 -65t-46.5 -53.5t-50.5 -22q-18 0 -35.5 4t-31 13.5t-22 24.5t-8.5 36l7 7l6 -3q4 -11 9.5 -24
t13 -23.5t18 -17.5t25.5 -7q25 0 51.5 20.5t48.5 49.5t36 61t14 56q0 21 -13.5 34.5t-34.5 13.5q-23 0 -44 -9.5t-44 -9.5q-5 0 -9 2.5t-7 5.5l1 4l30.5 30.5t28 33.5t21 37.5t8.5 42.5q0 16 -8 29.5t-26 13.5q-8 0 -14.5 -3.5t-13.5 -7t-13.5 -7t-14.5 -3.5q-9 0 -11 10z
" />
    <glyph glyph-name="four" unicode="4" horiz-adv-x="204" 
d="M154 344v1l-1 -1q0 6 0.5 22.5t1 34t3 31t7.5 13.5t6.5 -9t1.5 -12l-2 -5q-2 -61 -8 -121l-12 -120l31 2l7 -7l-8 -7l-32 -3q-3 -36 -5.5 -72.5t-2.5 -72.5l1 -25l-7 -7q-7 16 -7 29q0 37 1 74t4 74q-8 -1 -16 -1.5t-16 -0.5q-18 0 -34.5 3t-28.5 11t-19.5 22.5
t-7.5 37.5q0 22 5 43t11.5 41.5t11.5 41t5 41.5l-4 2v5l7 8q8 -1 10 -9.5t2 -14.5q0 -21 -5 -41.5t-11.5 -41t-11.5 -41.5t-5 -43q0 -32 20 -41.5t48 -8.5l41 1q4 40 8.5 79.5t9.5 79.5l-1 3z" />
    <glyph glyph-name="five" unicode="5" horiz-adv-x="212" 
d="M168 412l-8 -7q-11 0 -27.5 1t-34.5 1q-19 0 -36 -2t-26 -9q4 -3 6.5 -23t4 -44.5t2.5 -46.5t1 -29q19 14 38 27t44 13q18 0 29.5 -10.5t18 -26t8.5 -33t2 -31.5q0 -23 -8 -55t-23 -61t-37 -50t-49 -21q-14 0 -24 7t-17.5 17.5t-12 22.5t-8.5 23l7 8l7 -7q5 -18 18 -37.5
t35 -19.5t40 21t30.5 50t19.5 59t7 47q0 11 -2 25.5t-7.5 27t-15 21t-24.5 8.5q-14 0 -25.5 -7.5t-21.5 -16.5t-19 -16.5t-16 -7.5t-9 19.5t-3 46.5t-3 56t-8 49l-1 4q0 6 11 9.5t24.5 5t26 1.5h16.5l64 -1z" />
    <glyph glyph-name="six" unicode="6" horiz-adv-x="215" 
d="M58 439l7 -7q-8 -79 -20.5 -157.5t-12.5 -158.5q0 -13 1 -29t5.5 -31t13 -27.5t23.5 -17.5q1 22 6.5 59t15 75t24 70t35.5 44q13 0 20.5 -10t12 -23.5t6 -27.5t1.5 -23q0 -23 -6 -53t-19 -57t-33.5 -46t-49.5 -19l6 -37l-6 -7q-5 2 -7 7t-3 11t-2.5 12t-5.5 10
q-18 16 -28 28.5t-15.5 26t-6.5 30.5t-1 41q0 78 11.5 155t19.5 155zM159 244q-15 -9 -27.5 -39.5t-22.5 -66.5t-15.5 -70.5t-6.5 -51.5q27 0 44.5 18t28.5 43.5t15.5 53.5t4.5 48q0 6 -0.5 16t-2.5 20t-6.5 18t-11.5 11z" />
    <glyph glyph-name="seven" unicode="7" horiz-adv-x="171" 
d="M13 410q22 10 49 18t51 8q14 0 25.5 -7t10.5 -23l-1 -13q-6 -48 -15.5 -95t-18.5 -94.5t-16 -95t-8 -96.5l-7 -7l-8 7q2 61 9 121t20 120q8 36 18 75t10 77q0 6 -1.5 11.5t-9.5 5.5q-23 0 -49 -8.5t-50 -10.5z" />
    <glyph glyph-name="eight" unicode="8" horiz-adv-x="241" 
d="M160 396l-7 -7l-2 1q-8 -38 -24 -72.5t-32 -69.5q15 -13 37 -29t42.5 -34t35 -38t14.5 -42q0 -23 -15.5 -46.5t-38.5 -42t-49 -30t-48 -11.5q-15 0 -25.5 7t-18 18t-11 24.5t-3.5 26.5q0 23 6.5 48.5t16.5 51t21 50t20 45.5q-23 22 -42.5 49.5t-19.5 61.5t25 51t56 17
q11 0 21.5 -2t20.5 -7v39l-4 -1l-6 8q1 3 5 12t7 9q9 0 11.5 -11t2.5 -23v-23.5t-2 -19.5l4 -4zM83 -10q19 0 41 11t41 28t31.5 37.5t12.5 39.5t-14 37.5t-33 35t-39 31t-33 26.5q-8 -24 -19 -45t-20.5 -42t-16 -43.5t-6.5 -49.5q0 -26 13 -46t42 -20zM85 258q17 34 32.5 69
t21.5 73q-11 6 -23 7.5t-24 1.5q-25 0 -43 -13t-18 -40q0 -29 17 -54t37 -44z" />
    <glyph glyph-name="nine" unicode="9" horiz-adv-x="193" 
d="M161 447l-8 8q-13 -3 -26.5 -4t-25.5 -8q-17 -9 -30 -25.5t-23 -36.5t-15 -41t-5 -39q0 -20 4 -36l15 -6q30 20 49.5 48.5t33.5 61.5q2 5 4.5 13.5t6.5 17t9 14.5t13 6l6 -8q-1 -42 -7 -82.5t-10 -82.5q-12 -132 -12 -263l-8 -7l-7 7q1 102 9.5 202t19.5 201
q-6 -14 -17 -38t-25.5 -47t-31.5 -40t-36 -17q-17 0 -25.5 12t-8.5 28q0 26 9 58.5t26.5 60.5t41.5 47t54 19q7 0 16 -2.5t9 -11.5z" />
    <glyph glyph-name="dollar" unicode="$" horiz-adv-x="202" 
d="M99 466q3 0 5 -7t2.5 -16t0.5 -17v-10v-43l17 5q5 -2 9 -4.5t4 -7.5l-7 -7l-5 3q-10 0 -18 -4l3 -141q8 -1 20.5 -1t24 -2t20 -7.5t8.5 -17.5q0 -8 -9 -16.5t-21 -17t-23.5 -14.5t-17.5 -9l-1 -130q0 -4 -1.5 -8t-6.5 -4q-7 5 -7 14q0 31 1 61.5t1 61.5q-8 -4 -16.5 -5
t-17.5 -1q-12 0 -25.5 6.5t-13.5 20.5l7 8q3 0 6 -3.5t6 -7.5t7 -7.5t10 -3.5q10 0 19 3t18 7q-1 15 -1.5 30.5t-0.5 30.5q-8 1 -22 3t-28.5 6.5t-25 11.5t-10.5 18q0 43 24 72t59 49q-1 23 -1 46.5v46.5zM25 247q10 -7 17 -12t14.5 -8t16.5 -5.5t22 -3.5l-2 132
q-32 -20 -48 -43t-20 -60zM166 196q-13 4 -27 4.5t-28 1.5l1 -53q16 8 29 18.5t26 22.5z" />
    <glyph glyph-name="cent" unicode="&#xa2;" horiz-adv-x="190" 
d="M90 458q3 0 4.5 -6.5t2 -16t1 -21t0.5 -21.5v-32q7 5 19 14t20 10l7 -6q0 -4 -6 -9t-14 -10t-15.5 -9.5t-10.5 -6.5l4 -183q23 0 37.5 5.5t35.5 13.5l8 -6l-4 -8q-11 -5 -20 -8t-17.5 -5t-18 -3.5t-21.5 -3.5l1 -144l-7 -7l-7 7l-2 145q-32 3 -54.5 28t-22.5 57
q0 38 22.5 67.5t51.5 50.5q-1 26 -1 50.5v50.5zM84 332q-23 -19 -41.5 -44.5t-18.5 -57.5q0 -27 18.5 -44.5t43.5 -22.5z" />
    <glyph glyph-name="bracketleft" unicode="[" horiz-adv-x="136" 
d="M98 456l-8 -7q-8 1 -17 2.5t-17 1.5q-14 0 -20 -17t-8 -41.5t-1.5 -51.5t0.5 -46v-127t8 -126h22q10 0 21.5 -1t21.5 -3.5t16.5 -7t6.5 -12.5l-6 -7l-6 1q-9 9 -23.5 12t-28 3.5t-24.5 1t-13 5.5q-3 7 -5 41.5t-2.5 79.5t-1 92.5t-0.5 80.5v25.5t-0.5 17t-0.5 13.5v15
q0 12 1.5 23.5t6.5 20.5t14 14.5t25 5.5q8 0 16.5 -0.5t16.5 -1.5z" />
    <glyph glyph-name="bracketright" unicode="]" horiz-adv-x="128" 
d="M25 454q1 3 9 6.5t18 6.5t19 5t13 2q14 0 16.5 -12t2.5 -22l-1 -52q-1 -31 -2.5 -71.5t-3.5 -83.5t-5.5 -84.5t-8 -74t-10.5 -52.5t-14 -20q-3 0 -10.5 2.5t-15.5 6.5t-14.5 7.5t-7.5 6.5l7 6q13 0 21.5 -7t13.5 -7q4 0 7 11t5.5 26t4 30.5t2.5 24.5q8 83 13 167t5 168
q0 5 -1.5 11t-9.5 6q-12 0 -23 -6t-23 -8z" />
    <glyph glyph-name="braceleft" unicode="{" horiz-adv-x="148" 
d="M132 495q7 0 9 -6l-5 -8q-38 -2 -52.5 -23t-14.5 -56q0 -32 5.5 -64t5.5 -64q0 -29 -10 -51t-34 -39q36 0 44.5 -16.5t8.5 -54.5q0 -10 -2 -31t-2 -41q0 -18 4.5 -25.5t12 -9.5t16 -0.5t17.5 1.5l6 -7q0 -6 -9 -7.5t-16 -1.5q-26 0 -35 6.5t-9 30.5q0 10 2 31.5t2 44.5
q0 26 -6 47.5t-24 21.5q-3 0 -8.5 -1t-10.5 -1q-6 0 -10.5 2t-4.5 8l2 5q28 18 40 44t12 58q0 31 -6 60.5t-6 60.5q0 33 20.5 59.5t57.5 26.5z" />
    <glyph glyph-name="braceright" unicode="}" horiz-adv-x="186" 
d="M12 481l9 7q31 -6 49 -14.5t26 -22.5t10 -35.5t2 -52.5q0 -28 -2.5 -55t-2.5 -55q0 -19 7 -29t18 -16t23.5 -11t23.5 -15l3 -7q-1 -8 -11 -11t-15 -8q-15 -12 -21 -29.5t-8.5 -37t-3 -39t-5 -35t-15 -25.5t-32.5 -10q-5 0 -12 3t-9 9l7 7q5 -2 10 -3t9 -1q14 0 20.5 9.5
t9.5 25t4.5 34.5t6.5 39t15.5 39t30.5 33q-17 12 -30 17t-21.5 12t-13 20t-4.5 41q0 23 3 51t3 54q0 20 -3 38t-11.5 32t-24 22.5t-40.5 10.5z" />
    <glyph glyph-name="parenleft" unicode="(" horiz-adv-x="132" 
d="M108 492l7 -7l-2 -4q-43 -60 -63 -131.5t-20 -144.5q0 -29 4.5 -58.5t15.5 -56.5t29 -49.5t46 -36.5l2 -6l-6 -8l-4 1q-30 15 -49.5 39.5t-31 53.5t-16 61.5t-4.5 62.5q0 34 5.5 72.5t16 76t26.5 72t38 61.5z" />
    <glyph glyph-name="parenright" unicode=")" horiz-adv-x="115" 
d="M85 224q0 39 -5 73t-15 66t-24 63t-33 64l-2 5l7 7l7 -3q41 -61 60.5 -132.5t19.5 -144.5q0 -72 -19 -142t-59 -130l-6 -4l-7 8l1 3q36 65 55.5 128.5t19.5 138.5z" />
    <glyph glyph-name="slash" unicode="/" horiz-adv-x="215" 
d="M195 482l7 -6v-3q-27 -64 -54 -128.5t-52 -129.5t-46.5 -131t-37.5 -134l-8 -6l-7 8q32 137 85 267.5t107 260.5z" />
    <glyph glyph-name="perthousand" unicode="&#x2030;" horiz-adv-x="427" 
d="M191 132q0 15 4.5 30.5t13.5 28t22 20t30 7.5q19 0 26.5 -17.5t7.5 -33.5q0 -28 -16 -51.5t-47 -23.5q-41 0 -41 40zM247 482l7 -6l-1 -3q-26 -65 -53 -129t-52.5 -129t-47 -131t-37.5 -134l-8 -6l-7 8q16 69 38 135.5t47 132t52 130.5l54 130zM284 175q0 13 -8 20.5
t-21 7.5q-10 0 -19 -7t-16 -17t-11 -21.5t-4 -20.5q0 -11 6 -22t19 -11q10 0 20 7.5t17.5 19t12 23.5t4.5 21zM86 407q-8 2 -12 2q-11 0 -19 -7.5t-13.5 -18t-8 -22.5t-2.5 -21q0 -16 8.5 -32t27.5 -16t32.5 16t13.5 34q0 15 -10.5 24t-24.5 12l-5 8l7 6q19 0 33.5 -15
t14.5 -34q0 -24 -17 -44.5t-43 -20.5q-25 0 -38 17t-13 40q0 13 3.5 29t10.5 30t18.5 23t28.5 9q5 0 9.5 -1.5t6.5 -6.5zM308 132q0 16 4.5 31.5t13 27.5t21.5 19.5t31 7.5q19 0 26.5 -17.5t7.5 -33.5q0 -28 -16.5 -51.5t-47.5 -23.5q-40 0 -40 40zM401 175q0 12 -8.5 20
t-20.5 8q-10 0 -19 -7t-16 -17t-11 -21.5t-4 -20.5q0 -11 6 -22t19 -11q10 0 20 7.5t17.5 19t12 23.5t4.5 21z" />
    <glyph glyph-name="percent" unicode="%" horiz-adv-x="311" 
d="M191 132q0 15 4.5 30.5t13.5 28t22 20t30 7.5q19 0 26.5 -17.5t7.5 -33.5q0 -28 -16 -51.5t-47 -23.5q-41 0 -41 40zM247 482l7 -6l-1 -3q-26 -65 -53 -129t-52.5 -129t-47 -131t-37.5 -134l-8 -6l-7 8q16 69 38 135.5t47 132t52 130.5l54 130zM284 175q0 13 -8 20.5
t-21 7.5q-10 0 -19 -7t-16 -17t-11 -21.5t-4 -20.5q0 -11 6 -22t19 -11q10 0 20 7.5t17.5 19t12 23.5t4.5 21zM86 407q-8 2 -12 2q-11 0 -19 -7.5t-13.5 -18t-8 -22.5t-2.5 -21q0 -16 8.5 -32t27.5 -16t32.5 16t13.5 34q0 15 -10.5 24t-24.5 12l-5 8l7 6q19 0 33.5 -15
t14.5 -34q0 -24 -17 -44.5t-43 -20.5q-25 0 -38 17t-13 40q0 13 3.5 29t10.5 30t18.5 23t28.5 9q5 0 9.5 -1.5t6.5 -6.5z" />
    <glyph glyph-name="plus" unicode="+" horiz-adv-x="207" 
d="M13 280q0 4 8.5 7.5t19.5 6.5t21 4.5t14 2.5v90l8 7l7 -7v-86q49 11 95 14l7 -8l-7 -7q-24 -2 -47.5 -5.5t-46.5 -8.5q1 -29 1.5 -57t0.5 -57l-8 -6l-9 6v110l-56 -12z" />
    <glyph glyph-name="minus" unicode="&#x2212;" horiz-adv-x="178" 
d="M11 301l7 8q35 0 70.5 1.5t70.5 2.5l7 -7l-6 -7q-35 -1 -70.5 -3t-70.5 -3z" />
    <glyph glyph-name="divide" unicode="&#xf7;" horiz-adv-x="219" 
d="M198 301q-45 -5 -88.5 -7.5t-88.5 -2.5l-7 6l8 8q45 0 88.5 3t87.5 8l6 -7zM115 379l-6 -6l-7 6q2 7 9 7zM122 241l-6 -6l-1 6l3 7z" />
    <glyph glyph-name="multiply" unicode="&#xd7;" horiz-adv-x="163" 
d="M80 301q-5 7 -15.5 18t-21.5 22t-20 20.5t-10 12.5l8 8q7 0 16 -8.5t18.5 -19t17.5 -21t13 -16.5l32 74l7 3l7 -6q-5 -20 -16 -42.5t-20 -42.5q3 -4 12.5 -18t20 -30.5t18.5 -30t8 -15.5l-7 -7q-5 0 -13 11.5t-17 26.5t-17 29t-11 19q-2 -5 -8.5 -20.5t-14 -32t-15 -29.5
t-12.5 -13l-7 9q1 4 7 17.5t14 29t15.5 30t10.5 22.5z" />
    <glyph glyph-name="ampersand" unicode="&#x26;" horiz-adv-x="227" 
d="M131 100q4 -5 17.5 -18t27.5 -28t25.5 -27.5t11.5 -16.5l-8 -7q-3 0 -15 12t-26 27t-26.5 29t-16.5 18q-16 -16 -39 -31.5t-46 -15.5q-6 0 -10.5 10t-4.5 15q0 10 3.5 23.5t9 27t11 26t9.5 21.5q-17 22 -30 47t-13 53q0 18 5 38.5t15 37.5t26 28.5t37 11.5
q17 0 25.5 -10.5t8.5 -26.5q0 -48 -18.5 -92.5t-38.5 -87.5q12 -14 24.5 -27t25.5 -26q3 3 8 9.5t11 13.5t11.5 12.5t8.5 5.5l6 -6q0 -4 -4.5 -10.5t-10.5 -13.5t-11.5 -13t-8.5 -9zM26 271q0 -26 9.5 -48.5t23.5 -43.5q7 16 16.5 35t18 39t14 40t5.5 38q0 11 -3.5 23
t-17.5 12q-17 0 -29 -9.5t-20.5 -24t-12.5 -31t-4 -30.5zM40 57q20 1 38.5 15t32.5 28q-12 12 -23.5 24.5t-22.5 25.5q-9 -17 -18.5 -37.5t-9.5 -40.5q0 -4 1 -7.5t2 -7.5z" />
    <glyph glyph-name="exclam" unicode="!" horiz-adv-x="94" 
d="M39 470l7 -7v-130q0 -60 1.5 -119t6.5 -119l-7 -6q-7 1 -10 25.5t-4.5 59t-1.5 72v63.5v154zM58 21l-8 -8h-2q-6 4 -6 10q0 3 1 6t-4 4l18 -7z" />
    <glyph glyph-name="at" unicode="@" horiz-adv-x="239" 
d="M155 229q-5 1 -7.5 6l-5.5 11t-7 11t-11 5q-17 0 -27 -12t-15 -29t-6.5 -35t-1.5 -30q0 -17 2 -40.5t16 -37.5q10 6 17.5 24.5t13 38t10 34.5t8.5 15q9 0 11 -6.5t2 -13.5q0 -5 -0.5 -9.5t-0.5 -9.5q0 -9 2.5 -17t10.5 -11q26 13 35.5 41t9.5 55q0 18 -4 44t-13.5 50.5
t-25 42t-39.5 17.5q-32 0 -52.5 -19.5t-32 -47t-16 -58.5t-4.5 -55q0 -21 3.5 -52.5t13.5 -61t28.5 -50t48.5 -20.5q18 0 34 10t27 24l5 1l6 -7l-1 -5q-14 -16 -28.5 -29t-37.5 -13q-35 0 -57.5 22.5t-35.5 54.5t-18 68t-5 62q0 27 6 60.5t20.5 63t37.5 49t57 19.5
q23 0 41 -16.5t30 -39.5t18.5 -49t6.5 -45q0 -11 -2 -33t-8 -44t-16.5 -38.5t-26.5 -16.5q-15 0 -22.5 14.5t-9.5 26.5q-2 -7 -6 -21.5t-10 -29t-14 -25.5t-18 -11t-16.5 12.5t-10 29t-5 32t-1.5 22.5q0 15 3 35.5t10.5 39t20 32t32.5 13.5q16 0 25 -12.5t11 -26.5z" />
    <glyph glyph-name="question" unicode="?" horiz-adv-x="147" 
d="M85 466q-20 0 -33.5 -10t-30.5 -13l-8 7q2 5 11 10.5t20 10.5t21.5 8t15.5 3q17 0 27.5 -7t16 -18.5t7.5 -25.5t2 -27q0 -39 -6.5 -78t-15 -77t-17 -76.5t-13.5 -77.5l-7 -6l-8 6q5 41 14 81.5t17.5 81t14.5 81.5t6 83q0 17 -7 30.5t-27 13.5zM75 39l7 -8v-13l-7 -6l-8 6
v13z" />
    <glyph glyph-name="period" unicode="." horiz-adv-x="55" 
d="M36 21l-7 -8h-3q-5 3 -5 10q0 8 7 10l7 -7z" />
    <glyph glyph-name="comma" unicode="," horiz-adv-x="86" 
d="M25 35l7 6q7 0 11 -5.5t6 -13t3 -15t1 -12.5q0 -3 -1 -15t-3 -24.5t-5 -22.5t-8 -10l-7 8q0 16 5 31.5t5 32.5q0 8 -1 18.5t-9 15.5z" />
    <glyph glyph-name="quotedbl" unicode="&#x22;" horiz-adv-x="109" 
d="M77 436l8 -9v-108l-8 -7l-7 7v108zM18 438l7 -7q0 -32 4 -56l9 -54l-7 -7q-8 0 -12 14.5t-6 33t-2 37v26.5v6z" />
    <glyph glyph-name="numbersign" unicode="#" horiz-adv-x="269" 
d="M55 405q4 0 7 -14t5 -31.5t3.5 -34t1.5 -22.5q20 5 39 9t38 9q-1 22 -1 44v44l7 8q3 0 4.5 -5.5t2.5 -13.5t1.5 -16.5t0.5 -14.5v-32v-10l60 18l9 -7l-5 -8l-63 -18q1 -18 1 -36t2 -36l79 4l8 -7q0 -4 -12 -6.5t-27 -3.5t-29 -1.5t-18 -0.5q2 -30 3 -60.5t2 -60.5l-8 -7
l-7 7q-1 30 -1.5 59.5t-2.5 59.5q-19 -1 -38 -2.5t-38 -2.5q2 -22 2.5 -43t1.5 -43l-8 -7q-5 0 -6.5 12.5t-2.5 28.5t-1 31v20q-10 -1 -19 -1h-19l-8 7q0 5 9 6.5t19 1.5h17q-1 14 -2 28.5t-3 28.5q-11 -2 -23 -2.5t-24 -1.5l-8 8q0 4 7.5 6t16.5 3t18 1.5t12 0.5
q-2 24 -5 48l-6 48zM78 230l76 6q-2 18 -2.5 35.5t-1.5 35.5q-19 -5 -37.5 -10t-38.5 -8z" />
    <glyph glyph-name="hyphen" unicode="-" horiz-adv-x="139" 
d="M11 243q0 4 14.5 6.5t32.5 4t35 1.5h23l6 -8q-1 -4 -15 -6.5t-31.5 -3.5t-34 -1h-22.5z" />
    <glyph glyph-name="quotesingle" unicode="'" horiz-adv-x="78" 
d="M33 436l7 -9v-108l-7 -7l-7 7v108z" />
    <glyph glyph-name="equal" unicode="=" horiz-adv-x="202" 
d="M11 323l7 7q42 1 82 3t82 3l6 -8l-6 -8q-41 0 -81.5 -1.5t-81.5 -2.5zM11 279l7 7q42 1 82 3t82 3l6 -8l-6 -12h-163z" />
    <glyph glyph-name="less" unicode="&#x3c;" horiz-adv-x="165" 
d="M142 336l7 -8q-9 -29 -25 -55.5t-34 -52t-35.5 -52t-29.5 -54.5q7 -12 29 -18.5t46 -10t43 -7t20 -10.5l-9 -7q-8 1 -31.5 5t-48.5 10.5t-44.5 15.5t-19.5 21q0 10 19 39.5t42.5 63.5t43 65.5t20.5 46.5z" />
    <glyph glyph-name="greater" unicode="&#x3e;" horiz-adv-x="178" 
d="M9 312l7 7q14 -1 39.5 -22t50 -49.5t43 -56.5t18.5 -42q0 -17 -19 -25t-41.5 -15t-42.5 -18.5t-21 -35.5l-8 -7l-6 8q0 20 14 34t34.5 24t42 16.5t36.5 11.5q0 18 -17 42.5t-40 48.5t-47 44t-39 29z" />
    <glyph glyph-name="backslash" unicode="\" horiz-adv-x="206" 
d="M12 480l54 -130t52 -130.5t47 -132t38 -135.5l-6 -8l-8 6q-28 119 -72 231.5t-91 224.5q-1 2 -5.5 12.5t-9.5 22.5t-9 21.5t-4 10.5q0 7 6 9l8 -2v0z" />
    <glyph glyph-name="bar" unicode="|" horiz-adv-x="78" 
d="M33 494q0 -80 -1.5 -160.5t-1.5 -161.5q0 -88 3 -174.5t14 -172.5l-7 -7q-7 1 -11 24t-6.5 59.5t-3.5 83t-1 94v92v78.5l-1 140v27q0 12 0.5 25.5t1 26t2 21.5t4.5 12l6 -2l2 -5v0z" />
    <glyph glyph-name="asciitilde" unicode="~" horiz-adv-x="209" 
d="M65 333q-8 0 -13.5 -9t-11 -20t-10.5 -20.5t-11 -9.5l-7 8l2 6q6 4 11.5 15t11.5 22.5t13 20.5t15 9q7 0 15.5 -13.5t18 -29t19.5 -29t20 -13.5q9 0 17 9t14.5 19.5t12 19.5t9.5 10l7 -9q-4 -7 -11 -18.5t-15 -22t-17.5 -18t-19.5 -7.5q-13 0 -22 10t-16.5 23.5l-15 27
t-16.5 19.5z" />
    <glyph glyph-name="semicolon" unicode=";" horiz-adv-x="86" 
d="M25 35l7 6q7 0 11 -5.5t6 -13t3 -15t1 -12.5q0 -3 -1 -15t-3 -24.5t-5 -22.5t-8 -10l-7 8q0 16 5 31.5t5 32.5q0 8 -1 18.5t-9 15.5zM36 291l-7 -8h-3q-5 3 -5 10q0 3 1.5 6t2.5 4l10 -7z" />
    <glyph glyph-name="colon" unicode=":" horiz-adv-x="55" 
d="M36 21l-7 -8h-3q-5 3 -5 10q0 8 7 10l7 -7zM36 291l-7 -8h-3q-5 3 -5 10q0 3 3 6t12 4l-1 -7z" />
    <glyph glyph-name="asterisk" unicode="*" horiz-adv-x="300" 
d="M42 328q17 0 32 -8.5t28.5 -21t25.5 -26.5t23 -25q6 13 18 33t27 38.5t32 31.5t34 13q9 0 13.5 -9t4.5 -17q0 -18 -12.5 -49.5t-30 -66t-35 -66t-26.5 -49.5l4 -5l-8 -7q-6 0 -10.5 -12t-7.5 -27t-4.5 -29.5t-1.5 -20.5l-7 -7q-5 1 -6.5 5.5t-1.5 9.5q0 24 7 46t17 44
q-21 17 -47.5 36.5t-49 43t-38 50t-15.5 57.5q0 17 9 27.5t26 10.5zM166 231l-15 -14l-7 12l1 4q-10 9 -22 22.5t-25 26.5t-27 22t-28 9q-11 0 -16 -7t-5 -17q0 -30 14.5 -54.5t35.5 -46t46 -39.5t46 -34q8 16 25 47t34 64.5t29.5 63.5t12.5 46l-6 11q-12 0 -27 -13.5
t-28.5 -31.5t-25 -36.5t-15.5 -28.5z" />
    <glyph glyph-name="grave" unicode="`" horiz-adv-x="102" 
d="M13 457l7 7q6 0 16.5 -11t22 -25.5t20 -28t9.5 -18.5l-7 -8q-3 1 -12.5 12t-20 24.5t-20.5 26t-15 17.5v4z" />
    <glyph glyph-name="asciicircum" unicode="^" horiz-adv-x="163" 
d="M74 472q-3 -6 -10.5 -20.5t-16.5 -30.5t-17.5 -28.5t-12.5 -15.5l-7 8v-1q3 7 11.5 24t18 35t19.5 32t16 15q6 -3 15.5 -18.5t19.5 -34.5t20.5 -37t19.5 -27l1 -4l-8 -7q-8 0 -18 14.5t-20 33.5t-18 36.5t-13 25.5z" />
    <glyph glyph-name="underscore" unicode="_" horiz-adv-x="237" 
d="M11 10l7 7q51 0 100 1.5t100 3.5l6 -8l-5 -12h-200z" />
    <glyph glyph-name="fraction" unicode="&#x2044;" horiz-adv-x="215" 
d="M195 482l7 -6v-3q-27 -64 -54 -128.5t-52 -129.5t-46.5 -131t-37.5 -134l-8 -6l-7 8q32 137 85 267.5t107 260.5z" />
    <glyph glyph-name="T" unicode="T" horiz-adv-x="380" 
d="M184 511q5 -3 6.5 -15t1.5 -25v-22q43 11 86.5 17t88.5 8l7 -7l-6 -7q-45 -3 -88 -9.5t-87 -16.5q2 -102 10 -202.5t24 -200.5l-7 -9l-7 7q-15 100 -23.5 200t-11.5 202q-14 -4 -38 -12t-49 -16t-47 -15t-31 -8l-8 7q1 10 24 19.5t53 17.5t57.5 14t37.5 8l-1 58z" />
    <glyph glyph-name="quotedblleft" unicode="&#x201c;" horiz-adv-x="122" 
d="M77 436l8 -9l21 -108l-7 -7l-7 7l-22 108zM18 438l7 -7q0 -29 11.5 -54.5t22.5 -51.5l-6 -11q-6 1 -13.5 16.5t-14 36t-10.5 39t-4 25.5z" />
    <glyph glyph-name="quotedblright" unicode="&#x201d;" horiz-adv-x="118" 
d="M48 427l-23 -108l-7 -7l-7 7l21 108l8 9zM106 431q0 -7 -4 -25.5t-10.5 -39t-14 -36t-13.5 -16.5l-6 7v4q11 26 22.5 51.5t11.5 54.5l7 7z" />
    <glyph glyph-name="quoteright" unicode="&#x2019;" horiz-adv-x="80" 
d="M63 431q0 -7 -4 -25.5t-10.5 -39t-14 -36t-13.5 -16.5l-8 7q2 14 7.5 27t11.5 26t11 27t5 30l8 7z" />
    <glyph glyph-name="quoteleft" unicode="&#x2018;" horiz-adv-x="73" 
d="M18 438l7 -7q0 -29 11.5 -54.5t22.5 -51.5l-6 -11q-6 1 -13.5 16.5t-14 36t-10.5 39t-4 25.5z" />
    <glyph glyph-name="agrave" unicode="&#xe0;" 
d="M7 148q0 19 4.5 54t15.5 68.5t28.5 58.5t44.5 25q17 0 29.5 -11t21.5 -23q0 5 1.5 9t6.5 6l7 -7v-35t1 -60t3.5 -71.5t8 -68.5t14.5 -51.5t23 -20.5l18 8l6 -8q-2 -6 -10.5 -11.5t-14.5 -5.5q-18 0 -29 23t-17.5 53t-9.5 59.5t-4 43.5q-3 -17 -11.5 -45t-21.5 -56
t-30.5 -48t-39.5 -20q-15 0 -24 17.5t-13.5 40t-6 45t-1.5 31.5zM56 33q14 0 26.5 14t23.5 36t19 49t14 52.5t9 46.5t3 32v41q-6 0 -10.5 5.5t-9.5 12t-11.5 12t-16.5 5.5q-24 0 -39.5 -24t-24.5 -56t-13 -64t-4 -49q0 -8 0.5 -26.5t3.5 -38t10 -34t20 -14.5zM60 459l7 7
q6 0 16.5 -11t22 -25.5t20 -28t9.5 -18.5l-7 -8q-3 1 -12.5 12t-20 24.5t-20.5 26t-15 17.5v4z" />
    <glyph glyph-name="ae" unicode="&#xe6;" horiz-adv-x="316" 
d="M10 148q0 19 4.5 53.5t15 68.5t28 59t44.5 25q17 0 29.5 -11t22.5 -23q0 2 0.5 4.5t0.5 4.5l6 7l6 -5l2 1l1 -32q5 12 15 21.5t24 9.5q16 0 28 -12t20.5 -29t12.5 -35.5t4 -31.5q0 -14 -3.5 -29t-11.5 -28t-20 -21t-28 -8q-11 0 -21 5.5t-19 12.5q1 -11 5 -26.5t11 -30
t17.5 -24.5t24.5 -10q11 0 21 6t18.5 15t15 19t11.5 19l6 3l8 -9q-5 -9 -13 -21t-18.5 -23.5t-22 -19t-23.5 -7.5q-17 0 -30.5 11t-20.5 26q1 -6 4 -16.5t7.5 -20.5t11 -17.5t15.5 -7.5l17 8l7 -8q-1 -6 -11 -11.5t-16 -5.5q-17 0 -28.5 20.5t-18.5 47.5t-10 54t-3 40
q-5 -15 -14 -40.5t-21.5 -50t-29.5 -43t-36 -18.5q-16 0 -25 17.5t-13.5 40t-5.5 45t-1 31.5zM58 33q17 0 33 24t29 55t21 61t10 43q3 20 3 41v41q-6 0 -11 6.5t-10 14t-11.5 14t-16.5 6.5q-23 0 -38.5 -24t-24.5 -56t-13 -64.5t-4 -48.5q0 -8 0.5 -26.5t3.5 -37.5t10 -34
t19 -15zM207 315q-13 0 -20.5 -15t-11.5 -35t-5 -40t-1 -29v-12.5t1 -12.5q9 -6 19.5 -12.5t21.5 -6.5q14 0 23.5 7t15 17.5t8 23.5t2.5 24q0 10 -3.5 25.5t-10 30t-16.5 25t-23 10.5z" />
    <glyph glyph-name="acute" unicode="&#xb4;" horiz-adv-x="86" 
d="M3 399l14.5 14.5l21.5 21.5t21 19.5t14 9.5l6 -6q0 -4 -9.5 -15t-21.5 -22.5t-23.5 -20.5t-15.5 -9l-7 8v0z" />
    <glyph glyph-name="aacute" unicode="&#xe1;" 
d="M7 148q0 19 4.5 54t15.5 68.5t28.5 58.5t44.5 25q17 0 29.5 -11t21.5 -23q0 5 1.5 9t6.5 6l7 -7v-35t1 -60t3.5 -71.5t8 -68.5t14.5 -51.5t23 -20.5l18 8l6 -8q-2 -6 -10.5 -11.5t-14.5 -5.5q-18 0 -29 23t-17.5 53t-9.5 59.5t-4 43.5q-3 -17 -11.5 -45t-21.5 -56
t-30.5 -48t-39.5 -20q-15 0 -24 17.5t-13.5 40t-6 45t-1.5 31.5zM56 33q14 0 26.5 14t23.5 36t19 49t14 52.5t9 46.5t3 32v41q-6 0 -10.5 5.5t-9.5 12t-11.5 12t-16.5 5.5q-24 0 -39.5 -24t-24.5 -56t-13 -64t-4 -49q0 -8 0.5 -26.5t3.5 -38t10 -34t20 -14.5zM70 399
l14.5 14.5l21.5 21.5t21 19.5t14 9.5l6 -6q0 -4 -9.5 -15t-21.5 -22.5t-23.5 -20.5t-15.5 -9l-7 8v0z" />
    <glyph glyph-name="circumflex" unicode="&#x2c6;" horiz-adv-x="93" 
d="M48 452q-6 -5 -10 -14t-8 -19.5t-8 -19.5t-10 -13l-8 10q3 6 7.5 18t10 24t12 21t14.5 9q3 0 8 -10t10 -23t10 -25.5t8 -16.5l-7 -11q-5 0 -9.5 9t-8.5 21t-6.5 23.5t-4.5 16.5z" />
    <glyph glyph-name="acircumflex" unicode="&#xe2;" 
d="M7 148q0 19 4.5 54t15.5 68.5t28.5 58.5t44.5 25q17 0 29.5 -11t21.5 -23q0 5 1.5 9t6.5 6l7 -7v-35t1 -60t3.5 -71.5t8 -68.5t14.5 -51.5t23 -20.5l18 8l6 -8q-2 -6 -10.5 -11.5t-14.5 -5.5q-18 0 -29 23t-17.5 53t-9.5 59.5t-4 43.5q-3 -17 -11.5 -45t-21.5 -56
t-30.5 -48t-39.5 -20q-15 0 -24 17.5t-13.5 40t-6 45t-1.5 31.5zM56 33q14 0 26.5 14t23.5 36t19 49t14 52.5t9 46.5t3 32v41q-6 0 -10.5 5.5t-9.5 12t-11.5 12t-16.5 5.5q-24 0 -39.5 -24t-24.5 -56t-13 -64t-4 -49q0 -8 0.5 -26.5t3.5 -38t10 -34t20 -14.5zM104 452
q-6 -5 -10 -14t-8 -19.5t-8 -19.5t-10 -13l-8 10q3 6 7.5 18t10 24t12 21t14.5 9q3 0 8 -10t10 -23t10 -25.5t8 -16.5l-7 -11q-5 0 -9.5 9t-8.5 21t-6.5 23.5t-4.5 16.5z" />
    <glyph glyph-name="tilde" unicode="&#x2dc;" horiz-adv-x="123" 
d="M13 391l-7 8q1 6 4.5 16t9 19.5t12 17t13.5 7.5q6 0 11.5 -7.5t10 -17.5t8 -20t5.5 -14h1q7 11 12.5 21.5t10.5 21.5l8 -7q-1 -7 -3 -16t-6.5 -16.5t-11 -13t-15.5 -5.5l-6 4q-8 13 -12 27.5t-14 26.5q-4 -1 -8 -7t-7 -13.5t-5.5 -14.5t-2.5 -11z" />
    <glyph glyph-name="atilde" unicode="&#xe3;" 
d="M7 148q0 19 4.5 54t15.5 68.5t28.5 58.5t44.5 25q17 0 29.5 -11t21.5 -23q0 5 1.5 9t6.5 6l7 -7v-35t1 -60t3.5 -71.5t8 -68.5t14.5 -51.5t23 -20.5l18 8l6 -8q-2 -6 -10.5 -11.5t-14.5 -5.5q-18 0 -29 23t-17.5 53t-9.5 59.5t-4 43.5q-3 -17 -11.5 -45t-21.5 -56
t-30.5 -48t-39.5 -20q-15 0 -24 17.5t-13.5 40t-6 45t-1.5 31.5zM56 33q14 0 26.5 14t23.5 36t19 49t14 52.5t9 46.5t3 32v41q-6 0 -10.5 5.5t-9.5 12t-11.5 12t-16.5 5.5q-24 0 -39.5 -24t-24.5 -56t-13 -64t-4 -49q0 -8 0.5 -26.5t3.5 -38t10 -34t20 -14.5zM62 391l-7 8
q1 6 4.5 16t9 19.5t12 17t13.5 7.5q6 0 11.5 -7.5t10 -17.5t8 -20t5.5 -14h1q7 11 12.5 21.5t10.5 21.5l8 -7q-1 -7 -3 -16t-6.5 -16.5t-11 -13t-15.5 -5.5l-6 4q-8 13 -12 27.5t-14 26.5q-4 -1 -8 -7t-7 -13.5t-5.5 -14.5t-2.5 -11z" />
    <glyph glyph-name="dieresis" unicode="&#xa8;" horiz-adv-x="96" 
d="M22 400q-5 5 -7 15l7 5q6 0 11.5 -2.5t5.5 -10.5q0 -4 -3.5 -6t-6.5 -3zM82 412q-2 -4 -6 -8t-9 -4l-7 9q0 10 11 12z" />
    <glyph glyph-name="adieresis" unicode="&#xe4;" 
d="M7 148q0 19 4.5 54t15.5 68.5t28.5 58.5t44.5 25q17 0 29.5 -11t21.5 -23q0 5 1.5 9t6.5 6l7 -7v-35t1 -60t3.5 -71.5t8 -68.5t14.5 -51.5t23 -20.5l18 8l6 -8q-2 -6 -10.5 -11.5t-14.5 -5.5q-18 0 -29 23t-17.5 53t-9.5 59.5t-4 43.5q-3 -17 -11.5 -45t-21.5 -56
t-30.5 -48t-39.5 -20q-15 0 -24 17.5t-13.5 40t-6 45t-1.5 31.5zM56 33q14 0 26.5 14t23.5 36t19 49t14 52.5t9 46.5t3 32v41q-6 0 -10.5 5.5t-9.5 12t-11.5 12t-16.5 5.5q-24 0 -39.5 -24t-24.5 -56t-13 -64t-4 -49q0 -8 0.5 -26.5t3.5 -38t10 -34t20 -14.5zM91 400
q-5 5 -7 15l7 5q6 0 11.5 -2.5t5.5 -10.5q0 -4 -3.5 -6t-6.5 -3zM151 412q-2 -4 -6 -8t-9 -4l-7 9q0 10 11 12z" />
    <glyph glyph-name="ring" unicode="&#x2da;" horiz-adv-x="85" 
d="M32 447q14 0 29 -6t15 -23q0 -19 -18 -27.5t-33 -8.5q-11 0 -16.5 8t-5.5 19q0 13 7 25.5t22 12.5zM27 395q10 0 23.5 6t13.5 18q0 11 -11.5 13.5t-19.5 2.5t-12 -10t-4 -16q0 -5 3.5 -8.5t6.5 -5.5z" />
    <glyph glyph-name="aring" unicode="&#xe5;" 
d="M7 148q0 19 4.5 54t15.5 68.5t28.5 58.5t44.5 25q17 0 29.5 -11t21.5 -23q0 5 1.5 9t6.5 6l7 -7v-35t1 -60t3.5 -71.5t8 -68.5t14.5 -51.5t23 -20.5l18 8l6 -8q-2 -6 -10.5 -11.5t-14.5 -5.5q-18 0 -29 23t-17.5 53t-9.5 59.5t-4 43.5q-3 -17 -11.5 -45t-21.5 -56
t-30.5 -48t-39.5 -20q-15 0 -24 17.5t-13.5 40t-6 45t-1.5 31.5zM56 33q14 0 26.5 14t23.5 36t19 49t14 52.5t9 46.5t3 32v41q-6 0 -10.5 5.5t-9.5 12t-11.5 12t-16.5 5.5q-24 0 -39.5 -24t-24.5 -56t-13 -64t-4 -49q0 -8 0.5 -26.5t3.5 -38t10 -34t20 -14.5zM97 447
q14 0 29 -6t15 -23q0 -19 -18 -27.5t-33 -8.5q-11 0 -16.5 8t-5.5 19q0 13 7 25.5t22 12.5zM92 395q10 0 23.5 6t13.5 18q0 11 -11.5 13.5t-19.5 2.5t-12 -10t-4 -16q0 -5 3.5 -8.5t6.5 -5.5z" />
    <glyph glyph-name="ccedilla" unicode="&#xe7;" horiz-adv-x="190" 
d="M74 17l7 -7q0 -24 5 -36.5t11 -19.5t11 -12t5 -14q0 -12 -14.5 -23t-23.5 -17l-8 8q0 3 5 5.5t10.5 5.5t10.5 7.5t5 12.5q0 7 -5 11.5t-11.5 9t-11.5 12t-5 22.5q0 7 0.5 14t1.5 14zM120 294l-8 7q0 6 -0.5 16t-3 20t-8 17t-14.5 7q-21 0 -33.5 -26t-19 -60t-9 -66.5
t-2.5 -45.5q0 -11 1.5 -34.5t6.5 -47.5t14 -42.5t25 -18.5t32.5 17.5t30.5 39t24.5 39.5t16.5 19l7 -6q0 -9 -12 -29.5t-28.5 -41.5t-34 -37t-29.5 -16q-24 0 -38 16.5t-20.5 39.5t-8.5 48t-2 42q0 11 1 32t3.5 46.5t7.5 51.5t14 47.5t22 35t32 13.5q13 0 21 -8.5t12 -20.5
t5.5 -25t1.5 -22z" />
    <glyph glyph-name="cedilla" unicode="&#xb8;" horiz-adv-x="73" 
d="M22 17l8 -7q0 -6 -0.5 -13t-0.5 -14q0 -12 5 -18.5t11.5 -12t11.5 -10.5t5 -14q0 -13 -15 -24t-24 -16l-7 8q0 3 5 5.5t10.5 5.5t10.5 7.5t5 12.5q0 7 -5.5 11.5t-11.5 9t-11.5 12t-5.5 22.5q0 7 0.5 14t1.5 14z" />
    <glyph glyph-name="egrave" unicode="&#xe8;" horiz-adv-x="184" 
d="M2 184l6 6q0 15 0.5 41t5.5 51.5t16 44.5t31 19q14 0 26 -11t21 -26.5t14 -32.5t5 -29q0 -13 -4.5 -29.5t-12.5 -31.5t-20 -25t-28 -10q-11 0 -21.5 5.5t-16.5 13.5q2 -13 7.5 -38t15 -49.5t23 -42.5t31.5 -18q10 0 19 6.5t16.5 16.5t13 20.5t9.5 18.5l7 2l8 -6
q-2 -10 -9.5 -22.5t-17.5 -23.5t-22 -18.5t-23 -7.5q-24 0 -41 19t-28 46t-16.5 55.5t-6.5 46.5l-3 1zM59 328q-13 0 -20.5 -15t-11 -34.5t-4.5 -39t-1 -28.5q0 -20 8 -33t30 -13q15 0 24.5 8.5t15.5 21t8 26.5t2 26q0 10 -3 24t-9 27t-16 21.5t-23 8.5zM25 457l7 7
q6 0 16.5 -11t22 -25.5t20 -28t9.5 -18.5l-7 -8q-3 1 -12.5 12t-20 24.5t-20.5 26t-15 17.5v4z" />
    <glyph glyph-name="eacute" unicode="&#xe9;" horiz-adv-x="184" 
d="M2 184l6 6q0 15 0.5 41t5.5 51.5t16 44.5t31 19q14 0 26 -11t21 -26.5t14 -32.5t5 -29q0 -13 -4.5 -29.5t-12.5 -31.5t-20 -25t-28 -10q-11 0 -21.5 5.5t-16.5 13.5q2 -13 7.5 -38t15 -49.5t23 -42.5t31.5 -18q10 0 19 6.5t16.5 16.5t13 20.5t9.5 18.5l7 2l8 -6
q-2 -10 -9.5 -22.5t-17.5 -23.5t-22 -18.5t-23 -7.5q-24 0 -41 19t-28 46t-16.5 55.5t-6.5 46.5l-3 1zM59 328q-13 0 -20.5 -15t-11 -34.5t-4.5 -39t-1 -28.5q0 -20 8 -33t30 -13q15 0 24.5 8.5t15.5 21t8 26.5t2 26q0 10 -3 24t-9 27t-16 21.5t-23 8.5zM23 399l14.5 14.5
l21.5 21.5t21 19.5t14 9.5l6 -6q0 -4 -9.5 -15t-21.5 -22.5t-23.5 -20.5t-15.5 -9l-7 8v0z" />
    <glyph glyph-name="ecircumflex" unicode="&#xea;" horiz-adv-x="184" 
d="M2 184l6 6q0 15 0.5 41t5.5 51.5t16 44.5t31 19q14 0 26 -11t21 -26.5t14 -32.5t5 -29q0 -13 -4.5 -29.5t-12.5 -31.5t-20 -25t-28 -10q-11 0 -21.5 5.5t-16.5 13.5q2 -13 7.5 -38t15 -49.5t23 -42.5t31.5 -18q10 0 19 6.5t16.5 16.5t13 20.5t9.5 18.5l7 2l8 -6
q-2 -10 -9.5 -22.5t-17.5 -23.5t-22 -18.5t-23 -7.5q-24 0 -41 19t-28 46t-16.5 55.5t-6.5 46.5l-3 1zM59 328q-13 0 -20.5 -15t-11 -34.5t-4.5 -39t-1 -28.5q0 -20 8 -33t30 -13q15 0 24.5 8.5t15.5 21t8 26.5t2 26q0 10 -3 24t-9 27t-16 21.5t-23 8.5zM64 452
q-6 -5 -10 -14t-8 -19.5t-8 -19.5t-10 -13l-8 10q3 6 7.5 18t10 24t12 21t14.5 9q3 0 8 -10t10 -23t10 -25.5t8 -16.5l-7 -11q-5 0 -9.5 9t-8.5 21t-6.5 23.5t-4.5 16.5z" />
    <glyph glyph-name="edieresis" unicode="&#xeb;" horiz-adv-x="184" 
d="M2 184l6 6q0 15 0.5 41t5.5 51.5t16 44.5t31 19q14 0 26 -11t21 -26.5t14 -32.5t5 -29q0 -13 -4.5 -29.5t-12.5 -31.5t-20 -25t-28 -10q-11 0 -21.5 5.5t-16.5 13.5q2 -13 7.5 -38t15 -49.5t23 -42.5t31.5 -18q10 0 19 6.5t16.5 16.5t13 20.5t9.5 18.5l7 2l8 -6
q-2 -10 -9.5 -22.5t-17.5 -23.5t-22 -18.5t-23 -7.5q-24 0 -41 19t-28 46t-16.5 55.5t-6.5 46.5l-3 1zM59 328q-13 0 -20.5 -15t-11 -34.5t-4.5 -39t-1 -28.5q0 -20 8 -33t30 -13q15 0 24.5 8.5t15.5 21t8 26.5t2 26q0 10 -3 24t-9 27t-16 21.5t-23 8.5zM32 400q-5 5 -7 15
l7 5q6 0 11.5 -2.5t5.5 -10.5q0 -4 -3.5 -6t-6.5 -3zM92 412q-2 -4 -6 -8t-9 -4l-7 9q0 10 11 12z" />
    <glyph glyph-name="hungarumlaut" unicode="&#x2dd;" horiz-adv-x="148" 
d="M86 460q-5 -5 -15 -17.5t-20.5 -26t-19.5 -24.5t-13 -11l-6 7q1 6 9 18t18.5 25t21 24t15.5 16l4 1l7 -8zM130 460q-5 -5 -15 -17.5t-20.5 -26t-20 -24t-12.5 -11.5l-6 10q14 22 29.5 42.5t34.5 37.5l4 1l7 -8z" />
    <glyph glyph-name="breve" unicode="&#x2d8;" horiz-adv-x="94" 
d="M10 443l6 -6l-2 -5q1 -4 2.5 -12t4.5 -15.5t8 -13t11 -5.5q9 0 15.5 9t11.5 19.5t8.5 19.5t6.5 9l7 -7q-1 -9 -5 -20t-10 -20.5t-14.5 -16t-19.5 -6.5q-10 0 -17.5 7t-12 17t-6.5 20.5t-2 18.5q0 2 3 5z" />
    <glyph glyph-name="ogonek" unicode="&#x2db;" horiz-adv-x="58" 
d="M42 58l6 -6q-8 -15 -16 -35.5t-8 -37.5q0 -8 9 -13l7 1l8 -8q-4 -9 -12 -9q-12 0 -20 6t-8 19q0 7 3 18t7.5 23t9.5 22.5t8 17.5z" />
    <glyph glyph-name="caron" unicode="&#x2c7;" horiz-adv-x="67" 
d="M12 441q4 0 6 -5.5t3.5 -11.5t3 -11t4.5 -5q1 3 3.5 13.5t5.5 21.5t6.5 19.5t6.5 8.5l7 -8q-1 -4 -4 -16.5t-7 -25.5t-9 -23t-9 -10q-3 0 -7 6t-7.5 14.5t-6 16l-3.5 10.5z" />
    <glyph glyph-name="dotaccent" unicode="&#x2d9;" horiz-adv-x="56" 
d="M22 400q-5 5 -7 15l7 5q6 0 11.5 -2.5t5.5 -10.5q0 -4 -3.5 -6t-6.5 -3l-7 2v0z" />
    <glyph glyph-name="abreve" unicode="&#x103;" 
d="M7 148q0 19 4.5 54t15.5 68.5t28.5 58.5t44.5 25q17 0 29.5 -11t21.5 -23q0 5 1.5 9t6.5 6l7 -7v-35t1 -60t3.5 -71.5t8 -68.5t14.5 -51.5t23 -20.5l18 8l6 -8q-2 -6 -10.5 -11.5t-14.5 -5.5q-18 0 -29 23t-17.5 53t-9.5 59.5t-4 43.5q-3 -17 -11.5 -45t-21.5 -56
t-30.5 -48t-39.5 -20q-15 0 -24 17.5t-13.5 40t-6 45t-1.5 31.5zM56 33q14 0 26.5 14t23.5 36t19 49t14 52.5t9 46.5t3 32v41q-6 0 -10.5 5.5t-9.5 12t-11.5 12t-16.5 5.5q-24 0 -39.5 -24t-24.5 -56t-13 -64t-4 -49q0 -8 0.5 -26.5t3.5 -38t10 -34t20 -14.5zM74 443l6 -6
l-2 -5q1 -4 2.5 -12t4.5 -15.5t8 -13t11 -5.5q9 0 15.5 9t11.5 19.5t8.5 19.5t6.5 9l7 -7q-1 -9 -5 -20t-10 -20.5t-14.5 -16t-19.5 -6.5q-10 0 -17.5 7t-12 17t-6.5 20.5t-2 18.5q0 2 3 5z" />
    <glyph glyph-name="aogonek" unicode="&#x105;" horiz-adv-x="248" 
d="M7 148q0 19 4.5 54t15.5 68.5t28.5 58.5t44.5 25q17 0 29.5 -11t21.5 -23q0 5 1.5 9t6.5 6l7 -7v-35t1 -60t3.5 -71.5t8 -68.5t14.5 -51.5t23 -20.5l18 8l6 -8q-2 -6 -10.5 -11.5t-14.5 -5.5q-18 0 -29 23t-17.5 53t-9.5 59.5t-4 43.5q-3 -17 -11.5 -45t-21.5 -56
t-30.5 -48t-39.5 -20q-15 0 -24 17.5t-13.5 40t-6 45t-1.5 31.5zM56 33q14 0 26.5 14t23.5 36t19 49t14 52.5t9 46.5t3 32v41q-6 0 -10.5 5.5t-9.5 12t-11.5 12t-16.5 5.5q-24 0 -39.5 -24t-24.5 -56t-13 -64t-4 -49q0 -8 0.5 -26.5t3.5 -38t10 -34t20 -14.5zM235 26l6 -6
q-8 -15 -16 -35.5t-8 -37.5q0 -8 9 -13l7 1l8 -8q-4 -9 -12 -9q-12 0 -20 6t-8 19q0 7 3 18t7.5 23t9.5 22.5t8 17.5z" />
    <glyph glyph-name="amacron" unicode="&#x101;" 
d="M52 398q0 5 12.5 8.5t27.5 6t29 3.5t18 1t11 -1t7 -7l-6 -7q-23 0 -46.5 -5.5t-46.5 -5.5zM7 148q0 19 4.5 54t15.5 68.5t28.5 58.5t44.5 25q17 0 29.5 -11t21.5 -23q0 5 1.5 9t6.5 6l7 -7v-35t1 -60t3.5 -71.5t8 -68.5t14.5 -51.5t23 -20.5l18 8l6 -8q-2 -6 -10.5 -11.5
t-14.5 -5.5q-18 0 -29 23t-17.5 53t-9.5 59.5t-4 43.5q-3 -17 -11.5 -45t-21.5 -56t-30.5 -48t-39.5 -20q-15 0 -24 17.5t-13.5 40t-6 45t-1.5 31.5zM56 33q14 0 26.5 14t23.5 36t19 49t14 52.5t9 46.5t3 32v41q-6 0 -10.5 5.5t-9.5 12t-11.5 12t-16.5 5.5q-24 0 -39.5 -24
t-24.5 -56t-13 -64t-4 -49q0 -8 0.5 -26.5t3.5 -38t10 -34t20 -14.5z" />
    <glyph glyph-name="macron" unicode="&#xaf;" horiz-adv-x="115" 
d="M3 398q0 5 12.5 8.5t27.5 6t29 3.5t18 1t10.5 -1t6.5 -7l-5 -7q-23 0 -46.5 -5.5t-46.5 -5.5z" />
    <glyph glyph-name="aeacute" unicode="&#x1fd;" horiz-adv-x="316" 
d="M10 148q0 19 4.5 53.5t15 68.5t28 59t44.5 25q17 0 29.5 -11t22.5 -23q0 2 0.5 4.5t0.5 4.5l6 7l6 -5l2 1l1 -32q5 12 15 21.5t24 9.5q16 0 28 -12t20.5 -29t12.5 -35.5t4 -31.5q0 -14 -3.5 -29t-11.5 -28t-20 -21t-28 -8q-11 0 -21 5.5t-19 12.5q1 -11 5 -26.5t11 -30
t17.5 -24.5t24.5 -10q11 0 21 6t18.5 15t15 19t11.5 19l6 3l8 -9q-5 -9 -13 -21t-18.5 -23.5t-22 -19t-23.5 -7.5q-17 0 -30.5 11t-20.5 26q1 -6 4 -16.5t7.5 -20.5t11 -17.5t15.5 -7.5l17 8l7 -8q-1 -6 -11 -11.5t-16 -5.5q-17 0 -28.5 20.5t-18.5 47.5t-10 54t-3 40
q-5 -15 -14 -40.5t-21.5 -50t-29.5 -43t-36 -18.5q-16 0 -25 17.5t-13.5 40t-5.5 45t-1 31.5zM58 33q17 0 33 24t29 55t21 61t10 43q3 20 3 41v41q-6 0 -11 6.5t-10 14t-11.5 14t-16.5 6.5q-23 0 -38.5 -24t-24.5 -56t-13 -64.5t-4 -48.5q0 -8 0.5 -26.5t3.5 -37.5t10 -34
t19 -15zM207 315q-13 0 -20.5 -15t-11.5 -35t-5 -40t-1 -29v-12.5t1 -12.5q9 -6 19.5 -12.5t21.5 -6.5q14 0 23.5 7t15 17.5t8 23.5t2.5 24q0 10 -3.5 25.5t-10 30t-16.5 25t-23 10.5zM120 399l14.5 14.5l21.5 21.5t21 19.5t14 9.5l6 -6q0 -4 -9.5 -15t-21.5 -22.5
t-23.5 -20.5t-15.5 -9l-7 8v0z" />
    <glyph glyph-name="cacute" unicode="&#x107;" horiz-adv-x="190" 
d="M120 294l-8 7q0 6 -0.5 16t-3 20t-8 17t-14.5 7q-21 0 -33.5 -26t-19 -60t-9 -66.5t-2.5 -45.5q0 -11 1.5 -34.5t6.5 -47.5t14 -42.5t25 -18.5t32.5 17.5t30.5 39t24.5 39.5t16.5 19l7 -6q0 -9 -12 -29.5t-28.5 -41.5t-34 -37t-29.5 -16q-24 0 -38 16.5t-20.5 39.5
t-8.5 48t-2 42q0 11 1 32t3.5 46.5t7.5 51.5t14 47.5t22 35t32 13.5q13 0 21 -8.5t12 -20.5t5.5 -25t1.5 -22zM41 410l14.5 14.5l21.5 21.5t21 19.5t14 9.5l6 -6q0 -4 -9.5 -15t-21.5 -22.5t-23.5 -20.5t-15.5 -9l-7 8v0z" />
    <glyph glyph-name="ccaron" unicode="&#x10d;" horiz-adv-x="190" 
d="M120 294l-8 7q0 6 -0.5 16t-3 20t-8 17t-14.5 7q-21 0 -33.5 -26t-19 -60t-9 -66.5t-2.5 -45.5q0 -11 1.5 -34.5t6.5 -47.5t14 -42.5t25 -18.5t32.5 17.5t30.5 39t24.5 39.5t16.5 19l7 -6q0 -9 -12 -29.5t-28.5 -41.5t-34 -37t-29.5 -16q-24 0 -38 16.5t-20.5 39.5
t-8.5 48t-2 42q0 11 1 32t3.5 46.5t7.5 51.5t14 47.5t22 35t32 13.5q13 0 21 -8.5t12 -20.5t5.5 -25t1.5 -22zM68 452q4 0 6 -5.5t3.5 -11.5t3 -11t4.5 -5q1 3 3.5 13.5t5.5 21.5t6.5 19.5t6.5 8.5l7 -8q-1 -4 -4 -16.5t-7 -25.5t-9 -23t-9 -10q-3 0 -7 6t-7.5 14.5t-6 16
l-3.5 10.5z" />
    <glyph glyph-name="ccircumflex" unicode="&#x109;" horiz-adv-x="190" 
d="M120 294l-8 7q0 6 -0.5 16t-3 20t-8 17t-14.5 7q-21 0 -33.5 -26t-19 -60t-9 -66.5t-2.5 -45.5q0 -11 1.5 -34.5t6.5 -47.5t14 -42.5t25 -18.5t32.5 17.5t30.5 39t24.5 39.5t16.5 19l7 -6q0 -9 -12 -29.5t-28.5 -41.5t-34 -37t-29.5 -16q-24 0 -38 16.5t-20.5 39.5
t-8.5 48t-2 42q0 11 1 32t3.5 46.5t7.5 51.5t14 47.5t22 35t32 13.5q13 0 21 -8.5t12 -20.5t5.5 -25t1.5 -22zM88 464q-6 -5 -10 -14t-8 -19.5t-8 -19.5t-10 -13l-8 10q3 6 7.5 18t10 24t12 21t14.5 9q3 0 8 -10t10 -23t10 -25.5t8 -16.5l-7 -11q-5 0 -9.5 9t-8.5 21
t-6.5 23.5t-4.5 16.5z" />
    <glyph glyph-name="cdotaccent" unicode="&#x10b;" horiz-adv-x="190" 
d="M120 294l-8 7q0 6 -0.5 16t-3 20t-8 17t-14.5 7q-21 0 -33.5 -26t-19 -60t-9 -66.5t-2.5 -45.5q0 -11 1.5 -34.5t6.5 -47.5t14 -42.5t25 -18.5t32.5 17.5t30.5 39t24.5 39.5t16.5 19l7 -6q0 -9 -12 -29.5t-28.5 -41.5t-34 -37t-29.5 -16q-24 0 -38 16.5t-20.5 39.5
t-8.5 48t-2 42q0 11 1 32t3.5 46.5t7.5 51.5t14 47.5t22 35t32 13.5q13 0 21 -8.5t12 -20.5t5.5 -25t1.5 -22zM80 410q-5 5 -7 15l7 5q6 0 11.5 -2.5t5.5 -10.5q0 -4 -3.5 -6t-6.5 -3l-7 2v0z" />
    <glyph glyph-name="dcaron" unicode="&#x10f;" horiz-adv-x="261" 
d="M75 347q22 0 37.5 -16t27.5 -31q-1 5 -1 15v22q0 23 1.5 52.5t5.5 55t11.5 43t19.5 17.5q7 0 11 -9t6.5 -20t3 -22.5t0.5 -15.5q0 -26 -2.5 -56.5t-7.5 -61.5t-11.5 -60.5t-14.5 -54.5q7 -61 20 -122t30 -120l-7 -8l-6 4q-17 52 -29 105t-19 107q-5 -14 -13 -37
t-20 -44.5t-27 -37.5t-33 -16q-17 0 -27 17t-14.5 40.5t-5.5 48.5t-1 40v43t5 55t19 47t41 20zM148 199q-2 17 -3.5 39.5t-8 42.5t-20 33.5t-38.5 13.5q-22 0 -33 -17t-15.5 -40.5t-5 -48t-0.5 -38.5q0 -8 0.5 -29.5t4 -44t10.5 -40.5t20 -18t27.5 19.5t27 44.5t22 49
t12.5 34zM154 346q0 -25 0.5 -51.5t4.5 -51.5q10 47 17.5 93.5t7.5 94.5q0 15 -2 29.5t-7 28.5q-14 -32 -17.5 -70t-3.5 -73zM166 158v8v-8zM249 417q0 -7 -4 -25.5t-10.5 -39t-14 -36t-13.5 -16.5l-8 7q2 14 7.5 27t11.5 26t11 27t5 30l8 7z" />
    <glyph glyph-name="dcroat" unicode="&#x111;" horiz-adv-x="211" 
d="M75 347q22 0 37.5 -16t27.5 -31q-1 5 -1 15v22q0 23 1.5 52.5t5.5 55t11.5 43t19.5 17.5q7 0 11 -9t6.5 -20t3 -22.5t0.5 -15.5q0 -26 -2.5 -56.5t-7.5 -61.5t-11.5 -60.5t-14.5 -54.5q7 -61 20 -122t30 -120l-7 -8l-6 4q-17 52 -29 105t-19 107q-5 -14 -13 -37
t-20 -44.5t-27 -37.5t-33 -16q-17 0 -27 17t-14.5 40.5t-5.5 48.5t-1 40v43t5 55t19 47t41 20zM148 199q-2 17 -3.5 39.5t-8 42.5t-20 33.5t-38.5 13.5q-22 0 -33 -17t-15.5 -40.5t-5 -48t-0.5 -38.5q0 -8 0.5 -29.5t4 -44t10.5 -40.5t20 -18t27.5 19.5t27 44.5t22 49
t12.5 34zM154 346q0 -25 0.5 -51.5t4.5 -51.5q10 47 17.5 93.5t7.5 94.5q0 15 -2 29.5t-7 28.5q-14 -32 -17.5 -70t-3.5 -73zM166 158v8v-8zM111 359q0 4 14.5 6.5t32.5 4t35 1.5h23l6 -8q-1 -4 -15 -6.5t-31.5 -3.5t-34 -1h-22.5z" />
    <glyph glyph-name="ebreve" unicode="&#x115;" horiz-adv-x="184" 
d="M2 184l6 6q0 15 0.5 41t5.5 51.5t16 44.5t31 19q14 0 26 -11t21 -26.5t14 -32.5t5 -29q0 -13 -4.5 -29.5t-12.5 -31.5t-20 -25t-28 -10q-11 0 -21.5 5.5t-16.5 13.5q2 -13 7.5 -38t15 -49.5t23 -42.5t31.5 -18q10 0 19 6.5t16.5 16.5t13 20.5t9.5 18.5l7 2l8 -6
q-2 -10 -9.5 -22.5t-17.5 -23.5t-22 -18.5t-23 -7.5q-24 0 -41 19t-28 46t-16.5 55.5t-6.5 46.5l-3 1zM59 328q-13 0 -20.5 -15t-11 -34.5t-4.5 -39t-1 -28.5q0 -20 8 -33t30 -13q15 0 24.5 8.5t15.5 21t8 26.5t2 26q0 10 -3 24t-9 27t-16 21.5t-23 8.5zM29 445l6 -6l-2 -5
q1 -4 2.5 -12t4.5 -15.5t8 -13t11 -5.5q9 0 15.5 9t11.5 19.5t8.5 19.5t6.5 9l7 -7q-1 -9 -5 -20t-10 -20.5t-14.5 -16t-19.5 -6.5q-10 0 -17.5 7t-12 17t-6.5 20.5t-2 18.5q0 2 3 5z" />
    <glyph glyph-name="ecaron" unicode="&#x11b;" horiz-adv-x="184" 
d="M2 184l6 6q0 15 0.5 41t5.5 51.5t16 44.5t31 19q14 0 26 -11t21 -26.5t14 -32.5t5 -29q0 -13 -4.5 -29.5t-12.5 -31.5t-20 -25t-28 -10q-11 0 -21.5 5.5t-16.5 13.5q2 -13 7.5 -38t15 -49.5t23 -42.5t31.5 -18q10 0 19 6.5t16.5 16.5t13 20.5t9.5 18.5l7 2l8 -6
q-2 -10 -9.5 -22.5t-17.5 -23.5t-22 -18.5t-23 -7.5q-24 0 -41 19t-28 46t-16.5 55.5t-6.5 46.5l-3 1zM59 328q-13 0 -20.5 -15t-11 -34.5t-4.5 -39t-1 -28.5q0 -20 8 -33t30 -13q15 0 24.5 8.5t15.5 21t8 26.5t2 26q0 10 -3 24t-9 27t-16 21.5t-23 8.5zM44 424q4 0 6 -5.5
t3.5 -11.5t3 -11t4.5 -5q1 3 3.5 13.5t5.5 21.5t6.5 19.5t6.5 8.5l7 -8q-1 -4 -4 -16.5t-7 -25.5t-9 -23t-9 -10q-3 0 -7 6t-7.5 14.5t-6 16l-3.5 10.5z" />
    <glyph glyph-name="edotaccent" unicode="&#x117;" horiz-adv-x="184" 
d="M2 184l6 6q0 15 0.5 41t5.5 51.5t16 44.5t31 19q14 0 26 -11t21 -26.5t14 -32.5t5 -29q0 -13 -4.5 -29.5t-12.5 -31.5t-20 -25t-28 -10q-11 0 -21.5 5.5t-16.5 13.5q2 -13 7.5 -38t15 -49.5t23 -42.5t31.5 -18q10 0 19 6.5t16.5 16.5t13 20.5t9.5 18.5l7 2l8 -6
q-2 -10 -9.5 -22.5t-17.5 -23.5t-22 -18.5t-23 -7.5q-24 0 -41 19t-28 46t-16.5 55.5t-6.5 46.5l-3 1zM59 328q-13 0 -20.5 -15t-11 -34.5t-4.5 -39t-1 -28.5q0 -20 8 -33t30 -13q15 0 24.5 8.5t15.5 21t8 26.5t2 26q0 10 -3 24t-9 27t-16 21.5t-23 8.5zM56 383q-5 5 -7 15
l7 5q6 0 11.5 -2.5t5.5 -10.5q0 -4 -3.5 -6t-6.5 -3l-7 2v0z" />
    <glyph glyph-name="emacron" unicode="&#x113;" horiz-adv-x="184" 
d="M2 184l6 6q0 15 0.5 41t5.5 51.5t16 44.5t31 19q14 0 26 -11t21 -26.5t14 -32.5t5 -29q0 -13 -4.5 -29.5t-12.5 -31.5t-20 -25t-28 -10q-11 0 -21.5 5.5t-16.5 13.5q2 -13 7.5 -38t15 -49.5t23 -42.5t31.5 -18q10 0 19 6.5t16.5 16.5t13 20.5t9.5 18.5l7 2l8 -6
q-2 -10 -9.5 -22.5t-17.5 -23.5t-22 -18.5t-23 -7.5q-24 0 -41 19t-28 46t-16.5 55.5t-6.5 46.5l-3 1zM59 328q-13 0 -20.5 -15t-11 -34.5t-4.5 -39t-1 -28.5q0 -20 8 -33t30 -13q15 0 24.5 8.5t15.5 21t8 26.5t2 26q0 10 -3 24t-9 27t-16 21.5t-23 8.5zM9 387q0 5 12.5 8.5
t27.5 6t29 3.5t18 1t10.5 -1t6.5 -7l-5 -7q-23 0 -46.5 -5.5t-46.5 -5.5z" />
    <glyph glyph-name="eogonek" unicode="&#x119;" horiz-adv-x="184" 
d="M2 184l6 6q0 15 0.5 41t5.5 51.5t16 44.5t31 19q14 0 26 -11t21 -26.5t14 -32.5t5 -29q0 -13 -4.5 -29.5t-12.5 -31.5t-20 -25t-28 -10q-11 0 -21.5 5.5t-16.5 13.5q2 -13 7.5 -38t15 -49.5t23 -42.5t31.5 -18q10 0 19 6.5t16.5 16.5t13 20.5t9.5 18.5l7 2l8 -6
q-2 -10 -9.5 -22.5t-17.5 -23.5t-22 -18.5t-23 -7.5q-24 0 -41 19t-28 46t-16.5 55.5t-6.5 46.5l-3 1zM59 328q-13 0 -20.5 -15t-11 -34.5t-4.5 -39t-1 -28.5q0 -20 8 -33t30 -13q15 0 24.5 8.5t15.5 21t8 26.5t2 26q0 10 -3 24t-9 27t-16 21.5t-23 8.5zM167 85l6 -6
q-8 -15 -16 -35.5t-8 -37.5q0 -8 9 -13l7 1l8 -8q-4 -9 -12 -9q-12 0 -20 6t-8 19q0 7 3 18t7.5 23t9.5 22.5t8 17.5z" />
    <glyph glyph-name="ff" unicode="&#xfb00;" horiz-adv-x="351" 
d="M4 178q0 2 5.5 5t13 6.5t14 6.5t9.5 5q1 12 3.5 37.5t7 57t11.5 64.5t17 60.5t23 45t29 17.5q20 0 30 -17.5t10 -34.5q0 -26 -10.5 -60.5t-27.5 -69t-38 -64t-41 -44.5l-6 -127q19 11 41 11q25 0 42.5 -14t27.5 -35t14.5 -45t4.5 -44q0 -14 -4 -45t-12.5 -62.5
t-22.5 -55.5t-33 -24t-31.5 18t-20.5 46t-12 62t-6 65.5t-2 57v36.5q-3 -3 -6 -8t-7 -10t-7.5 -9t-6.5 -5l-7 8q1 11 13.5 23.5l20.5 20.5q0 32 1 62.5t3 62.5q-7 -4 -14.5 -8t-15.5 -4l-5 1zM166 -56q0 17 -2.5 37.5t-10 38.5t-21.5 30.5t-36 12.5t-42 -15q0 -10 0.5 -34.5
t2 -55t4.5 -64t9.5 -61t16 -45t23.5 -17.5q16 0 27 23t17.5 52.5t9 58t2.5 39.5zM145 468q-15 0 -27 -15.5t-20.5 -40t-14.5 -54t-10 -57.5t-6.5 -51.5t-3.5 -35.5q19 18 37 45t32 57t22.5 61t8.5 58q0 9 -3 21t-15 12zM155 178q0 2 5.5 5t13 6.5t14 6.5t9.5 5
q1 12 3.5 37.5t7 57t11.5 64.5t17 60.5t23 45t29 17.5q20 0 30 -17.5t10 -34.5q0 -26 -10.5 -60.5t-27.5 -69t-38 -64t-41 -44.5l-6 -127q19 11 41 11q25 0 42.5 -14t27.5 -35t14.5 -45t4.5 -44q0 -14 -4 -45t-12.5 -62.5t-22.5 -55.5t-33 -24t-31.5 18t-20.5 46t-12 62
t-6 65.5t-2 57v36.5q-3 -3 -6 -8t-7 -10t-7.5 -9t-6.5 -5l-7 8q1 11 13.5 23.5l20.5 20.5q0 32 1 62.5t3 62.5q-7 -4 -14.5 -8t-15.5 -4l-5 1zM317 -56q0 17 -2.5 37.5t-10 38.5t-21.5 30.5t-36 12.5t-42 -15q0 -10 0.5 -34.5t2 -55t4.5 -64t9.5 -61t16 -45t23.5 -17.5
q16 0 27 23t17.5 52.5t9 58t2.5 39.5zM296 468q-15 0 -27 -15.5t-20.5 -40t-14.5 -54t-10 -57.5t-6.5 -51.5t-3.5 -35.5q19 18 37 45t32 57t22.5 61t8.5 58q0 9 -3 21t-15 12z" />
    <glyph glyph-name="gbreve" unicode="&#x11f;" horiz-adv-x="219" 
d="M148 320l-6 -8q-5 1 -17.5 10.5t-31.5 9.5q-23 0 -37 -24t-22.5 -56t-11.5 -63.5t-3 -47.5q0 -11 1 -29.5t5.5 -37.5t13.5 -32.5t25 -13.5q14 0 25 14t19 35.5t13 48t8.5 51t5.5 44.5l3 30l7 7l7 -8q4 -52 15.5 -102t22.5 -101l19 3l7 -7q-2 -7 -10 -8.5t-13 -2.5
q10 -36 16 -75t6 -77q0 -17 -5 -45t-15 -55t-26.5 -47t-38.5 -20q-17 0 -28.5 13.5t-18 32t-9.5 38t-3 31.5q0 27 6.5 59.5t19.5 62.5t33 54.5t48 36.5q-8 36 -17.5 71.5t-16.5 71.5q-3 -17 -6.5 -46t-11.5 -57.5t-22 -49.5t-37 -21q-22 0 -34.5 16t-19 38t-8 45.5
t-1.5 39.5q0 21 3 54t12 64.5t26.5 54t47.5 22.5q14 0 28 -5t26 -13zM136 -274q17 0 29 20.5t20 47.5t12 53.5t4 39.5q0 36 -5.5 71t-13.5 70q-25 -12 -43 -35.5t-30 -52t-17.5 -59.5t-5.5 -56q0 -10 3 -26.5t9 -32.5t15.5 -28t22.5 -12zM58 443l6 -6l-2 -5q1 -4 2.5 -12
t4.5 -15.5t8 -13t11 -5.5q9 0 15.5 9t11.5 19.5t8.5 19.5t6.5 9l7 -7q-1 -9 -5 -20t-10 -20.5t-14.5 -16t-19.5 -6.5q-10 0 -17.5 7t-12 17t-6.5 20.5t-2 18.5q0 2 3 5z" />
    <glyph glyph-name="gcircumflex" unicode="&#x11d;" horiz-adv-x="219" 
d="M148 320l-6 -8q-5 1 -17.5 10.5t-31.5 9.5q-23 0 -37 -24t-22.5 -56t-11.5 -63.5t-3 -47.5q0 -11 1 -29.5t5.5 -37.5t13.5 -32.5t25 -13.5q14 0 25 14t19 35.5t13 48t8.5 51t5.5 44.5l3 30l7 7l7 -8q4 -52 15.5 -102t22.5 -101l19 3l7 -7q-2 -7 -10 -8.5t-13 -2.5
q10 -36 16 -75t6 -77q0 -17 -5 -45t-15 -55t-26.5 -47t-38.5 -20q-17 0 -28.5 13.5t-18 32t-9.5 38t-3 31.5q0 27 6.5 59.5t19.5 62.5t33 54.5t48 36.5q-8 36 -17.5 71.5t-16.5 71.5q-3 -17 -6.5 -46t-11.5 -57.5t-22 -49.5t-37 -21q-22 0 -34.5 16t-19 38t-8 45.5
t-1.5 39.5q0 21 3 54t12 64.5t26.5 54t47.5 22.5q14 0 28 -5t26 -13zM136 -274q17 0 29 20.5t20 47.5t12 53.5t4 39.5q0 36 -5.5 71t-13.5 70q-25 -12 -43 -35.5t-30 -52t-17.5 -59.5t-5.5 -56q0 -10 3 -26.5t9 -32.5t15.5 -28t22.5 -12zM97 452q-6 -5 -10 -14t-8 -19.5
t-8 -19.5t-10 -13l-8 10q3 6 7.5 18t10 24t12 21t14.5 9q3 0 8 -10t10 -23t10 -25.5t8 -16.5l-7 -11q-5 0 -9.5 9t-8.5 21t-6.5 23.5t-4.5 16.5z" />
    <glyph glyph-name="gcommaaccent" unicode="&#x123;" horiz-adv-x="219" 
d="M113 515l7 -7v1q-2 0 -3.5 -4.5t-2.5 -6.5l-8 -21q-5 -17 -8.5 -34t-3.5 -34q0 -5 1 -9.5t3 -9.5l19 8l8 -7l-4 -6l-21 -9q-11 0 -16.5 10t-5.5 19q0 10 2.5 25t7 31t10 30t11.5 22zM148 320l-6 -8q-5 1 -17.5 10.5t-31.5 9.5q-23 0 -37 -24t-22.5 -56t-11.5 -63.5
t-3 -47.5q0 -11 1 -29.5t5.5 -37.5t13.5 -32.5t25 -13.5q14 0 25 14t19 35.5t13 48t8.5 51t5.5 44.5l3 30l7 7l7 -8q4 -52 15.5 -102t22.5 -101l19 3l7 -7q-2 -7 -10 -8.5t-13 -2.5q10 -36 16 -75t6 -77q0 -17 -5 -45t-15 -55t-26.5 -47t-38.5 -20q-17 0 -28.5 13.5t-18 32
t-9.5 38t-3 31.5q0 27 6.5 59.5t19.5 62.5t33 54.5t48 36.5q-8 36 -17.5 71.5t-16.5 71.5q-3 -17 -6.5 -46t-11.5 -57.5t-22 -49.5t-37 -21q-22 0 -34.5 16t-19 38t-8 45.5t-1.5 39.5q0 21 3 54t12 64.5t26.5 54t47.5 22.5q14 0 28 -5t26 -13zM136 -274q17 0 29 20.5
t20 47.5t12 53.5t4 39.5q0 36 -5.5 71t-13.5 70q-25 -12 -43 -35.5t-30 -52t-17.5 -59.5t-5.5 -56q0 -10 3 -26.5t9 -32.5t15.5 -28t22.5 -12z" />
    <glyph glyph-name="gdotaccent" unicode="&#x121;" horiz-adv-x="219" 
d="M148 320l-6 -8q-5 1 -17.5 10.5t-31.5 9.5q-23 0 -37 -24t-22.5 -56t-11.5 -63.5t-3 -47.5q0 -11 1 -29.5t5.5 -37.5t13.5 -32.5t25 -13.5q14 0 25 14t19 35.5t13 48t8.5 51t5.5 44.5l3 30l7 7l7 -8q4 -52 15.5 -102t22.5 -101l19 3l7 -7q-2 -7 -10 -8.5t-13 -2.5
q10 -36 16 -75t6 -77q0 -17 -5 -45t-15 -55t-26.5 -47t-38.5 -20q-17 0 -28.5 13.5t-18 32t-9.5 38t-3 31.5q0 27 6.5 59.5t19.5 62.5t33 54.5t48 36.5q-8 36 -17.5 71.5t-16.5 71.5q-3 -17 -6.5 -46t-11.5 -57.5t-22 -49.5t-37 -21q-22 0 -34.5 16t-19 38t-8 45.5
t-1.5 39.5q0 21 3 54t12 64.5t26.5 54t47.5 22.5q14 0 28 -5t26 -13zM136 -274q17 0 29 20.5t20 47.5t12 53.5t4 39.5q0 36 -5.5 71t-13.5 70q-25 -12 -43 -35.5t-30 -52t-17.5 -59.5t-5.5 -56q0 -10 3 -26.5t9 -32.5t15.5 -28t22.5 -12zM95 400q-5 5 -7 15l7 5
q6 0 11.5 -2.5t5.5 -10.5q0 -4 -3.5 -6t-6.5 -3l-7 2v0z" />
    <glyph glyph-name="hbar" unicode="&#x127;" horiz-adv-x="175" 
d="M22 487l7 -7q0 -17 -0.5 -44t-1 -60t-1 -70t-0.5 -73q0 -65 2 -119.5t8 -77.5q5 12 11 41t13 65.5t15.5 76t18 72.5t20 54t21.5 21q5 0 8 -5t4.5 -11.5t1.5 -13v-9.5q0 -27 -3 -72t-3 -96q0 -33 2.5 -65.5t9 -60t18.5 -48t31 -29.5l5 -6l-8 -8q-25 10 -39 31.5t-21 48
t-8.5 54t-1.5 50.5q0 35 2.5 71.5t2.5 72.5q0 19 -1 38t-5 39q-19 -40 -29 -82.5t-17.5 -85t-16.5 -84.5t-25 -82l-6 -4q-9 0 -13.5 21.5t-7 50t-3 56.5t-0.5 42q0 75 1 150.5t1 150.5zM-34 402q0 5 12.5 8.5t27.5 6t29 3.5t18 1t10.5 -1t6.5 -7l-5 -7q-23 0 -46.5 -5.5
t-46.5 -5.5z" />
    <glyph glyph-name="hcircumflex" unicode="&#x125;" horiz-adv-x="175" 
d="M22 487l7 -7q0 -17 -0.5 -44t-1 -60t-1 -70t-0.5 -73q0 -65 2 -119.5t8 -77.5q5 12 11 41t13 65.5t15.5 76t18 72.5t20 54t21.5 21q5 0 8 -5t4.5 -11.5t1.5 -13v-9.5q0 -27 -3 -72t-3 -96q0 -33 2.5 -65.5t9 -60t18.5 -48t31 -29.5l5 -6l-8 -8q-25 10 -39 31.5t-21 48
t-8.5 54t-1.5 50.5q0 35 2.5 71.5t2.5 72.5q0 19 -1 38t-5 39q-19 -40 -29 -82.5t-17.5 -85t-16.5 -84.5t-25 -82l-6 -4q-9 0 -13.5 21.5t-7 50t-3 56.5t-0.5 42q0 75 1 150.5t1 150.5zM136 471q-6 -5 -10 -14t-8 -19.5t-8 -19.5t-10 -13l-8 10q3 6 7.5 18t10 24t12 21
t14.5 9q3 0 8 -10t10 -23t10 -25.5t8 -16.5l-7 -11q-5 0 -9.5 9t-8.5 21t-6.5 23.5t-4.5 16.5z" />
    <glyph glyph-name="dotlessi" unicode="&#x131;" horiz-adv-x="88" 
d="M36 344l8 -7q-1 -42 -3 -83.5t-2 -83.5q0 -36 7 -74t7 -67q0 -7 -5 -9q-8 0 -12.5 21t-7 47t-3.5 50.5t-1 32.5q0 42 2.5 83t2.5 83z" />
    <glyph glyph-name="iacute" unicode="&#xed;" horiz-adv-x="88" 
d="M36 344l8 -7q-1 -42 -3 -83.5t-2 -83.5q0 -36 7 -74t7 -67q0 -7 -5 -9q-8 0 -12.5 21t-7 47t-3.5 50.5t-1 32.5q0 42 2.5 83t2.5 83zM7 399l14.5 14.5l21.5 21.5t21 19.5t14 9.5l6 -6q0 -4 -9.5 -15t-21.5 -22.5t-23.5 -20.5t-15.5 -9l-7 8v0z" />
    <glyph glyph-name="ibreve" unicode="&#x12d;" horiz-adv-x="88" 
d="M36 344l8 -7q-1 -42 -3 -83.5t-2 -83.5q0 -36 7 -74t7 -67q0 -7 -5 -9q-8 0 -12.5 21t-7 47t-3.5 50.5t-1 32.5q0 42 2.5 83t2.5 83zM9 443l6 -6l-2 -5q1 -4 2.5 -12t4.5 -15.5t8 -13t11 -5.5q9 0 15.5 9t11.5 19.5t8.5 19.5t6.5 9l7 -7q-1 -9 -5 -20t-10 -20.5
t-14.5 -16t-19.5 -6.5q-10 0 -17.5 7t-12 17t-6.5 20.5t-2 18.5q0 2 3 5z" />
    <glyph glyph-name="icircumflex" unicode="&#xee;" horiz-adv-x="88" 
d="M36 344l8 -7q-1 -42 -3 -83.5t-2 -83.5q0 -36 7 -74t7 -67q0 -7 -5 -9q-8 0 -12.5 21t-7 47t-3.5 50.5t-1 32.5q0 42 2.5 83t2.5 83zM47 452q-6 -5 -10 -14t-8 -19.5t-8 -19.5t-10 -13l-8 10q3 6 7.5 18t10 24t12 21t14.5 9q3 0 8 -10t10 -23t10 -25.5t8 -16.5l-7 -11
q-5 0 -9.5 9t-8.5 21t-6.5 23.5t-4.5 16.5z" />
    <glyph glyph-name="idieresis" unicode="&#xef;" horiz-adv-x="88" 
d="M36 344l8 -7q-1 -42 -3 -83.5t-2 -83.5q0 -36 7 -74t7 -67q0 -7 -5 -9q-8 0 -12.5 21t-7 47t-3.5 50.5t-1 32.5q0 42 2.5 83t2.5 83zM18 400q-5 5 -7 15l7 5q6 0 11.5 -2.5t5.5 -10.5q0 -4 -3.5 -6t-6.5 -3zM78 412q-2 -4 -6 -8t-9 -4l-7 9q0 10 11 12z" />
    <glyph glyph-name="igrave" unicode="&#xec;" horiz-adv-x="88" 
d="M36 344l8 -7q-1 -42 -3 -83.5t-2 -83.5q0 -36 7 -74t7 -67q0 -7 -5 -9q-8 0 -12.5 21t-7 47t-3.5 50.5t-1 32.5q0 42 2.5 83t2.5 83zM8 457l7 7q6 0 16.5 -11t22 -25.5t20 -28t9.5 -18.5l-7 -8q-3 1 -12.5 12t-20 24.5t-20.5 26t-15 17.5v4z" />
    <glyph glyph-name="imacron" unicode="&#x12b;" horiz-adv-x="88" 
d="M36 344l8 -7q-1 -42 -3 -83.5t-2 -83.5q0 -36 7 -74t7 -67q0 -7 -5 -9q-8 0 -12.5 21t-7 47t-3.5 50.5t-1 32.5q0 42 2.5 83t2.5 83zM-8 398q0 5 12.5 8.5t27.5 6t29 3.5t18 1t10.5 -1t6.5 -7l-5 -7q-23 0 -46.5 -5.5t-46.5 -5.5z" />
    <glyph glyph-name="iogonek" unicode="&#x12f;" horiz-adv-x="88" 
d="M36 344l8 -7q-1 -42 -3 -83.5t-2 -83.5q0 -36 7 -74t7 -67q0 -7 -5 -9q-8 0 -12.5 21t-7 47t-3.5 50.5t-1 32.5q0 42 2.5 83t2.5 83zM50 453l-12 -11q-8 3 -8 11q5 5 14 5zM47 31l6 -6q-8 -15 -16 -35.5t-8 -37.5q0 -8 9 -13l7 1l8 -8q-4 -9 -12 -9q-12 0 -20 6t-8 19
q0 7 3 18t7.5 23t9.5 22.5t8 17.5z" />
    <glyph glyph-name="itilde" unicode="&#x129;" horiz-adv-x="88" 
d="M36 344l8 -7q-1 -42 -3 -83.5t-2 -83.5q0 -36 7 -74t7 -67q0 -7 -5 -9q-8 0 -12.5 21t-7 47t-3.5 50.5t-1 32.5q0 42 2.5 83t2.5 83zM-1 391l-7 8q1 6 4.5 16t9 19.5t12 17t13.5 7.5q6 0 11.5 -7.5t10 -17.5t8 -20t5.5 -14h1q7 11 12.5 21.5t10.5 21.5l8 -7q-1 -7 -3 -16
t-6.5 -16.5t-11 -13t-15.5 -5.5l-6 4q-8 13 -12 27.5t-14 26.5q-4 -1 -8 -7t-7 -13.5t-5.5 -14.5t-2.5 -11z" />
    <glyph glyph-name="dotlessj" unicode="&#x237;" horiz-adv-x="86" 
d="M44 344l-4 -6q0 -50 5 -99t10.5 -98t10.5 -98.5t5 -98.5q0 -26 -6.5 -67.5t-21.5 -81.5t-39 -68.5t-59 -28.5q-14 0 -22 8t-13 19.5t-8 24.5t-6 23v3l7 7q6 -1 9.5 -12t8 -23.5t10.5 -23t18 -10.5q19 0 34.5 13t27.5 34.5t21 47.5t14.5 52.5t8.5 49.5t3 38q0 45 -5.5 90
t-12 89.5t-12 89t-5.5 89.5q0 9 1.5 24t10.5 20z" />
    <glyph glyph-name="jcircumflex" unicode="&#x135;" horiz-adv-x="86" 
d="M44 344l-4 -6q0 -50 5 -99t10.5 -98t10.5 -98.5t5 -98.5q0 -26 -6.5 -67.5t-21.5 -81.5t-39 -68.5t-59 -28.5q-14 0 -22 8t-13 19.5t-8 24.5t-6 23v3l7 7q6 -1 9.5 -12t8 -23.5t10.5 -23t18 -10.5q19 0 34.5 13t27.5 34.5t21 47.5t14.5 52.5t8.5 49.5t3 38q0 45 -5.5 90
t-12 89.5t-12 89t-5.5 89.5q0 9 1.5 24t10.5 20zM46 452q-6 -5 -10 -14t-8 -19.5t-8 -19.5t-10 -13l-8 10q3 6 7.5 18t10 24t12 21t14.5 9q3 0 8 -10t10 -23t10 -25.5t8 -16.5l-7 -11q-5 0 -9.5 9t-8.5 21t-6.5 23.5t-4.5 16.5z" />
    <glyph glyph-name="kcommaaccent" unicode="&#x137;" horiz-adv-x="187" 
d="M45 -15q0 5 6.5 8t10.5 3q8 0 10.5 -8t2.5 -14q0 -3 -1.5 -12.5t-3.5 -19t-6 -17t-8 -7.5l-7 7q5 11 9.5 22.5t4.5 23.5q0 4 -2 12l-8 -4zM21 470l7 -7v-382q1 17 10 47.5t20.5 63.5t23.5 62t21 44v2v-1l6 2l7 -8q-7 -15 -19 -43.5t-24 -59t-20.5 -58.5t-8.5 -43
q0 -31 20 -44t48 -13q32 0 66 13l9 -6q0 -6 -10 -10t-22.5 -7t-24.5 -4t-17 -1q-22 0 -43.5 8.5t-32.5 29.5q-1 -4 -2 -12t-3 -16t-5.5 -14.5t-9.5 -6.5l-4 7v450z" />
    <glyph glyph-name="kgreenlandic" unicode="&#x138;" horiz-adv-x="187" 
d="M21 303l7 -7v-215q1 17 10 47.5t20.5 63.5t23.5 62t21 44v2v-1l6 2l7 -8q-7 -15 -19 -43.5t-24 -59t-20.5 -58.5t-8.5 -43q0 -31 20 -44t48 -13q32 0 66 13l9 -6q0 -6 -10 -10t-22.5 -7t-24.5 -4t-17 -1q-22 0 -43.5 8.5t-32.5 29.5q-1 -4 -2 -12t-3 -16t-5.5 -14.5
t-9.5 -6.5l-4 7v283z" />
    <glyph glyph-name="lacute" unicode="&#x13a;" horiz-adv-x="67" 
d="M33 494q0 -42 -0.5 -84t-0.5 -84q0 -81 2.5 -160t12.5 -159l-7 -6q-6 0 -9.5 16.5t-6 42.5t-3.5 59t-1.5 67t-1 66t-0.5 57l-1 92q0 -2 0 12.5t0.5 33t2 35t5.5 19.5l6 -2l2 -5v0zM-3 530l14.5 14.5l21.5 21.5t21 19.5t14 9.5l6 -6q0 -4 -9.5 -15t-21.5 -22.5
t-23.5 -20.5t-15.5 -9l-7 8v0z" />
    <glyph glyph-name="lcaron" unicode="&#x13e;" horiz-adv-x="114" 
d="M33 494q0 -42 -0.5 -84t-0.5 -84q0 -81 2.5 -160t12.5 -159l-7 -6q-6 0 -9.5 16.5t-6 42.5t-3.5 59t-1.5 67t-1 66t-0.5 57l-1 92q0 -2 0 12.5t0.5 33t2 35t5.5 19.5l6 -2l2 -5v0zM103 431q0 -7 -4 -25.5t-10.5 -39t-14 -36t-13.5 -16.5l-8 7q2 14 7.5 27t11.5 26t11 27
t5 30l8 7z" />
    <glyph glyph-name="lcommaaccent" unicode="&#x13c;" horiz-adv-x="67" 
d="M31 -36l7 7q9 0 17 -4t8 -15q0 -17 -8.5 -34.5t-18.5 -30.5l-6 7q1 14 10 27t9 27q0 3 -2 9l-8 -1l-7 5zM33 494q0 -42 -0.5 -84t-0.5 -84q0 -81 2.5 -160t12.5 -159l-7 -6q-6 0 -9.5 16.5t-6 42.5t-3.5 59t-1.5 67t-1 66t-0.5 57l-1 92q0 -2 0 12.5t0.5 33t2 35
t5.5 19.5l6 -2z" />
    <glyph glyph-name="ldot" unicode="&#x140;" horiz-adv-x="83" 
d="M52 225l7 9l10 -10q-2 -7 -9 -7l-6 3zM33 494q0 -42 -0.5 -84t-0.5 -84q0 -81 2.5 -160t12.5 -159l-7 -6q-6 0 -9.5 16.5t-6 42.5t-3.5 59t-1.5 67t-1 66t-0.5 57l-1 92q0 -2 0 12.5t0.5 33t2 35t5.5 19.5l6 -2z" />
    <glyph glyph-name="lslash" unicode="&#x142;" horiz-adv-x="67" 
d="M33 494q0 -42 -0.5 -84t-0.5 -84q0 -81 2.5 -160t12.5 -159l-7 -6q-6 0 -9.5 16.5t-6 42.5t-3.5 59t-1.5 67t-1 66t-0.5 57l-1 92q0 -2 0 12.5t0.5 33t2 35t5.5 19.5l6 -2l2 -5v0zM-8 187l14.5 14.5l21.5 21.5t21 19.5t14 9.5l6 -6q0 -4 -9.5 -15t-21.5 -22.5
t-23.5 -20.5t-15.5 -9l-7 8v0z" />
    <glyph glyph-name="nacute" unicode="&#x144;" horiz-adv-x="212" 
d="M16 298l7 -7q9 -57 11.5 -114t18.5 -113q4 11 7.5 36.5t7 57t7.5 65t10.5 61t16 45.5t23.5 18t21.5 -20.5t12 -52.5t7 -71t6.5 -76t10.5 -66.5t19.5 -43.5q9 -10 18 -19t19 -17l-6 -7q-30 9 -46 37t-24 65.5t-10.5 79.5t-4.5 78.5t-7 63t-18 33.5q-10 0 -16.5 -17
t-11 -43.5t-8 -59.5t-7.5 -65.5t-8.5 -61.5t-10.5 -47l-3 -1q-9 0 -15.5 16.5t-11.5 41.5t-8.5 55.5t-6 59t-4.5 51t-3 31.5zM69 399l14.5 14.5l21.5 21.5t21 19.5t14 9.5l6 -6q0 -4 -9.5 -15t-21.5 -22.5t-23.5 -20.5t-15.5 -9l-7 8v0z" />
    <glyph glyph-name="napostrophe" unicode="&#x149;" horiz-adv-x="239" 
d="M6 359q-7 0 -9 5q0 5 6 7.5t11 2.5q8 0 11 -6t3 -13q0 -3 -0.5 -11t-2 -16.5t-4 -15t-6.5 -6.5l-6 6q1 10 3.5 19.5t2.5 19.5l-1 11zM46 298l7 -7q9 -57 11.5 -114t18.5 -113q5 11 8 36.5t6.5 57t7.5 65t10.5 61t16 45.5t23.5 18t21.5 -20.5t12 -52.5t7 -71t6.5 -76
t10.5 -66.5t19.5 -43.5q9 -10 18 -19t19 -17l-6 -7q-30 9 -46 37t-24 65.5t-10.5 79.5t-4.5 78.5t-7 63t-18 33.5q-10 0 -16.5 -17t-11 -43.5t-8 -59.5t-7.5 -65.5t-8.5 -61.5t-10.5 -47l-3 -1q-9 0 -15.5 16.5t-11.5 41.5t-8.5 55.5t-6 59t-4.5 51t-3 31.5z" />
    <glyph glyph-name="ncaron" unicode="&#x148;" horiz-adv-x="212" 
d="M16 298l7 -7q9 -57 11.5 -114t18.5 -113q4 11 7.5 36.5t7 57t7.5 65t10.5 61t16 45.5t23.5 18t21.5 -20.5t12 -52.5t7 -71t6.5 -76t10.5 -66.5t19.5 -43.5q9 -10 18 -19t19 -17l-6 -7q-30 9 -46 37t-24 65.5t-10.5 79.5t-4.5 78.5t-7 63t-18 33.5q-10 0 -16.5 -17
t-11 -43.5t-8 -59.5t-7.5 -65.5t-8.5 -61.5t-10.5 -47l-3 -1q-9 0 -15.5 16.5t-11.5 41.5t-8.5 55.5t-6 59t-4.5 51t-3 31.5zM87 441q4 0 6 -5.5t3.5 -11.5t3 -11t4.5 -5q1 3 3.5 13.5t5.5 21.5t6.5 19.5t6.5 8.5l7 -8q-1 -4 -4 -16.5t-7 -25.5t-9 -23t-9 -10q-3 0 -7 6
t-7.5 14.5t-6 16l-3.5 10.5z" />
    <glyph glyph-name="ncommaaccent" unicode="&#x146;" horiz-adv-x="212" 
d="M99 19q0 5 5 7t9 2q12 0 15.5 -7.5t3.5 -18.5q0 -3 -1 -13t-3 -20.5t-4.5 -18.5t-6.5 -8l-6 7q2 14 6 26t4 26q0 12 -14 12zM16 298l7 -7q9 -57 11.5 -114t18.5 -113q4 11 7.5 36.5t7 57t7.5 65t10.5 61t16 45.5t23.5 18t21.5 -20.5t12 -52.5t7 -71t6.5 -76t10.5 -66.5
t19.5 -43.5q9 -10 18 -19t19 -17l-6 -7q-30 9 -46 37t-24 65.5t-10.5 79.5t-4.5 78.5t-7 63t-18 33.5q-10 0 -16.5 -17t-11 -43.5t-8 -59.5t-7.5 -65.5t-8.5 -61.5t-10.5 -47l-3 -1q-9 0 -15.5 16.5t-11.5 41.5t-8.5 55.5t-6 59t-4.5 51t-3 31.5z" />
    <glyph glyph-name="ntilde" unicode="&#xf1;" horiz-adv-x="212" 
d="M16 298l7 -7q9 -57 11.5 -114t18.5 -113q4 11 7.5 36.5t7 57t7.5 65t10.5 61t16 45.5t23.5 18t21.5 -20.5t12 -52.5t7 -71t6.5 -76t10.5 -66.5t19.5 -43.5q9 -10 18 -19t19 -17l-6 -7q-30 9 -46 37t-24 65.5t-10.5 79.5t-4.5 78.5t-7 63t-18 33.5q-10 0 -16.5 -17
t-11 -43.5t-8 -59.5t-7.5 -65.5t-8.5 -61.5t-10.5 -47l-3 -1q-9 0 -15.5 16.5t-11.5 41.5t-8.5 55.5t-6 59t-4.5 51t-3 31.5zM60 391l-7 8q1 6 4.5 16t9 19.5t12 17t13.5 7.5q6 0 11.5 -7.5t10 -17.5t8 -20t5.5 -14h1q7 11 12.5 21.5t10.5 21.5l8 -7q-1 -7 -3 -16
t-6.5 -16.5t-11 -13t-15.5 -5.5l-6 4q-8 13 -12 27.5t-14 26.5q-4 -1 -8 -7t-7 -13.5t-5.5 -14.5t-2.5 -11z" />
    <glyph glyph-name="oacute" unicode="&#xf3;" horiz-adv-x="186" 
d="M13 214q0 21 1.5 44.5t8 44t19 34t34.5 13.5q30 0 48.5 -21t28.5 -50t13.5 -60.5t3.5 -52.5q0 -17 -4 -44t-13.5 -52t-25.5 -43t-39 -18t-38 20.5t-23 49t-11 57.5t-3 46v32zM157 175q0 18 -4 45t-13.5 52t-25.5 43t-40 18q-17 0 -27 -17t-14.5 -39.5t-5.5 -45t-1 -33.5
q0 -14 2 -42t8.5 -56t18.5 -49.5t33 -21.5q22 0 35.5 17t21 40.5t10 48.5t2.5 40zM42 399l14.5 14.5l21.5 21.5t21 19.5t14 9.5l6 -6q0 -4 -9.5 -15t-21.5 -22.5t-23.5 -20.5t-15.5 -9l-7 8v0z" />
    <glyph glyph-name="obreve" unicode="&#x14f;" horiz-adv-x="186" 
d="M13 214q0 21 1.5 44.5t8 44t19 34t34.5 13.5q30 0 48.5 -21t28.5 -50t13.5 -60.5t3.5 -52.5q0 -17 -4 -44t-13.5 -52t-25.5 -43t-39 -18t-38 20.5t-23 49t-11 57.5t-3 46v32zM157 175q0 18 -4 45t-13.5 52t-25.5 43t-40 18q-17 0 -27 -17t-14.5 -39.5t-5.5 -45t-1 -33.5
q0 -14 2 -42t8.5 -56t18.5 -49.5t33 -21.5q22 0 35.5 17t21 40.5t10 48.5t2.5 40zM46 443l6 -6l-2 -5q1 -4 2.5 -12t4.5 -15.5t8 -13t11 -5.5q9 0 15.5 9t11.5 19.5t8.5 19.5t6.5 9l7 -7q-1 -9 -5 -20t-10 -20.5t-14.5 -16t-19.5 -6.5q-10 0 -17.5 7t-12 17t-6.5 20.5
t-2 18.5q0 2 3 5z" />
    <glyph glyph-name="ocircumflex" unicode="&#xf4;" horiz-adv-x="186" 
d="M13 214q0 21 1.5 44.5t8 44t19 34t34.5 13.5q30 0 48.5 -21t28.5 -50t13.5 -60.5t3.5 -52.5q0 -17 -4 -44t-13.5 -52t-25.5 -43t-39 -18t-38 20.5t-23 49t-11 57.5t-3 46v32zM157 175q0 18 -4 45t-13.5 52t-25.5 43t-40 18q-17 0 -27 -17t-14.5 -39.5t-5.5 -45t-1 -33.5
q0 -14 2 -42t8.5 -56t18.5 -49.5t33 -21.5q22 0 35.5 17t21 40.5t10 48.5t2.5 40zM86 452q-6 -5 -10 -14t-8 -19.5t-8 -19.5t-10 -13l-8 10q3 6 7.5 18t10 24t12 21t14.5 9q3 0 8 -10t10 -23t10 -25.5t8 -16.5l-7 -11q-5 0 -9.5 9t-8.5 21t-6.5 23.5t-4.5 16.5z" />
    <glyph glyph-name="odieresis" unicode="&#xf6;" horiz-adv-x="186" 
d="M13 214q0 21 1.5 44.5t8 44t19 34t34.5 13.5q30 0 48.5 -21t28.5 -50t13.5 -60.5t3.5 -52.5q0 -17 -4 -44t-13.5 -52t-25.5 -43t-39 -18t-38 20.5t-23 49t-11 57.5t-3 46v32zM157 175q0 18 -4 45t-13.5 52t-25.5 43t-40 18q-17 0 -27 -17t-14.5 -39.5t-5.5 -45t-1 -33.5
q0 -14 2 -42t8.5 -56t18.5 -49.5t33 -21.5q22 0 35.5 17t21 40.5t10 48.5t2.5 40zM60 400q-5 5 -7 15l7 5q6 0 11.5 -2.5t5.5 -10.5q0 -4 -3.5 -6t-6.5 -3zM120 412q-2 -4 -6 -8t-9 -4l-7 9q0 10 11 12z" />
    <glyph glyph-name="ograve" unicode="&#xf2;" horiz-adv-x="186" 
d="M13 214q0 21 1.5 44.5t8 44t19 34t34.5 13.5q30 0 48.5 -21t28.5 -50t13.5 -60.5t3.5 -52.5q0 -17 -4 -44t-13.5 -52t-25.5 -43t-39 -18t-38 20.5t-23 49t-11 57.5t-3 46v32zM157 175q0 18 -4 45t-13.5 52t-25.5 43t-40 18q-17 0 -27 -17t-14.5 -39.5t-5.5 -45t-1 -33.5
q0 -14 2 -42t8.5 -56t18.5 -49.5t33 -21.5q22 0 35.5 17t21 40.5t10 48.5t2.5 40zM50 457l7 7q6 0 16.5 -11t22 -25.5t20 -28t9.5 -18.5l-7 -8q-3 1 -12.5 12t-20 24.5t-20.5 26t-15 17.5v4z" />
    <glyph glyph-name="ohungarumlaut" unicode="&#x151;" horiz-adv-x="186" 
d="M13 214q0 21 1.5 44.5t8 44t19 34t34.5 13.5q30 0 48.5 -21t28.5 -50t13.5 -60.5t3.5 -52.5q0 -17 -4 -44t-13.5 -52t-25.5 -43t-39 -18t-38 20.5t-23 49t-11 57.5t-3 46v32zM157 175q0 18 -4 45t-13.5 52t-25.5 43t-40 18q-17 0 -27 -17t-14.5 -39.5t-5.5 -45t-1 -33.5
q0 -14 2 -42t8.5 -56t18.5 -49.5t33 -21.5q22 0 35.5 17t21 40.5t10 48.5t2.5 40zM107 460q-5 -5 -15 -17.5t-20.5 -26t-19.5 -24.5t-13 -11l-6 7q1 6 9 18t18.5 25t21 24t15.5 16l4 1l7 -8zM151 460q-5 -5 -15 -17.5t-20.5 -26t-20 -24t-12.5 -11.5l-6 10q14 22 29.5 42.5
t34.5 37.5l4 1l7 -8z" />
    <glyph glyph-name="omacron" unicode="&#x14d;" horiz-adv-x="186" 
d="M13 214q0 21 1.5 44.5t8 44t19 34t34.5 13.5q30 0 48.5 -21t28.5 -50t13.5 -60.5t3.5 -52.5q0 -17 -4 -44t-13.5 -52t-25.5 -43t-39 -18t-38 20.5t-23 49t-11 57.5t-3 46v32zM157 175q0 18 -4 45t-13.5 52t-25.5 43t-40 18q-17 0 -27 -17t-14.5 -39.5t-5.5 -45t-1 -33.5
q0 -14 2 -42t8.5 -56t18.5 -49.5t33 -21.5q22 0 35.5 17t21 40.5t10 48.5t2.5 40zM25 398q0 5 12.5 8.5t27.5 6t29 3.5t18 1t10.5 -1t6.5 -7l-5 -7q-23 0 -46.5 -5.5t-46.5 -5.5z" />
    <glyph glyph-name="oslash" unicode="&#xf8;" horiz-adv-x="186" 
d="M13 214q0 21 1.5 44.5t8 44t19 34t34.5 13.5q30 0 48.5 -21t28.5 -50t13.5 -60.5t3.5 -52.5q0 -17 -4 -44t-13.5 -52t-25.5 -43t-39 -18t-38 20.5t-23 49t-11 57.5t-3 46v32zM157 175q0 18 -4 45t-13.5 52t-25.5 43t-40 18q-17 0 -27 -17t-14.5 -39.5t-5.5 -45t-1 -33.5
q0 -14 2 -42t8.5 -56t18.5 -49.5t33 -21.5q22 0 35.5 17t21 40.5t10 48.5t2.5 40zM196 454l7 -6v-3q-27 -64 -54 -128.5t-52 -129.5t-46.5 -131t-37.5 -134l-8 -6l-7 8q32 137 85 267.5t107 260.5z" />
    <glyph glyph-name="oslashacute" unicode="&#x1ff;" horiz-adv-x="186" 
d="M55 399l14.5 14.5l21.5 21.5t21 19.5t14 9.5l6 -6q0 -4 -9.5 -15t-21.5 -22.5t-23.5 -20.5t-15.5 -9l-7 8v0zM13 214q0 21 1.5 44.5t8 44t19 34t34.5 13.5q30 0 48.5 -21t28.5 -50t13.5 -60.5t3.5 -52.5q0 -17 -4 -44t-13.5 -52t-25.5 -43t-39 -18t-38 20.5t-23 49
t-11 57.5t-3 46v32zM157 175q0 18 -4 45t-13.5 52t-25.5 43t-40 18q-17 0 -27 -17t-14.5 -39.5t-5.5 -45t-1 -33.5q0 -14 2 -42t8.5 -56t18.5 -49.5t33 -21.5q22 0 35.5 17t21 40.5t10 48.5t2.5 40zM196 454l7 -6v-3q-27 -64 -54 -128.5t-52 -129.5t-46.5 -131t-37.5 -134
l-8 -6l-7 8q32 137 85 267.5t107 260.5z" />
    <glyph glyph-name="otilde" unicode="&#xf5;" horiz-adv-x="186" 
d="M13 214q0 21 1.5 44.5t8 44t19 34t34.5 13.5q30 0 48.5 -21t28.5 -50t13.5 -60.5t3.5 -52.5q0 -17 -4 -44t-13.5 -52t-25.5 -43t-39 -18t-38 20.5t-23 49t-11 57.5t-3 46v32zM157 175q0 18 -4 45t-13.5 52t-25.5 43t-40 18q-17 0 -27 -17t-14.5 -39.5t-5.5 -45t-1 -33.5
q0 -14 2 -42t8.5 -56t18.5 -49.5t33 -21.5q22 0 35.5 17t21 40.5t10 48.5t2.5 40zM47 391l-7 8q1 6 4.5 16t9 19.5t12 17t13.5 7.5q6 0 11.5 -7.5t10 -17.5t8 -20t5.5 -14h1q7 11 12.5 21.5t10.5 21.5l8 -7q-1 -7 -3 -16t-6.5 -16.5t-11 -13t-15.5 -5.5l-6 4q-8 13 -12 27.5
t-14 26.5q-4 -1 -8 -7t-7 -13.5t-5.5 -14.5t-2.5 -11z" />
    <glyph glyph-name="oe" unicode="&#x153;" horiz-adv-x="296" 
d="M155 72q-4 -9 -10.5 -20t-15.5 -20.5t-19.5 -16t-21.5 -6.5q-23 0 -38 20.5t-23 49t-11 57.5t-3 46v24q0 21 1.5 46t8 46.5t19 36.5t34.5 15q20 0 37 -13.5t28 -29.5l-9 -17q-8 17 -23 30t-35 13q-17 0 -27 -17t-14.5 -39.5t-5.5 -45t-1 -33.5q0 -14 2 -42t8.5 -56
t18.5 -49.5t33 -21.5q13 0 22.5 6t16.5 16t11.5 21t7.5 22zM113 184l6 6q0 15 0.5 41t5.5 51.5t16 44.5t31 19q14 0 26 -11t21 -26.5t14 -32.5t5 -29q0 -13 -4.5 -29.5t-12.5 -31.5t-20 -25t-28 -10q-11 0 -21.5 5.5t-16.5 13.5q2 -13 7.5 -38t15 -49.5t23 -42.5t31.5 -18
q10 0 19 6.5t16.5 16.5t13 20.5t9.5 18.5l7 2l8 -6q-2 -10 -9.5 -22.5t-17.5 -23.5t-22 -18.5t-23 -7.5q-24 0 -41 19t-28 46t-16.5 55.5t-6.5 46.5l-3 1zM170 328q-13 0 -20.5 -15t-11 -34.5t-4.5 -39t-1 -28.5q0 -20 8 -33t30 -13q15 0 24.5 8.5t15.5 21t8 26.5t2 26
q0 10 -3 24t-9 27t-16 21.5t-23 8.5z" />
    <glyph glyph-name="racute" unicode="&#x155;" horiz-adv-x="171" 
d="M59 -12q-1 17 -2.5 46.5t-4 65t-6.5 73.5t-9 71.5t-11.5 58.5t-14.5 35l7 6q7 -1 13 -16t11 -37.5t9 -49t6.5 -51t4 -43t1.5 -24.5q1 23 4 62.5t11.5 78t25.5 69t47 35.5l7 -7l-6 -7q-23 -3 -37.5 -31t-23.5 -68.5t-13 -87.5t-6.5 -86.5t-4.5 -66t-6 -26.5h-2v0zM48 399
l14.5 14.5l21.5 21.5t21 19.5t14 9.5l6 -6q0 -4 -9.5 -15t-21.5 -22.5t-23.5 -20.5t-15.5 -9l-7 8v0z" />
    <glyph glyph-name="rcaron" unicode="&#x159;" horiz-adv-x="171" 
d="M59 -12q-1 17 -2.5 46.5t-4 65t-6.5 73.5t-9 71.5t-11.5 58.5t-14.5 35l7 6q7 -1 13 -16t11 -37.5t9 -49t6.5 -51t4 -43t1.5 -24.5q1 23 4 62.5t11.5 78t25.5 69t47 35.5l7 -7l-6 -7q-23 -3 -37.5 -31t-23.5 -68.5t-13 -87.5t-6.5 -86.5t-4.5 -66t-6 -26.5h-2v0zM58 441
q4 0 6 -5.5t3.5 -11.5t3 -11t4.5 -5q1 3 3.5 13.5t5.5 21.5t6.5 19.5t6.5 8.5l7 -8q-1 -4 -4 -16.5t-7 -25.5t-9 -23t-9 -10q-3 0 -7 6t-7.5 14.5t-6 16l-3.5 10.5z" />
    <glyph glyph-name="rcommaaccent" unicode="&#x157;" horiz-adv-x="171" 
d="M55 -64q-2 0 -5 1t-3 4q0 5 5 7t10 2q18 0 18 -19q0 -3 -2 -14t-5 -23t-6.5 -21t-6.5 -9l-5 7q2 17 6 34t4 35zM59 -12q-1 17 -2.5 46.5t-4 65t-6.5 73.5t-9 71.5t-11.5 58.5t-14.5 35l7 6q7 -1 13 -16t11 -37.5t9 -49t6.5 -51t4 -43t1.5 -24.5q1 23 4 62.5t11.5 78
t25.5 69t47 35.5l7 -7l-6 -7q-23 -3 -37.5 -31t-23.5 -68.5t-13 -87.5t-6.5 -86.5t-4.5 -66t-6 -26.5h-2z" />
    <glyph glyph-name="sacute" unicode="&#x15b;" horiz-adv-x="217" 
d="M138 351l-7 -7q-7 1 -13 4t-13 3q-16 0 -30 -12.5t-25 -30.5t-17.5 -37.5t-6.5 -32.5q0 -18 13 -28t32.5 -16t42.5 -10.5t42.5 -12.5t32.5 -21.5t13 -37.5q0 -22 -10.5 -42t-27 -35t-38 -24t-42.5 -9q-25 0 -39.5 8t-22 22t-10 32.5t-2.5 38.5q0 8 7 10l8 -8
q0 -15 1 -30.5t6.5 -29t16 -22t29.5 -8.5q20 0 39.5 7.5t34.5 20.5t24.5 31t9.5 39t-13 32.5t-32.5 18t-42.5 11t-42.5 12t-32.5 20.5t-13 37q0 17 8.5 38t22.5 39.5t32 31t37 12.5q14 0 26 -9zM45 394l14.5 14.5l21.5 21.5t21 19.5t14 9.5l6 -6q0 -4 -9.5 -15t-21.5 -22.5
t-23.5 -20.5t-15.5 -9l-7 8v0z" />
    <glyph glyph-name="scaron" unicode="&#x161;" horiz-adv-x="217" 
d="M138 351l-7 -7q-7 1 -13 4t-13 3q-16 0 -30 -12.5t-25 -30.5t-17.5 -37.5t-6.5 -32.5q0 -18 13 -28t32.5 -16t42.5 -10.5t42.5 -12.5t32.5 -21.5t13 -37.5q0 -22 -10.5 -42t-27 -35t-38 -24t-42.5 -9q-25 0 -39.5 8t-22 22t-10 32.5t-2.5 38.5q0 8 7 10l8 -8
q0 -15 1 -30.5t6.5 -29t16 -22t29.5 -8.5q20 0 39.5 7.5t34.5 20.5t24.5 31t9.5 39t-13 32.5t-32.5 18t-42.5 11t-42.5 12t-32.5 20.5t-13 37q0 17 8.5 38t22.5 39.5t32 31t37 12.5q14 0 26 -9zM71 439q4 0 6 -5.5t3.5 -11.5t3 -11t4.5 -5q1 3 3.5 13.5t5.5 21.5t6.5 19.5
t6.5 8.5l7 -8q-1 -4 -4 -16.5t-7 -25.5t-9 -23t-9 -10q-3 0 -7 6t-7.5 14.5t-6 16l-3.5 10.5z" />
    <glyph glyph-name="scedilla" unicode="&#x15f;" horiz-adv-x="217" 
d="M138 351l-7 -7q-7 1 -13 4t-13 3q-16 0 -30 -12.5t-25 -30.5t-17.5 -37.5t-6.5 -32.5q0 -18 13 -28t32.5 -16t42.5 -10.5t42.5 -12.5t32.5 -21.5t13 -37.5q0 -22 -10.5 -42t-27 -35t-38 -24t-42.5 -9q-25 0 -39.5 8t-22 22t-10 32.5t-2.5 38.5q0 8 7 10l8 -8
q0 -15 1 -30.5t6.5 -29t16 -22t29.5 -8.5q20 0 39.5 7.5t34.5 20.5t24.5 31t9.5 39t-13 32.5t-32.5 18t-42.5 11t-42.5 12t-32.5 20.5t-13 37q0 17 8.5 38t22.5 39.5t32 31t37 12.5q14 0 26 -9zM97 15l8 -7q0 -6 -0.5 -13t-0.5 -14q0 -12 5 -18.5t11.5 -12t11.5 -10.5t5 -14
q0 -13 -15 -24t-24 -16l-7 8q0 3 5 5.5t10.5 5.5t10.5 7.5t5 12.5q0 7 -5.5 11.5t-11.5 9t-11.5 12t-5.5 22.5q0 7 0.5 14t1.5 14z" />
    <glyph glyph-name="scircumflex" unicode="&#x15d;" horiz-adv-x="217" 
d="M138 351l-7 -7q-7 1 -13 4t-13 3q-16 0 -30 -12.5t-25 -30.5t-17.5 -37.5t-6.5 -32.5q0 -18 13 -28t32.5 -16t42.5 -10.5t42.5 -12.5t32.5 -21.5t13 -37.5q0 -22 -10.5 -42t-27 -35t-38 -24t-42.5 -9q-25 0 -39.5 8t-22 22t-10 32.5t-2.5 38.5q0 8 7 10l8 -8
q0 -15 1 -30.5t6.5 -29t16 -22t29.5 -8.5q20 0 39.5 7.5t34.5 20.5t24.5 31t9.5 39t-13 32.5t-32.5 18t-42.5 11t-42.5 12t-32.5 20.5t-13 37q0 17 8.5 38t22.5 39.5t32 31t37 12.5q14 0 26 -9zM103 453q-6 -5 -10 -14t-8 -19.5t-8 -19.5t-10 -13l-8 10q3 6 7.5 18t10 24
t12 21t14.5 9q3 0 8 -10t10 -23t10 -25.5t8 -16.5l-7 -11q-5 0 -9.5 9t-8.5 21t-6.5 23.5t-4.5 16.5z" />
    <glyph glyph-name="scommaaccent" unicode="&#x219;" horiz-adv-x="217" 
d="M91 -37q-2 0 -4.5 -0.5t-4.5 -0.5q-6 0 -6 6q0 5 7 7t10 2q14 0 19 -12.5t5 -23.5q0 -4 -1 -15t-3.5 -22.5t-6.5 -20.5t-10 -9l-6 6q5 13 9 27.5t4 28.5q0 6 -2 16.5t-10 10.5zM138 351l-7 -7q-7 1 -13 4t-13 3q-16 0 -30 -12.5t-25 -30.5t-17.5 -37.5t-6.5 -32.5
q0 -18 13 -28t32.5 -16t42.5 -10.5t42.5 -12.5t32.5 -21.5t13 -37.5q0 -22 -10.5 -42t-27 -35t-38 -24t-42.5 -9q-25 0 -39.5 8t-22 22t-10 32.5t-2.5 38.5q0 8 7 10l8 -8q0 -15 1 -30.5t6.5 -29t16 -22t29.5 -8.5q20 0 39.5 7.5t34.5 20.5t24.5 31t9.5 39t-13 32.5
t-32.5 18t-42.5 11t-42.5 12t-32.5 20.5t-13 37q0 17 8.5 38t22.5 39.5t32 31t37 12.5q14 0 26 -9z" />
    <glyph glyph-name="tbar" unicode="&#x167;" horiz-adv-x="160" 
d="M2 290q0 4 9.5 7.5t21 6t22.5 4t15 2.5q4 45 7 90l6 90l7 7l7 -7q-2 -45 -5.5 -89t-6.5 -89l54 8l7 -7q0 -4 -8.5 -7t-19 -4.5t-20.5 -2.5t-14 -2q-4 -42 -6 -84.5t-2 -84.5q0 -33 3 -65.5t13 -64.5q4 -11 11.5 -24t8.5 -24l-7 -8l-6 5q-12 27 -19.5 47.5t-11 40t-4.5 41
t-1 50.5q0 42 1 84t4 84q-15 -2 -29.5 -4.5t-28.5 -6.5zM20 212q0 5 12.5 8.5t27.5 6t29 3.5t18 1t10.5 -1t6.5 -7l-5 -7q-23 0 -46.5 -5.5t-46.5 -5.5z" />
    <glyph glyph-name="tcaron" unicode="&#x165;" horiz-adv-x="190" 
d="M2 290q0 4 9.5 7.5t21 6t22.5 4t15 2.5q4 45 7 90l6 90l7 7l7 -7q-2 -45 -5.5 -89t-6.5 -89l54 8l7 -7q0 -4 -8.5 -7t-19 -4.5t-20.5 -2.5t-14 -2q-4 -42 -6 -84.5t-2 -84.5q0 -33 3 -65.5t13 -64.5q4 -11 11.5 -24t8.5 -24l-7 -8l-6 5q-12 27 -19.5 47.5t-11 40t-4.5 41
t-1 50.5q0 42 1 84t4 84q-15 -2 -29.5 -4.5t-28.5 -6.5zM173 463q0 -7 -4 -25.5t-10.5 -39t-14 -36t-13.5 -16.5l-8 7q2 14 7.5 27t11.5 26t11 27t5 30l8 7z" />
    <glyph glyph-name="tcommaaccent" unicode="&#x163;" horiz-adv-x="160" 
d="M98 -77l7 7q26 0 26 -23q0 -3 -1.5 -12.5t-4 -19.5t-6 -18t-7.5 -8l-6 6q2 13 7.5 24t5.5 24q0 14 -15 14zM2 290q0 4 9.5 7.5t21 6t22.5 4t15 2.5q4 45 7 90l6 90l7 7l7 -7q-2 -45 -5.5 -89t-6.5 -89l54 8l7 -7q0 -4 -8.5 -7t-19 -4.5t-20.5 -2.5t-14 -2
q-4 -42 -6 -84.5t-2 -84.5q0 -33 3 -65.5t13 -64.5q4 -11 11.5 -24t8.5 -24l-7 -8l-6 5q-12 27 -19.5 47.5t-11 40t-4.5 41t-1 50.5q0 42 1 84t4 84q-15 -2 -29.5 -4.5t-28.5 -6.5z" />
    <glyph glyph-name="uacute" unicode="&#xfa;" horiz-adv-x="198" 
d="M13 339q7 -2 11 -22t6.5 -47.5t4 -55.5t3.5 -45q1 -12 4 -30.5t7.5 -37.5t11 -35.5t14.5 -25.5q11 8 19.5 27.5t15 45t11.5 54.5t8 56.5t5 50.5t3 37v15.5t1 24t3 22.5t6 10q2 0 4.5 -2.5l3.5 -3.5q0 -48 -3.5 -95.5t-3.5 -95.5q0 -18 0.5 -42t3 -49t7.5 -47.5t14 -38.5
q5 -8 11.5 -15t8.5 -15l-7 -8q-15 0 -25 24.5t-16 56t-8.5 61.5t-2.5 41q-5 -15 -9 -33.5t-10 -37t-14.5 -35t-21.5 -26.5h-2q-3 0 -5.5 1t-4.5 2q-27 36 -35 74.5t-9.5 78.5t-2.5 79t-15 75l8 7v0zM39 399l14.5 14.5l21.5 21.5t21 19.5t14 9.5l6 -6q0 -4 -9.5 -15
t-21.5 -22.5t-23.5 -20.5t-15.5 -9l-7 8v0z" />
    <glyph glyph-name="ubreve" unicode="&#x16d;" horiz-adv-x="198" 
d="M13 339q7 -2 11 -22t6.5 -47.5t4 -55.5t3.5 -45q1 -12 4 -30.5t7.5 -37.5t11 -35.5t14.5 -25.5q11 8 19.5 27.5t15 45t11.5 54.5t8 56.5t5 50.5t3 37v15.5t1 24t3 22.5t6 10q2 0 4.5 -2.5l3.5 -3.5q0 -48 -3.5 -95.5t-3.5 -95.5q0 -18 0.5 -42t3 -49t7.5 -47.5t14 -38.5
q5 -8 11.5 -15t8.5 -15l-7 -8q-15 0 -25 24.5t-16 56t-8.5 61.5t-2.5 41q-5 -15 -9 -33.5t-10 -37t-14.5 -35t-21.5 -26.5h-2q-3 0 -5.5 1t-4.5 2q-27 36 -35 74.5t-9.5 78.5t-2.5 79t-15 75l8 7v0zM41 443l6 -6l-2 -5q1 -4 2.5 -12t4.5 -15.5t8 -13t11 -5.5q9 0 15.5 9
t11.5 19.5t8.5 19.5t6.5 9l7 -7q-1 -9 -5 -20t-10 -20.5t-14.5 -16t-19.5 -6.5q-10 0 -17.5 7t-12 17t-6.5 20.5t-2 18.5q0 2 3 5z" />
    <glyph glyph-name="ucircumflex" unicode="&#xfb;" horiz-adv-x="198" 
d="M13 339q7 -2 11 -22t6.5 -47.5t4 -55.5t3.5 -45q1 -12 4 -30.5t7.5 -37.5t11 -35.5t14.5 -25.5q11 8 19.5 27.5t15 45t11.5 54.5t8 56.5t5 50.5t3 37v15.5t1 24t3 22.5t6 10q2 0 4.5 -2.5l3.5 -3.5q0 -48 -3.5 -95.5t-3.5 -95.5q0 -18 0.5 -42t3 -49t7.5 -47.5t14 -38.5
q5 -8 11.5 -15t8.5 -15l-7 -8q-15 0 -25 24.5t-16 56t-8.5 61.5t-2.5 41q-5 -15 -9 -33.5t-10 -37t-14.5 -35t-21.5 -26.5h-2q-3 0 -5.5 1t-4.5 2q-27 36 -35 74.5t-9.5 78.5t-2.5 79t-15 75l8 7v0zM79 452q-6 -5 -10 -14t-8 -19.5t-8 -19.5t-10 -13l-8 10q3 6 7.5 18t10 24
t12 21t14.5 9q3 0 8 -10t10 -23t10 -25.5t8 -16.5l-7 -11q-5 0 -9.5 9t-8.5 21t-6.5 23.5t-4.5 16.5z" />
    <glyph glyph-name="udieresis" unicode="&#xfc;" horiz-adv-x="198" 
d="M13 339q7 -2 11 -22t6.5 -47.5t4 -55.5t3.5 -45q1 -12 4 -30.5t7.5 -37.5t11 -35.5t14.5 -25.5q11 8 19.5 27.5t15 45t11.5 54.5t8 56.5t5 50.5t3 37v15.5t1 24t3 22.5t6 10q2 0 4.5 -2.5l3.5 -3.5q0 -48 -3.5 -95.5t-3.5 -95.5q0 -18 0.5 -42t3 -49t7.5 -47.5t14 -38.5
q5 -8 11.5 -15t8.5 -15l-7 -8q-15 0 -25 24.5t-16 56t-8.5 61.5t-2.5 41q-5 -15 -9 -33.5t-10 -37t-14.5 -35t-21.5 -26.5h-2q-3 0 -5.5 1t-4.5 2q-27 36 -35 74.5t-9.5 78.5t-2.5 79t-15 75l8 7v0zM50 395q-5 5 -7 15l7 5q6 0 11.5 -2.5t5.5 -10.5q0 -4 -3.5 -6t-6.5 -3z
M110 407q-2 -4 -6 -8t-9 -4l-7 9q0 10 11 12z" />
    <glyph glyph-name="uhungarumlaut" unicode="&#x171;" horiz-adv-x="198" 
d="M13 339q7 -2 11 -22t6.5 -47.5t4 -55.5t3.5 -45q1 -12 4 -30.5t7.5 -37.5t11 -35.5t14.5 -25.5q11 8 19.5 27.5t15 45t11.5 54.5t8 56.5t5 50.5t3 37v15.5t1 24t3 22.5t6 10q2 0 4.5 -2.5l3.5 -3.5q0 -48 -3.5 -95.5t-3.5 -95.5q0 -18 0.5 -42t3 -49t7.5 -47.5t14 -38.5
q5 -8 11.5 -15t8.5 -15l-7 -8q-15 0 -25 24.5t-16 56t-8.5 61.5t-2.5 41q-5 -15 -9 -33.5t-10 -37t-14.5 -35t-21.5 -26.5h-2q-3 0 -5.5 1t-4.5 2q-27 36 -35 74.5t-9.5 78.5t-2.5 79t-15 75l8 7v0zM107 460q-5 -5 -15 -17.5t-20.5 -26t-19.5 -24.5t-13 -11l-6 7q1 6 9 18
t18.5 25t21 24t15.5 16l4 1l7 -8zM151 460q-5 -5 -15 -17.5t-20.5 -26t-20 -24t-12.5 -11.5l-6 10q14 22 29.5 42.5t34.5 37.5l4 1l7 -8z" />
    <glyph glyph-name="ugrave" unicode="&#xf9;" horiz-adv-x="198" 
d="M13 339q7 -2 11 -22t6.5 -47.5t4 -55.5t3.5 -45q1 -12 4 -30.5t7.5 -37.5t11 -35.5t14.5 -25.5q11 8 19.5 27.5t15 45t11.5 54.5t8 56.5t5 50.5t3 37v15.5t1 24t3 22.5t6 10q2 0 4.5 -2.5l3.5 -3.5q0 -48 -3.5 -95.5t-3.5 -95.5q0 -18 0.5 -42t3 -49t7.5 -47.5t14 -38.5
q5 -8 11.5 -15t8.5 -15l-7 -8q-15 0 -25 24.5t-16 56t-8.5 61.5t-2.5 41q-5 -15 -9 -33.5t-10 -37t-14.5 -35t-21.5 -26.5h-2q-3 0 -5.5 1t-4.5 2q-27 36 -35 74.5t-9.5 78.5t-2.5 79t-15 75l8 7v0zM38 457l7 7q6 0 16.5 -11t22 -25.5t20 -28t9.5 -18.5l-7 -8q-3 1 -12.5 12
t-20 24.5t-20.5 26t-15 17.5v4z" />
    <glyph glyph-name="umacron" unicode="&#x16b;" horiz-adv-x="198" 
d="M13 339q7 -2 11 -22t6.5 -47.5t4 -55.5t3.5 -45q1 -12 4 -30.5t7.5 -37.5t11 -35.5t14.5 -25.5q11 8 19.5 27.5t15 45t11.5 54.5t8 56.5t5 50.5t3 37v15.5t1 24t3 22.5t6 10q2 0 4.5 -2.5l3.5 -3.5q0 -48 -3.5 -95.5t-3.5 -95.5q0 -18 0.5 -42t3 -49t7.5 -47.5t14 -38.5
q5 -8 11.5 -15t8.5 -15l-7 -8q-15 0 -25 24.5t-16 56t-8.5 61.5t-2.5 41q-5 -15 -9 -33.5t-10 -37t-14.5 -35t-21.5 -26.5h-2q-3 0 -5.5 1t-4.5 2q-27 36 -35 74.5t-9.5 78.5t-2.5 79t-15 75l8 7v0zM24 398q0 5 12.5 8.5t27.5 6t29 3.5t18 1t10.5 -1t6.5 -7l-5 -7
q-23 0 -46.5 -5.5t-46.5 -5.5z" />
    <glyph glyph-name="uogonek" unicode="&#x173;" horiz-adv-x="198" 
d="M13 339q7 -2 11 -22t6.5 -47.5t4 -55.5t3.5 -45q1 -12 4 -30.5t7.5 -37.5t11 -35.5t14.5 -25.5q11 8 19.5 27.5t15 45t11.5 54.5t8 56.5t5 50.5t3 37v15.5t1 24t3 22.5t6 10q2 0 4.5 -2.5l3.5 -3.5q0 -48 -3.5 -95.5t-3.5 -95.5q0 -18 0.5 -42t3 -49t7.5 -47.5t14 -38.5
q5 -8 11.5 -15t8.5 -15l-7 -8q-15 0 -25 24.5t-16 56t-8.5 61.5t-2.5 41q-5 -15 -9 -33.5t-10 -37t-14.5 -35t-21.5 -26.5h-2q-3 0 -5.5 1t-4.5 2q-27 36 -35 74.5t-9.5 78.5t-2.5 79t-15 75l8 7v0zM188 -16l6 -6q-8 -15 -16 -35.5t-8 -37.5q0 -8 9 -13l7 1l8 -8
q-4 -9 -12 -9q-12 0 -20 6t-8 19q0 7 3 18t7.5 23t9.5 22.5t8 17.5z" />
    <glyph glyph-name="uring" unicode="&#x16f;" horiz-adv-x="198" 
d="M13 339q7 -2 11 -22t6.5 -47.5t4 -55.5t3.5 -45q1 -12 4 -30.5t7.5 -37.5t11 -35.5t14.5 -25.5q11 8 19.5 27.5t15 45t11.5 54.5t8 56.5t5 50.5t3 37v15.5t1 24t3 22.5t6 10q2 0 4.5 -2.5l3.5 -3.5q0 -48 -3.5 -95.5t-3.5 -95.5q0 -18 0.5 -42t3 -49t7.5 -47.5t14 -38.5
q5 -8 11.5 -15t8.5 -15l-7 -8q-15 0 -25 24.5t-16 56t-8.5 61.5t-2.5 41q-5 -15 -9 -33.5t-10 -37t-14.5 -35t-21.5 -26.5h-2q-3 0 -5.5 1t-4.5 2q-27 36 -35 74.5t-9.5 78.5t-2.5 79t-15 75l8 7v0zM68 447q14 0 29 -6t15 -23q0 -19 -18 -27.5t-33 -8.5q-11 0 -16.5 8
t-5.5 19q0 13 7 25.5t22 12.5zM63 395q10 0 23.5 6t13.5 18q0 11 -11.5 13.5t-19.5 2.5t-12 -10t-4 -16q0 -5 3.5 -8.5t6.5 -5.5z" />
    <glyph glyph-name="utilde" unicode="&#x169;" horiz-adv-x="198" 
d="M13 339q7 -2 11 -22t6.5 -47.5t4 -55.5t3.5 -45q1 -12 4 -30.5t7.5 -37.5t11 -35.5t14.5 -25.5q11 8 19.5 27.5t15 45t11.5 54.5t8 56.5t5 50.5t3 37v15.5t1 24t3 22.5t6 10q2 0 4.5 -2.5l3.5 -3.5q0 -48 -3.5 -95.5t-3.5 -95.5q0 -18 0.5 -42t3 -49t7.5 -47.5t14 -38.5
q5 -8 11.5 -15t8.5 -15l-7 -8q-15 0 -25 24.5t-16 56t-8.5 61.5t-2.5 41q-5 -15 -9 -33.5t-10 -37t-14.5 -35t-21.5 -26.5h-2q-3 0 -5.5 1t-4.5 2q-27 36 -35 74.5t-9.5 78.5t-2.5 79t-15 75l8 7v0zM30 391l-7 8q1 6 4.5 16t9 19.5t12 17t13.5 7.5q6 0 11.5 -7.5t10 -17.5
t8 -20t5.5 -14h1q7 11 12.5 21.5t10.5 21.5l8 -7q-1 -7 -3 -16t-6.5 -16.5t-11 -13t-15.5 -5.5l-6 4q-8 13 -12 27.5t-14 26.5q-4 -1 -8 -7t-7 -13.5t-5.5 -14.5t-2.5 -11z" />
    <glyph glyph-name="wacute" unicode="&#x1e83;" horiz-adv-x="309" 
d="M17 327l8 -8q0 -35 1 -75t5.5 -80t14.5 -78t29 -69h6q16 23 26 61t15.5 74.5t7.5 63t3 27.5l6 4l9 -9q-2 -12 -4 -25t-2 -24t2.5 -36.5t9.5 -51.5t17.5 -46t27.5 -20q20 0 35 23t24.5 54t14 61t4.5 45q0 18 -4.5 41.5t-14 44.5t-25.5 35.5t-39 14.5q-8 0 -15 -1.5
t-15 -2.5l-7 6q-1 1 -1 2q0 3 3.5 4.5t8 2t8 1t4.5 0.5q32 0 53 -12.5t33.5 -33t17.5 -47t5 -53.5q0 -16 -5 -49t-16 -66.5t-27.5 -58.5t-40.5 -25q-17 0 -28.5 12.5t-19 29.5t-12.5 35.5t-8 30.5l-5.5 -33t-10 -41.5t-17 -36t-27.5 -15.5q-13 0 -23 20.5t-17 52t-11 69
t-6.5 73t-3.5 63t-1 38.5zM55 399l14.5 14.5l21.5 21.5t21 19.5t14 9.5l6 -6q0 -4 -9.5 -15t-21.5 -22.5t-23.5 -20.5t-15.5 -9l-7 8v0z" />
    <glyph glyph-name="wcircumflex" unicode="&#x175;" horiz-adv-x="309" 
d="M17 327l8 -8q0 -35 1 -75t5.5 -80t14.5 -78t29 -69h6q16 23 26 61t15.5 74.5t7.5 63t3 27.5l6 4l9 -9q-2 -12 -4 -25t-2 -24t2.5 -36.5t9.5 -51.5t17.5 -46t27.5 -20q20 0 35 23t24.5 54t14 61t4.5 45q0 18 -4.5 41.5t-14 44.5t-25.5 35.5t-39 14.5q-8 0 -15 -1.5
t-15 -2.5l-7 6q-1 1 -1 2q0 3 3.5 4.5t8 2t8 1t4.5 0.5q32 0 53 -12.5t33.5 -33t17.5 -47t5 -53.5q0 -16 -5 -49t-16 -66.5t-27.5 -58.5t-40.5 -25q-17 0 -28.5 12.5t-19 29.5t-12.5 35.5t-8 30.5l-5.5 -33t-10 -41.5t-17 -36t-27.5 -15.5q-13 0 -23 20.5t-17 52t-11 69
t-6.5 73t-3.5 63t-1 38.5zM96 452q-6 -5 -10 -14t-8 -19.5t-8 -19.5t-10 -13l-8 10q3 6 7.5 18t10 24t12 21t14.5 9q3 0 8 -10t10 -23t10 -25.5t8 -16.5l-7 -11q-5 0 -9.5 9t-8.5 21t-6.5 23.5t-4.5 16.5z" />
    <glyph glyph-name="wdieresis" unicode="&#x1e85;" horiz-adv-x="309" 
d="M17 327l8 -8q0 -35 1 -75t5.5 -80t14.5 -78t29 -69h6q16 23 26 61t15.5 74.5t7.5 63t3 27.5l6 4l9 -9q-2 -12 -4 -25t-2 -24t2.5 -36.5t9.5 -51.5t17.5 -46t27.5 -20q20 0 35 23t24.5 54t14 61t4.5 45q0 18 -4.5 41.5t-14 44.5t-25.5 35.5t-39 14.5q-8 0 -15 -1.5
t-15 -2.5l-7 6q-1 1 -1 2q0 3 3.5 4.5t8 2t8 1t4.5 0.5q32 0 53 -12.5t33.5 -33t17.5 -47t5 -53.5q0 -16 -5 -49t-16 -66.5t-27.5 -58.5t-40.5 -25q-17 0 -28.5 12.5t-19 29.5t-12.5 35.5t-8 30.5l-5.5 -33t-10 -41.5t-17 -36t-27.5 -15.5q-13 0 -23 20.5t-17 52t-11 69
t-6.5 73t-3.5 63t-1 38.5zM74 400q-5 5 -7 15l7 5q6 0 11.5 -2.5t5.5 -10.5q0 -4 -3.5 -6t-6.5 -3zM134 412q-2 -4 -6 -8t-9 -4l-7 9q0 10 11 12z" />
    <glyph glyph-name="wgrave" unicode="&#x1e81;" horiz-adv-x="309" 
d="M17 327l8 -8q0 -35 1 -75t5.5 -80t14.5 -78t29 -69h6q16 23 26 61t15.5 74.5t7.5 63t3 27.5l6 4l9 -9q-2 -12 -4 -25t-2 -24t2.5 -36.5t9.5 -51.5t17.5 -46t27.5 -20q20 0 35 23t24.5 54t14 61t4.5 45q0 18 -4.5 41.5t-14 44.5t-25.5 35.5t-39 14.5q-8 0 -15 -1.5
t-15 -2.5l-7 6q-1 1 -1 2q0 3 3.5 4.5t8 2t8 1t4.5 0.5q32 0 53 -12.5t33.5 -33t17.5 -47t5 -53.5q0 -16 -5 -49t-16 -66.5t-27.5 -58.5t-40.5 -25q-17 0 -28.5 12.5t-19 29.5t-12.5 35.5t-8 30.5l-5.5 -33t-10 -41.5t-17 -36t-27.5 -15.5q-13 0 -23 20.5t-17 52t-11 69
t-6.5 73t-3.5 63t-1 38.5zM53 457l7 7q6 0 16.5 -11t22 -25.5t20 -28t9.5 -18.5l-7 -8q-3 1 -12.5 12t-20 24.5t-20.5 26t-15 17.5v4z" />
    <glyph glyph-name="yacute" unicode="&#xfd;" horiz-adv-x="220" 
d="M17 329l8 -7q0 -17 -0.5 -41.5t-0.5 -53.5q0 -27 0.5 -56t3 -55.5t6.5 -48.5t11 -35q6 1 15.5 23t20 54t21.5 70.5t20.5 73.5t17 62.5t11.5 38.5l6 3q6 -1 11 -18t8 -45t5 -63t2.5 -71t1 -70.5t0.5 -60.5v11l15 -2.5t11 -8.5l-9 -7l-16 3v-42.5t-2 -66.5t-6 -76.5
t-12.5 -72.5t-22 -54t-33.5 -21t-31.5 12.5t-18 30t-8.5 37t-2 33.5q0 28 6.5 66t21 74t37.5 63.5t56 33.5v83q0 51 -2.5 102t-12.5 97q-5 -11 -12 -38t-15.5 -61t-18.5 -71t-21 -67.5t-22 -50t-21 -19.5t-16.5 19.5t-10.5 50t-6 66.5t-2.5 70t-0.5 61v38zM121 -290
q20 29 30.5 69t15 83.5t4.5 86.5v78q-16 0 -30.5 -13t-27 -33t-22 -45t-16 -49.5t-10 -46t-3.5 -34.5q0 -11 2 -28t7.5 -32.5t15 -26.5t25.5 -11q3 0 9 2zM52 399l14.5 14.5l21.5 21.5t21 19.5t14 9.5l6 -6q0 -4 -9.5 -15t-21.5 -22.5t-23.5 -20.5t-15.5 -9l-7 8v0z" />
    <glyph glyph-name="ycircumflex" unicode="&#x177;" horiz-adv-x="220" 
d="M17 329l8 -7q0 -17 -0.5 -41.5t-0.5 -53.5q0 -27 0.5 -56t3 -55.5t6.5 -48.5t11 -35q6 1 15.5 23t20 54t21.5 70.5t20.5 73.5t17 62.5t11.5 38.5l6 3q6 -1 11 -18t8 -45t5 -63t2.5 -71t1 -70.5t0.5 -60.5v11l15 -2.5t11 -8.5l-9 -7l-16 3v-42.5t-2 -66.5t-6 -76.5
t-12.5 -72.5t-22 -54t-33.5 -21t-31.5 12.5t-18 30t-8.5 37t-2 33.5q0 28 6.5 66t21 74t37.5 63.5t56 33.5v83q0 51 -2.5 102t-12.5 97q-5 -11 -12 -38t-15.5 -61t-18.5 -71t-21 -67.5t-22 -50t-21 -19.5t-16.5 19.5t-10.5 50t-6 66.5t-2.5 70t-0.5 61v38zM121 -290
q20 29 30.5 69t15 83.5t4.5 86.5v78q-16 0 -30.5 -13t-27 -33t-22 -45t-16 -49.5t-10 -46t-3.5 -34.5q0 -11 2 -28t7.5 -32.5t15 -26.5t25.5 -11q3 0 9 2zM92 452q-6 -5 -10 -14t-8 -19.5t-8 -19.5t-10 -13l-8 10q3 6 7.5 18t10 24t12 21t14.5 9q3 0 8 -10t10 -23t10 -25.5
t8 -16.5l-7 -11q-5 0 -9.5 9t-8.5 21t-6.5 23.5t-4.5 16.5z" />
    <glyph glyph-name="ydieresis" unicode="&#xff;" horiz-adv-x="220" 
d="M17 329l8 -7q0 -17 -0.5 -41.5t-0.5 -53.5q0 -27 0.5 -56t3 -55.5t6.5 -48.5t11 -35q6 1 15.5 23t20 54t21.5 70.5t20.5 73.5t17 62.5t11.5 38.5l6 3q6 -1 11 -18t8 -45t5 -63t2.5 -71t1 -70.5t0.5 -60.5v11l15 -2.5t11 -8.5l-9 -7l-16 3v-42.5t-2 -66.5t-6 -76.5
t-12.5 -72.5t-22 -54t-33.5 -21t-31.5 12.5t-18 30t-8.5 37t-2 33.5q0 28 6.5 66t21 74t37.5 63.5t56 33.5v83q0 51 -2.5 102t-12.5 97q-5 -11 -12 -38t-15.5 -61t-18.5 -71t-21 -67.5t-22 -50t-21 -19.5t-16.5 19.5t-10.5 50t-6 66.5t-2.5 70t-0.5 61v38zM121 -290
q20 29 30.5 69t15 83.5t4.5 86.5v78q-16 0 -30.5 -13t-27 -33t-22 -45t-16 -49.5t-10 -46t-3.5 -34.5q0 -11 2 -28t7.5 -32.5t15 -26.5t25.5 -11q3 0 9 2zM62 400q-5 5 -7 15l7 5q6 0 11.5 -2.5t5.5 -10.5q0 -4 -3.5 -6t-6.5 -3zM122 412q-2 -4 -6 -8t-9 -4l-7 9q0 10 11 12
z" />
    <glyph glyph-name="ygrave" unicode="&#x1ef3;" horiz-adv-x="220" 
d="M17 329l8 -7q0 -17 -0.5 -41.5t-0.5 -53.5q0 -27 0.5 -56t3 -55.5t6.5 -48.5t11 -35q6 1 15.5 23t20 54t21.5 70.5t20.5 73.5t17 62.5t11.5 38.5l6 3q6 -1 11 -18t8 -45t5 -63t2.5 -71t1 -70.5t0.5 -60.5v11l15 -2.5t11 -8.5l-9 -7l-16 3v-42.5t-2 -66.5t-6 -76.5
t-12.5 -72.5t-22 -54t-33.5 -21t-31.5 12.5t-18 30t-8.5 37t-2 33.5q0 28 6.5 66t21 74t37.5 63.5t56 33.5v83q0 51 -2.5 102t-12.5 97q-5 -11 -12 -38t-15.5 -61t-18.5 -71t-21 -67.5t-22 -50t-21 -19.5t-16.5 19.5t-10.5 50t-6 66.5t-2.5 70t-0.5 61v38zM121 -290
q20 29 30.5 69t15 83.5t4.5 86.5v78q-16 0 -30.5 -13t-27 -33t-22 -45t-16 -49.5t-10 -46t-3.5 -34.5q0 -11 2 -28t7.5 -32.5t15 -26.5t25.5 -11q3 0 9 2zM46 457l7 7q6 0 16.5 -11t22 -25.5t20 -28t9.5 -18.5l-7 -8q-3 1 -12.5 12t-20 24.5t-20.5 26t-15 17.5v4z" />
    <glyph glyph-name="zacute" unicode="&#x17a;" horiz-adv-x="220" 
d="M49 341q-13 0 -20.5 -3.5t-18.5 -5.5l-8 7q0 5 5.5 8.5t13 5t14.5 2t11 0.5q16 0 36 -1t38 -6.5t30 -17.5t12 -34q0 -23 -18.5 -53.5t-41 -65t-41 -70t-18.5 -67.5q0 -11 4.5 -19t17.5 -8q15 0 33 10t36 23.5t35.5 26.5t32.5 20l8 -7l-4 -7q-18 -8 -35 -21.5t-33.5 -26.5
t-35 -22t-39.5 -9q-19 0 -28 10.5t-9 28.5q0 33 18.5 66.5t41 66.5t41.5 65t19 62q0 16 -11 24.5t-27 12.5t-32.5 4.5t-26.5 0.5zM46 399l14.5 14.5l21.5 21.5t21 19.5t14 9.5l6 -6q0 -4 -9.5 -15t-21.5 -22.5t-23.5 -20.5t-15.5 -9l-7 8v0z" />
    <glyph glyph-name="zcaron" unicode="&#x17e;" horiz-adv-x="220" 
d="M49 341q-13 0 -20.5 -3.5t-18.5 -5.5l-8 7q0 5 5.5 8.5t13 5t14.5 2t11 0.5q16 0 36 -1t38 -6.5t30 -17.5t12 -34q0 -23 -18.5 -53.5t-41 -65t-41 -70t-18.5 -67.5q0 -11 4.5 -19t17.5 -8q15 0 33 10t36 23.5t35.5 26.5t32.5 20l8 -7l-4 -7q-18 -8 -35 -21.5t-33.5 -26.5
t-35 -22t-39.5 -9q-19 0 -28 10.5t-9 28.5q0 33 18.5 66.5t41 66.5t41.5 65t19 62q0 16 -11 24.5t-27 12.5t-32.5 4.5t-26.5 0.5zM66 441q4 0 6 -5.5t3.5 -11.5t3 -11t4.5 -5q1 3 3.5 13.5t5.5 21.5t6.5 19.5t6.5 8.5l7 -8q-1 -4 -4 -16.5t-7 -25.5t-9 -23t-9 -10q-3 0 -7 6
t-7.5 14.5t-6 16l-3.5 10.5z" />
    <glyph glyph-name="zdotaccent" unicode="&#x17c;" horiz-adv-x="220" 
d="M49 341q-13 0 -20.5 -3.5t-18.5 -5.5l-8 7q0 5 5.5 8.5t13 5t14.5 2t11 0.5q16 0 36 -1t38 -6.5t30 -17.5t12 -34q0 -23 -18.5 -53.5t-41 -65t-41 -70t-18.5 -67.5q0 -11 4.5 -19t17.5 -8q15 0 33 10t36 23.5t35.5 26.5t32.5 20l8 -7l-4 -7q-18 -8 -35 -21.5t-33.5 -26.5
t-35 -22t-39.5 -9q-19 0 -28 10.5t-9 28.5q0 33 18.5 66.5t41 66.5t41.5 65t19 62q0 16 -11 24.5t-27 12.5t-32.5 4.5t-26.5 0.5zM75 400q-5 5 -7 15l7 5q6 0 11.5 -2.5t5.5 -10.5q0 -4 -3.5 -6t-6.5 -3l-7 2v0z" />
    <glyph glyph-name="Agrave" unicode="&#xc0;" horiz-adv-x="356" 
d="M8 148l7 8q9 0 27 4t36.5 9.5t32.5 9.5l14 4q0 12 1 40t3.5 63.5t7 73.5t12 69.5t18.5 52t26 20.5q13 0 23 -16.5t17.5 -42.5t12 -57.5t7.5 -60.5t4.5 -52.5t1.5 -33.5q15 6 30.5 12.5t32.5 6.5l6 -7q-1 -3 -10 -7t-20 -8t-21.5 -7t-14.5 -4q2 -20 7 -60.5t12.5 -84
t17 -81t20.5 -51.5q5 -7 15 -11.5t12 -12.5l-7 -7q-15 0 -27.5 19t-22.5 48.5t-17.5 65.5t-12.5 69.5t-8 61t-4 39.5q-27 -11 -54 -22.5t-54 -22.5v-175q0 -4 -2 -16.5t-8 -12.5t-7.5 9t-1.5 15q0 43 2 86.5t2 86.5q-26 -10 -53 -17.5t-55 -10.5zM195 484q-11 0 -19.5 -19
t-14.5 -49t-10 -65.5t-6.5 -68t-3.5 -58.5t-1 -35q27 11 53 23t53 23q-1 9 -2.5 30.5t-4.5 49.5t-7 57.5t-9.5 54.5t-12.5 41t-15 16zM140 615l7 7q6 0 16.5 -11t22 -25.5t20 -28t9.5 -18.5l-7 -8q-3 1 -12.5 12t-20 24.5t-20.5 26t-15 17.5v4z" />
    <glyph glyph-name="Aacute" unicode="&#xc1;" horiz-adv-x="356" 
d="M8 148l7 8q9 0 27 4t36.5 9.5t32.5 9.5l14 4q0 12 1 40t3.5 63.5t7 73.5t12 69.5t18.5 52t26 20.5q13 0 23 -16.5t17.5 -42.5t12 -57.5t7.5 -60.5t4.5 -52.5t1.5 -33.5q15 6 30.5 12.5t32.5 6.5l6 -7q-1 -3 -10 -7t-20 -8t-21.5 -7t-14.5 -4q2 -20 7 -60.5t12.5 -84
t17 -81t20.5 -51.5q5 -7 15 -11.5t12 -12.5l-7 -7q-15 0 -27.5 19t-22.5 48.5t-17.5 65.5t-12.5 69.5t-8 61t-4 39.5q-27 -11 -54 -22.5t-54 -22.5v-175q0 -4 -2 -16.5t-8 -12.5t-7.5 9t-1.5 15q0 43 2 86.5t2 86.5q-26 -10 -53 -17.5t-55 -10.5zM195 484q-11 0 -19.5 -19
t-14.5 -49t-10 -65.5t-6.5 -68t-3.5 -58.5t-1 -35q27 11 53 23t53 23q-1 9 -2.5 30.5t-4.5 49.5t-7 57.5t-9.5 54.5t-12.5 41t-15 16zM139 557l14.5 14.5l21.5 21.5t21 19.5t14 9.5l6 -6q0 -4 -9.5 -15t-21.5 -22.5t-23.5 -20.5t-15.5 -9l-7 8v0z" />
    <glyph glyph-name="Acircumflex" unicode="&#xc2;" horiz-adv-x="356" 
d="M8 148l7 8q9 0 27 4t36.5 9.5t32.5 9.5l14 4q0 12 1 40t3.5 63.5t7 73.5t12 69.5t18.5 52t26 20.5q13 0 23 -16.5t17.5 -42.5t12 -57.5t7.5 -60.5t4.5 -52.5t1.5 -33.5q15 6 30.5 12.5t32.5 6.5l6 -7q-1 -3 -10 -7t-20 -8t-21.5 -7t-14.5 -4q2 -20 7 -60.5t12.5 -84
t17 -81t20.5 -51.5q5 -7 15 -11.5t12 -12.5l-7 -7q-15 0 -27.5 19t-22.5 48.5t-17.5 65.5t-12.5 69.5t-8 61t-4 39.5q-27 -11 -54 -22.5t-54 -22.5v-175q0 -4 -2 -16.5t-8 -12.5t-7.5 9t-1.5 15q0 43 2 86.5t2 86.5q-26 -10 -53 -17.5t-55 -10.5zM195 484q-11 0 -19.5 -19
t-14.5 -49t-10 -65.5t-6.5 -68t-3.5 -58.5t-1 -35q27 11 53 23t53 23q-1 9 -2.5 30.5t-4.5 49.5t-7 57.5t-9.5 54.5t-12.5 41t-15 16zM182 610q-6 -5 -10 -14t-8 -19.5t-8 -19.5t-10 -13l-8 10q3 6 7.5 18t10 24t12 21t14.5 9q3 0 8 -10t10 -23t10 -25.5t8 -16.5l-7 -11
q-5 0 -9.5 9t-8.5 21t-6.5 23.5t-4.5 16.5z" />
    <glyph glyph-name="Atilde" unicode="&#xc3;" horiz-adv-x="356" 
d="M8 148l7 8q9 0 27 4t36.5 9.5t32.5 9.5l14 4q0 12 1 40t3.5 63.5t7 73.5t12 69.5t18.5 52t26 20.5q13 0 23 -16.5t17.5 -42.5t12 -57.5t7.5 -60.5t4.5 -52.5t1.5 -33.5q15 6 30.5 12.5t32.5 6.5l6 -7q-1 -3 -10 -7t-20 -8t-21.5 -7t-14.5 -4q2 -20 7 -60.5t12.5 -84
t17 -81t20.5 -51.5q5 -7 15 -11.5t12 -12.5l-7 -7q-15 0 -27.5 19t-22.5 48.5t-17.5 65.5t-12.5 69.5t-8 61t-4 39.5q-27 -11 -54 -22.5t-54 -22.5v-175q0 -4 -2 -16.5t-8 -12.5t-7.5 9t-1.5 15q0 43 2 86.5t2 86.5q-26 -10 -53 -17.5t-55 -10.5zM195 484q-11 0 -19.5 -19
t-14.5 -49t-10 -65.5t-6.5 -68t-3.5 -58.5t-1 -35q27 11 53 23t53 23q-1 9 -2.5 30.5t-4.5 49.5t-7 57.5t-9.5 54.5t-12.5 41t-15 16zM132 549l-7 8q1 6 4.5 16t9 19.5t12 17t13.5 7.5q6 0 11.5 -7.5t10 -17.5t8 -20t5.5 -14h1q7 11 12.5 21.5t10.5 21.5l8 -7q-1 -7 -3 -16
t-6.5 -16.5t-11 -13t-15.5 -5.5l-6 4q-8 13 -12 27.5t-14 26.5q-4 -1 -8 -7t-7 -13.5t-5.5 -14.5t-2.5 -11z" />
    <glyph glyph-name="Adieresis" unicode="&#xc4;" horiz-adv-x="356" 
d="M8 148l7 8q9 0 27 4t36.5 9.5t32.5 9.5l14 4q0 12 1 40t3.5 63.5t7 73.5t12 69.5t18.5 52t26 20.5q13 0 23 -16.5t17.5 -42.5t12 -57.5t7.5 -60.5t4.5 -52.5t1.5 -33.5q15 6 30.5 12.5t32.5 6.5l6 -7q-1 -3 -10 -7t-20 -8t-21.5 -7t-14.5 -4q2 -20 7 -60.5t12.5 -84
t17 -81t20.5 -51.5q5 -7 15 -11.5t12 -12.5l-7 -7q-15 0 -27.5 19t-22.5 48.5t-17.5 65.5t-12.5 69.5t-8 61t-4 39.5q-27 -11 -54 -22.5t-54 -22.5v-175q0 -4 -2 -16.5t-8 -12.5t-7.5 9t-1.5 15q0 43 2 86.5t2 86.5q-26 -10 -53 -17.5t-55 -10.5zM195 484q-11 0 -19.5 -19
t-14.5 -49t-10 -65.5t-6.5 -68t-3.5 -58.5t-1 -35q27 11 53 23t53 23q-1 9 -2.5 30.5t-4.5 49.5t-7 57.5t-9.5 54.5t-12.5 41t-15 16zM151 558q-5 5 -7 15l7 5q6 0 11.5 -2.5t5.5 -10.5q0 -4 -3.5 -6t-6.5 -3zM211 570q-2 -4 -6 -8t-9 -4l-7 9q0 10 11 12z" />
    <glyph glyph-name="Aring" unicode="&#xc5;" horiz-adv-x="356" 
d="M8 148l7 8q9 0 27 4t36.5 9.5t32.5 9.5l14 4q0 12 1 40t3.5 63.5t7 73.5t12 69.5t18.5 52t26 20.5q13 0 23 -16.5t17.5 -42.5t12 -57.5t7.5 -60.5t4.5 -52.5t1.5 -33.5q15 6 30.5 12.5t32.5 6.5l6 -7q-1 -3 -10 -7t-20 -8t-21.5 -7t-14.5 -4q2 -20 7 -60.5t12.5 -84
t17 -81t20.5 -51.5q5 -7 15 -11.5t12 -12.5l-7 -7q-15 0 -27.5 19t-22.5 48.5t-17.5 65.5t-12.5 69.5t-8 61t-4 39.5q-27 -11 -54 -22.5t-54 -22.5v-175q0 -4 -2 -16.5t-8 -12.5t-7.5 9t-1.5 15q0 43 2 86.5t2 86.5q-26 -10 -53 -17.5t-55 -10.5zM195 484q-11 0 -19.5 -19
t-14.5 -49t-10 -65.5t-6.5 -68t-3.5 -58.5t-1 -35q27 11 53 23t53 23q-1 9 -2.5 30.5t-4.5 49.5t-7 57.5t-9.5 54.5t-12.5 41t-15 16zM170 605q14 0 29 -6t15 -23q0 -19 -18 -27.5t-33 -8.5q-11 0 -16.5 8t-5.5 19q0 13 7 25.5t22 12.5zM165 553q10 0 23.5 6t13.5 18
q0 11 -11.5 13.5t-19.5 2.5t-12 -10t-4 -16q0 -5 3.5 -8.5t6.5 -5.5z" />
    <glyph glyph-name="AE" unicode="&#xc6;" horiz-adv-x="471" 
d="M252 252q0 57 5 114t5 115h-17l-8 7l7 7q46 2 91.5 6.5t91.5 10.5l7 -7q-2 -5 -23.5 -9t-49 -7t-52.5 -5t-33 -3q0 -54 -3.5 -106.5t-5.5 -106.5q29 5 59 9t59 10l8 -6q-2 -5 -19.5 -9.5t-39 -8t-41.5 -6t-27 -3.5v-39t2 -51.5t7 -55t15 -50t25.5 -36.5t39.5 -14
q26 0 51 12t46 27l4 1l7 -7l-4 -7q-21 -16 -46 -27.5t-52 -11.5q-28 0 -46.5 14t-31 36t-19 50t-9 57t-3 55t-0.5 45zM193 502q14 0 24 -16.5t17 -42.5t11.5 -57.5t7.5 -60.5t4 -52.5t2 -33.5q1 -13 4 -37t7 -53.5t10 -61.5t12 -60t13 -49t14 -30q5 -7 15 -11.5t12 -12.5
l-7 -7q-15 0 -27.5 19t-22.5 48.5t-17.5 65.5t-12.5 69.5t-8 60.5t-4 40q-27 -11 -54 -22.5t-54 -22.5v-175q0 -5 -2 -17t-8 -12t-7.5 9t-1.5 15q0 43 2 86.5t2 86.5q-26 -10 -53 -17.5t-55 -10.5l-8 8l7 8q8 0 26 4t36.5 9.5t33 9.5l14.5 4q0 12 1 40t3.5 63.5t7 73.5
t12 69.5t18.5 52t26 20.5zM195 484q-11 0 -19.5 -19t-14.5 -49t-10 -65.5t-6.5 -68t-3.5 -58.5t-1 -35q27 11 53 23t53 23q-1 9 -2.5 30.5t-4.5 49.5t-7 57.5t-9.5 54.5t-12.5 41t-15 16z" />
    <glyph glyph-name="Ccedilla" unicode="&#xc7;" horiz-adv-x="274" 
d="M188 302q-3 1 -4.5 15t-3.5 35t-5 45t-9 44.5t-16 34.5t-26 14q-20 0 -36 -15t-27.5 -38.5t-19.5 -52.5t-13.5 -57.5t-7.5 -53t-2 -38.5q0 -35 6 -75.5t22.5 -75.5t45 -58.5t72.5 -23.5q33 0 48.5 14t22 32t8.5 33.5t8 18.5l8 -8q-3 -21 -9 -40t-17.5 -33.5t-28.5 -23.5
t-41 -9q-50 0 -81 25.5t-48 63.5t-23 82.5t-6 82.5q0 27 5.5 71.5t20 87t38.5 73.5t61 31q16 0 27.5 -11.5t18 -29.5t10.5 -40t5.5 -43.5t2 -40t1.5 -29.5zM136 0l8 -7q0 -6 -0.5 -13t-0.5 -14q0 -12 5 -18.5t11.5 -12t11.5 -10.5t5 -14q0 -13 -15 -24t-24 -16l-7 8
q0 3 5 5.5t10.5 5.5t10.5 7.5t5 12.5q0 7 -5.5 11.5t-11.5 9t-11.5 12t-5.5 22.5q0 7 0.5 14t1.5 14z" />
    <glyph glyph-name="Egrave" unicode="&#xc8;" 
d="M7 259l7 7h5q2 54 5.5 107.5t3.5 107.5h-17l-8 7l7 7q46 2 91.5 6.5t91.5 10.5l7 -7q-2 -5 -23.5 -9t-49 -7t-52.5 -5t-33 -3q0 -54 -3.5 -106.5t-5.5 -106.5q29 5 59 9t59 10l8 -6q-2 -5 -19.5 -9.5t-39 -8t-41.5 -6t-27 -3.5v-39t2 -51.5t7 -55t15 -50t25.5 -36.5
t39.5 -14q26 0 51 12t46 27l4 1l7 -7l-4 -7q-21 -16 -46 -27.5t-52 -11.5q-28 0 -46.5 14t-31 36t-19 50t-9 57t-3 55t-0.5 45h-3zM80 615l7 7q6 0 16.5 -11t22 -25.5t20 -28t9.5 -18.5l-7 -8q-3 1 -12.5 12t-20 24.5t-20.5 26t-15 17.5v4z" />
    <glyph glyph-name="Eacute" unicode="&#xc9;" 
d="M7 259l7 7h5q2 54 5.5 107.5t3.5 107.5h-17l-8 7l7 7q46 2 91.5 6.5t91.5 10.5l7 -7q-2 -5 -23.5 -9t-49 -7t-52.5 -5t-33 -3q0 -54 -3.5 -106.5t-5.5 -106.5q29 5 59 9t59 10l8 -6q-2 -5 -19.5 -9.5t-39 -8t-41.5 -6t-27 -3.5v-39t2 -51.5t7 -55t15 -50t25.5 -36.5
t39.5 -14q26 0 51 12t46 27l4 1l7 -7l-4 -7q-21 -16 -46 -27.5t-52 -11.5q-28 0 -46.5 14t-31 36t-19 50t-9 57t-3 55t-0.5 45h-3zM79 557l14.5 14.5l21.5 21.5t21 19.5t14 9.5l6 -6q0 -4 -9.5 -15t-21.5 -22.5t-23.5 -20.5t-15.5 -9l-7 8v0z" />
    <glyph glyph-name="Ecircumflex" unicode="&#xca;" 
d="M7 259l7 7h5q2 54 5.5 107.5t3.5 107.5h-17l-8 7l7 7q46 2 91.5 6.5t91.5 10.5l7 -7q-2 -5 -23.5 -9t-49 -7t-52.5 -5t-33 -3q0 -54 -3.5 -106.5t-5.5 -106.5q29 5 59 9t59 10l8 -6q-2 -5 -19.5 -9.5t-39 -8t-41.5 -6t-27 -3.5v-39t2 -51.5t7 -55t15 -50t25.5 -36.5
t39.5 -14q26 0 51 12t46 27l4 1l7 -7l-4 -7q-21 -16 -46 -27.5t-52 -11.5q-28 0 -46.5 14t-31 36t-19 50t-9 57t-3 55t-0.5 45h-3zM122 610q-6 -5 -10 -14t-8 -19.5t-8 -19.5t-10 -13l-8 10q3 6 7.5 18t10 24t12 21t14.5 9q3 0 8 -10t10 -23t10 -25.5t8 -16.5l-7 -11
q-5 0 -9.5 9t-8.5 21t-6.5 23.5t-4.5 16.5z" />
    <glyph glyph-name="Edieresis" unicode="&#xcb;" 
d="M7 259l7 7h5q2 54 5.5 107.5t3.5 107.5h-17l-8 7l7 7q46 2 91.5 6.5t91.5 10.5l7 -7q-2 -5 -23.5 -9t-49 -7t-52.5 -5t-33 -3q0 -54 -3.5 -106.5t-5.5 -106.5q29 5 59 9t59 10l8 -6q-2 -5 -19.5 -9.5t-39 -8t-41.5 -6t-27 -3.5v-39t2 -51.5t7 -55t15 -50t25.5 -36.5
t39.5 -14q26 0 51 12t46 27l4 1l7 -7l-4 -7q-21 -16 -46 -27.5t-52 -11.5q-28 0 -46.5 14t-31 36t-19 50t-9 57t-3 55t-0.5 45h-3zM91 558q-5 5 -7 15l7 5q6 0 11.5 -2.5t5.5 -10.5q0 -4 -3.5 -6t-6.5 -3zM151 570q-2 -4 -6 -8t-9 -4l-7 9q0 10 11 12z" />
    <glyph glyph-name="Igrave" unicode="&#xcc;" horiz-adv-x="100" 
d="M36 472l7 -8q2 -27 2 -54v-54v-116q0 -67 4 -132.5t19 -128.5l-5 -9q-11 1 -17 27t-9.5 68t-4.5 95t-1.5 107.5t-0.5 106t-1 90.5zM13 615l7 7q6 0 16.5 -11t22 -25.5t20 -28t9.5 -18.5l-7 -8q-3 1 -12.5 12t-20 24.5t-20.5 26t-15 17.5v4z" />
    <glyph glyph-name="Iacute" unicode="&#xcd;" horiz-adv-x="100" 
d="M36 472l7 -8q2 -27 2 -54v-54v-116q0 -67 4 -132.5t19 -128.5l-5 -9q-11 1 -17 27t-9.5 68t-4.5 95t-1.5 107.5t-0.5 106t-1 90.5zM11 557l14.5 14.5l21.5 21.5t21 19.5t14 9.5l6 -6q0 -4 -9.5 -15t-21.5 -22.5t-23.5 -20.5t-15.5 -9l-7 8v0z" />
    <glyph glyph-name="Icircumflex" unicode="&#xce;" horiz-adv-x="100" 
d="M36 472l7 -8q2 -27 2 -54v-54v-116q0 -67 4 -132.5t19 -128.5l-5 -9q-11 1 -17 27t-9.5 68t-4.5 95t-1.5 107.5t-0.5 106t-1 90.5zM39 610q-6 -5 -10 -14t-8 -19.5t-8 -19.5t-10 -13l-8 10q3 6 7.5 18t10 24t12 21t14.5 9q3 0 8 -10t10 -23t10 -25.5t8 -16.5l-7 -11
q-5 0 -9.5 9t-8.5 21t-6.5 23.5t-4.5 16.5z" />
    <glyph glyph-name="Idieresis" unicode="&#xcf;" horiz-adv-x="100" 
d="M36 472l7 -8q2 -27 2 -54v-54v-116q0 -67 4 -132.5t19 -128.5l-5 -9q-11 1 -17 27t-9.5 68t-4.5 95t-1.5 107.5t-0.5 106t-1 90.5zM23 558q-5 5 -7 15l7 5q6 0 11.5 -2.5t5.5 -10.5q0 -4 -3.5 -6t-6.5 -3zM83 570q-2 -4 -6 -8t-9 -4l-7 9q0 10 11 12z" />
    <glyph glyph-name="Ntilde" unicode="&#xd1;" horiz-adv-x="260" 
d="M13 406l8 -7q2 -77 11 -152t14 -152q3 14 9.5 47t16.5 74t22 85t26 80.5t29.5 60t32.5 23.5q9 0 15.5 -14t11 -36t6.5 -48t3.5 -50t2 -43.5t0.5 -26.5q4 -80 13.5 -152.5t39.5 -148.5v-4l-7 -7l-6 5q-15 39 -24.5 76.5t-15.5 75t-9 75.5t-5 80q0 7 -0.5 24t-1 39t-2 45.5
t-5 43t-8 32t-11.5 12.5q-13 0 -27 -26t-27.5 -66t-25.5 -88.5t-22.5 -93t-18 -79.5l-10.5 -49l-8 -6l-8 5l1 2q-2 15 -3 30t-1 30q0 75 -10.5 148.5t-12.5 148.5zM84 549l-7 8q1 6 4.5 16t9 19.5t12 17t13.5 7.5q6 0 11.5 -7.5t10 -17.5t8 -20t5.5 -14h1q7 11 12.5 21.5
t10.5 21.5l8 -7q-1 -7 -3 -16t-6.5 -16.5t-11 -13t-15.5 -5.5l-6 4q-8 13 -12 27.5t-14 26.5q-4 -1 -8 -7t-7 -13.5t-5.5 -14.5t-2.5 -11z" />
    <glyph glyph-name="Ograve" unicode="&#xd2;" horiz-adv-x="200" 
d="M111 453l-7 -7q-2 0 -3.5 0.5t-3.5 0.5q-17 -2 -29.5 -17t-21 -37.5t-14.5 -49t-9 -52t-4 -47t-1 -33.5q0 -17 2.5 -48.5t11 -63t23.5 -55t39 -23.5q25 0 40.5 24.5t24 57.5t11.5 66t3 50q0 25 -3 54.5t-11.5 58t-23.5 52t-40 37.5l-1 5l8 7q26 -6 42.5 -33t25.5 -62
t12.5 -70t3.5 -56q0 -20 -3.5 -55t-14 -69t-29 -58.5t-47.5 -24.5t-46 27t-26 63.5t-12 73t-3 55.5q0 12 1.5 35t5.5 49.5t10.5 54t17 50t24.5 36.5t33 14q2 0 4.5 -1t4.5 -2zM50 587l7 7q6 0 16.5 -11t22 -25.5t20 -28t9.5 -18.5l-7 -8q-3 1 -12.5 12t-20 24.5t-20.5 26
t-15 17.5v4z" />
    <glyph glyph-name="Oacute" unicode="&#xd3;" horiz-adv-x="200" 
d="M111 453l-7 -7q-2 0 -3.5 0.5t-3.5 0.5q-17 -2 -29.5 -17t-21 -37.5t-14.5 -49t-9 -52t-4 -47t-1 -33.5q0 -17 2.5 -48.5t11 -63t23.5 -55t39 -23.5q25 0 40.5 24.5t24 57.5t11.5 66t3 50q0 25 -3 54.5t-11.5 58t-23.5 52t-40 37.5l-1 5l8 7q26 -6 42.5 -33t25.5 -62
t12.5 -70t3.5 -56q0 -20 -3.5 -55t-14 -69t-29 -58.5t-47.5 -24.5t-46 27t-26 63.5t-12 73t-3 55.5q0 12 1.5 35t5.5 49.5t10.5 54t17 50t24.5 36.5t33 14q2 0 4.5 -1t4.5 -2zM48 520l14.5 14.5l21.5 21.5t21 19.5t14 9.5l6 -6q0 -4 -9.5 -15t-21.5 -22.5t-23.5 -20.5
t-15.5 -9l-7 8v0z" />
    <glyph glyph-name="Ocircumflex" unicode="&#xd4;" horiz-adv-x="200" 
d="M111 453l-7 -7q-2 0 -3.5 0.5t-3.5 0.5q-17 -2 -29.5 -17t-21 -37.5t-14.5 -49t-9 -52t-4 -47t-1 -33.5q0 -17 2.5 -48.5t11 -63t23.5 -55t39 -23.5q25 0 40.5 24.5t24 57.5t11.5 66t3 50q0 25 -3 54.5t-11.5 58t-23.5 52t-40 37.5l-1 5l8 7q26 -6 42.5 -33t25.5 -62
t12.5 -70t3.5 -56q0 -20 -3.5 -55t-14 -69t-29 -58.5t-47.5 -24.5t-46 27t-26 63.5t-12 73t-3 55.5q0 12 1.5 35t5.5 49.5t10.5 54t17 50t24.5 36.5t33 14q2 0 4.5 -1t4.5 -2zM101 592q-6 -5 -10 -14t-8 -19.5t-8 -19.5t-10 -13l-8 10q3 6 7.5 18t10 24t12 21t14.5 9
q3 0 8 -10t10 -23t10 -25.5t8 -16.5l-7 -11q-5 0 -9.5 9t-8.5 21t-6.5 23.5t-4.5 16.5z" />
    <glyph glyph-name="Otilde" unicode="&#xd5;" horiz-adv-x="200" 
d="M111 453l-7 -7q-2 0 -3.5 0.5t-3.5 0.5q-17 -2 -29.5 -17t-21 -37.5t-14.5 -49t-9 -52t-4 -47t-1 -33.5q0 -17 2.5 -48.5t11 -63t23.5 -55t39 -23.5q25 0 40.5 24.5t24 57.5t11.5 66t3 50q0 25 -3 54.5t-11.5 58t-23.5 52t-40 37.5l-1 5l8 7q26 -6 42.5 -33t25.5 -62
t12.5 -70t3.5 -56q0 -20 -3.5 -55t-14 -69t-29 -58.5t-47.5 -24.5t-46 27t-26 63.5t-12 73t-3 55.5q0 12 1.5 35t5.5 49.5t10.5 54t17 50t24.5 36.5t33 14q2 0 4.5 -1t4.5 -2zM44 515l-7 8q1 6 4.5 16t9 19.5t12 17t13.5 7.5q6 0 11.5 -7.5t10 -17.5t8 -20t5.5 -14h1
q7 11 12.5 21.5t10.5 21.5l8 -7q-1 -7 -3 -16t-6.5 -16.5t-11 -13t-15.5 -5.5l-6 4q-8 13 -12 27.5t-14 26.5q-4 -1 -8 -7t-7 -13.5t-5.5 -14.5t-2.5 -11z" />
    <glyph glyph-name="Odieresis" unicode="&#xd6;" horiz-adv-x="200" 
d="M111 453l-7 -7q-2 0 -3.5 0.5t-3.5 0.5q-17 -2 -29.5 -17t-21 -37.5t-14.5 -49t-9 -52t-4 -47t-1 -33.5q0 -17 2.5 -48.5t11 -63t23.5 -55t39 -23.5q25 0 40.5 24.5t24 57.5t11.5 66t3 50q0 25 -3 54.5t-11.5 58t-23.5 52t-40 37.5l-1 5l8 7q26 -6 42.5 -33t25.5 -62
t12.5 -70t3.5 -56q0 -20 -3.5 -55t-14 -69t-29 -58.5t-47.5 -24.5t-46 27t-26 63.5t-12 73t-3 55.5q0 12 1.5 35t5.5 49.5t10.5 54t17 50t24.5 36.5t33 14q2 0 4.5 -1t4.5 -2zM66 524q-5 5 -7 15l7 5q6 0 11.5 -2.5t5.5 -10.5q0 -4 -3.5 -6t-6.5 -3zM126 536q-2 -4 -6 -8
t-9 -4l-7 9q0 10 11 12z" />
    <glyph glyph-name="Oslash" unicode="&#xd8;" horiz-adv-x="200" 
d="M111 453l-7 -7q-2 0 -3.5 0.5t-3.5 0.5q-17 -2 -29.5 -17t-21 -37.5t-14.5 -49t-9 -52t-4 -47t-1 -33.5q0 -17 2.5 -48.5t11 -63t23.5 -55t39 -23.5q25 0 40.5 24.5t24 57.5t11.5 66t3 50q0 25 -3 54.5t-11.5 58t-23.5 52t-40 37.5l-1 5l8 7q26 -6 42.5 -33t25.5 -62
t12.5 -70t3.5 -56q0 -20 -3.5 -55t-14 -69t-29 -58.5t-47.5 -24.5t-46 27t-26 63.5t-12 73t-3 55.5q0 12 1.5 35t5.5 49.5t10.5 54t17 50t24.5 36.5t33 14q2 0 4.5 -1t4.5 -2zM195 482l7 -6v-3q-27 -64 -54 -128.5t-52 -129.5t-46.5 -131t-37.5 -134l-8 -6l-7 8
q32 137 85 267.5t107 260.5z" />
    <glyph glyph-name="Ugrave" unicode="&#xd9;" horiz-adv-x="253" 
d="M44 464l7 -7q-3 -84 -15 -167t-12 -168q0 -11 1 -31t5.5 -40t13 -35t24.5 -15q11 0 24.5 13.5t26 34t24.5 46t21 50t14.5 44.5t5.5 31q0 9 -0.5 29.5t-0.5 46.5q0 35 1 75t5 74.5t10.5 57.5t18.5 23q7 0 11 -7.5t6 -18t2.5 -20.5t0.5 -14q0 -30 -6.5 -67.5t-14 -73
t-13.5 -64.5t-6 -44q0 -94 15 -185q3 -19 10 -42.5t7 -41.5q0 -2 -1.5 -5t-4.5 -3q-7 0 -12 13t-9.5 34t-7.5 46.5t-5 51.5t-3.5 48.5t-1.5 37.5q-6 -18 -16 -49t-25 -61.5t-34 -52.5t-43 -22q-20 0 -31.5 19t-17 44.5t-7 51t-1.5 39.5q0 81 11 158.5t15 158.5zM219 505
q-11 -21 -14.5 -50t-4.5 -60.5t-0.5 -62.5t-1.5 -55q11 43 18.5 86t7.5 88q0 14 -1 27t-4 27zM89 615l7 7q6 0 16.5 -11t22 -25.5t20 -28t9.5 -18.5l-7 -8q-3 1 -12.5 12t-20 24.5t-20.5 26t-15 17.5v4z" />
    <glyph glyph-name="Uacute" unicode="&#xda;" horiz-adv-x="253" 
d="M44 464l7 -7q-3 -84 -15 -167t-12 -168q0 -11 1 -31t5.5 -40t13 -35t24.5 -15q11 0 24.5 13.5t26 34t24.5 46t21 50t14.5 44.5t5.5 31q0 9 -0.5 29.5t-0.5 46.5q0 35 1 75t5 74.5t10.5 57.5t18.5 23q7 0 11 -7.5t6 -18t2.5 -20.5t0.5 -14q0 -30 -6.5 -67.5t-14 -73
t-13.5 -64.5t-6 -44q0 -94 15 -185q3 -19 10 -42.5t7 -41.5q0 -2 -1.5 -5t-4.5 -3q-7 0 -12 13t-9.5 34t-7.5 46.5t-5 51.5t-3.5 48.5t-1.5 37.5q-6 -18 -16 -49t-25 -61.5t-34 -52.5t-43 -22q-20 0 -31.5 19t-17 44.5t-7 51t-1.5 39.5q0 81 11 158.5t15 158.5zM219 505
q-11 -21 -14.5 -50t-4.5 -60.5t-0.5 -62.5t-1.5 -55q11 43 18.5 86t7.5 88q0 14 -1 27t-4 27zM88 557l14.5 14.5l21.5 21.5t21 19.5t14 9.5l6 -6q0 -4 -9.5 -15t-21.5 -22.5t-23.5 -20.5t-15.5 -9l-7 8v0z" />
    <glyph glyph-name="Ucircumflex" unicode="&#xdb;" horiz-adv-x="253" 
d="M44 464l7 -7q-3 -84 -15 -167t-12 -168q0 -11 1 -31t5.5 -40t13 -35t24.5 -15q11 0 24.5 13.5t26 34t24.5 46t21 50t14.5 44.5t5.5 31q0 9 -0.5 29.5t-0.5 46.5q0 35 1 75t5 74.5t10.5 57.5t18.5 23q7 0 11 -7.5t6 -18t2.5 -20.5t0.5 -14q0 -30 -6.5 -67.5t-14 -73
t-13.5 -64.5t-6 -44q0 -94 15 -185q3 -19 10 -42.5t7 -41.5q0 -2 -1.5 -5t-4.5 -3q-7 0 -12 13t-9.5 34t-7.5 46.5t-5 51.5t-3.5 48.5t-1.5 37.5q-6 -18 -16 -49t-25 -61.5t-34 -52.5t-43 -22q-20 0 -31.5 19t-17 44.5t-7 51t-1.5 39.5q0 81 11 158.5t15 158.5zM219 505
q-11 -21 -14.5 -50t-4.5 -60.5t-0.5 -62.5t-1.5 -55q11 43 18.5 86t7.5 88q0 14 -1 27t-4 27zM130 610q-6 -5 -10 -14t-8 -19.5t-8 -19.5t-10 -13l-8 10q3 6 7.5 18t10 24t12 21t14.5 9q3 0 8 -10t10 -23t10 -25.5t8 -16.5l-7 -11q-5 0 -9.5 9t-8.5 21t-6.5 23.5t-4.5 16.5z
" />
    <glyph glyph-name="Udieresis" unicode="&#xdc;" horiz-adv-x="253" 
d="M44 464l7 -7q-3 -84 -15 -167t-12 -168q0 -11 1 -31t5.5 -40t13 -35t24.5 -15q11 0 24.5 13.5t26 34t24.5 46t21 50t14.5 44.5t5.5 31q0 9 -0.5 29.5t-0.5 46.5q0 35 1 75t5 74.5t10.5 57.5t18.5 23q7 0 11 -7.5t6 -18t2.5 -20.5t0.5 -14q0 -30 -6.5 -67.5t-14 -73
t-13.5 -64.5t-6 -44q0 -94 15 -185q3 -19 10 -42.5t7 -41.5q0 -2 -1.5 -5t-4.5 -3q-7 0 -12 13t-9.5 34t-7.5 46.5t-5 51.5t-3.5 48.5t-1.5 37.5q-6 -18 -16 -49t-25 -61.5t-34 -52.5t-43 -22q-20 0 -31.5 19t-17 44.5t-7 51t-1.5 39.5q0 81 11 158.5t15 158.5zM219 505
q-11 -21 -14.5 -50t-4.5 -60.5t-0.5 -62.5t-1.5 -55q11 43 18.5 86t7.5 88q0 14 -1 27t-4 27zM100 558q-5 5 -7 15l7 5q6 0 11.5 -2.5t5.5 -10.5q0 -4 -3.5 -6t-6.5 -3zM160 570q-2 -4 -6 -8t-9 -4l-7 9q0 10 11 12z" />
    <glyph glyph-name="Yacute" unicode="&#xdd;" horiz-adv-x="347" 
d="M49 463l8 -6q-6 -27 -12 -46.5t-10.5 -38t-7.5 -40t-3 -51.5q0 -9 1 -31t4 -49.5t8 -57t12 -54t17 -40.5t23 -16t26.5 15.5t26 40t24 54t21 57.5t15.5 51t9 35q4 19 8.5 47t9.5 53t9.5 43t9.5 18q6 0 12.5 -16.5t14 -43t14 -59t12 -65t9.5 -61t5 -46.5l3 -44q11 8 23 16
t25 13l2 -2q-1 -6 -7 -12.5t-14 -12.5t-16 -11t-12 -8q2 -21 3 -42t1 -42q0 -68 -16 -133t-60 -119q-17 -21 -41.5 -38t-53.5 -17t-41 20t-12 46q0 47 19 94.5t49 91.5t66.5 81.5t71.5 65.5q-11 161 -54 315q-3 -17 -10 -53.5t-18 -81.5t-25.5 -92.5t-32 -87t-37.5 -65
t-42 -25.5q-15 0 -27 16t-20.5 41.5t-14 56t-9 59t-5 51.5t-1.5 34q0 48 7 97.5t27 92.5zM154 -287q11 0 22.5 6t22.5 14.5t20.5 18t16.5 17.5q22 25 36 57t22 67t11 70.5t3 67.5q0 14 -0.5 27.5t-1.5 27.5q-32 -29 -65.5 -63t-61.5 -73t-45.5 -82t-17.5 -89q0 -9 1.5 -20
t5.5 -21.5t11.5 -17.5t19.5 -7zM135 557l14.5 14.5l21.5 21.5t21 19.5t14 9.5l6 -6q0 -4 -9.5 -15t-21.5 -22.5t-23.5 -20.5t-15.5 -9l-7 8v0z" />
    <glyph glyph-name="Eth" unicode="&#xd0;" horiz-adv-x="278" 
d="M17 481l8 -8q0 -64 1 -127t3 -127q1 18 3.5 45.5t8 58.5t13.5 62t21.5 56t32 40.5t43.5 15.5t43 -13t30.5 -34t20.5 -47.5t13 -53.5t6.5 -51.5t1.5 -41.5q0 -19 -1 -42t-4.5 -47t-9 -46.5t-14.5 -39.5q-6 -11 -17 -26t-24.5 -28.5t-28.5 -23t-29 -9.5q-15 0 -23 11.5
t-11 24.5l8 7q4 -8 13 -17t18 -9q33 0 54 30t33.5 70.5t17 81.5t4.5 63q0 25 -4 63.5t-16 75t-33.5 63t-55.5 26.5q-28 0 -46.5 -31t-30 -78.5t-17 -105t-8 -111t-2.5 -96v-59.5l1 -8h-9l-7 7q-8 118 -10 235.5t-4 235.5zM-21 186q0 4 14.5 6.5t32.5 4t35 1.5h23l6 -8
q-1 -4 -15 -6.5t-31.5 -3.5t-34 -1h-22.5z" />
    <glyph glyph-name="eth" unicode="&#xf0;" horiz-adv-x="193" 
d="M2 248q0 27 14 43t41 16q32 0 58.5 -20t37.5 -49q-5 25 -11 57.5t-15 65.5t-21 63t-29 49q0 -1 -2 -1l-1 1l8 14q14 -8 26.5 -33.5t23 -59.5t19 -73.5t14 -76t8.5 -66.5t3 -45q0 -11 -2 -32.5t-7.5 -43t-16 -37.5t-27.5 -16q-13 0 -27 15t-27 38t-25.5 51.5t-21.5 55.5
t-14.5 49.5t-5.5 34.5zM159 193q-7 13 -15.5 30t-19 32t-24.5 25.5t-32 10.5q-23 0 -35.5 -13.5t-12.5 -36.5q0 -10 4.5 -30.5t12.5 -44.5t19 -49.5t22.5 -46.5t23.5 -34.5t23 -13.5q13 0 20 19.5t10 44t3.5 47t0.5 29.5v31zM176 358q0 -2 -8.5 -9t-19 -14.5t-20.5 -14
t-12 -6.5q-6 0 -6 7q0 2 8 9t18.5 15t19.5 14.5t11 6.5q9 0 9 -8z" />
    <glyph glyph-name="mu" unicode="&#xb5;" horiz-adv-x="227" 
d="M26 298l8 -6q0 -21 1.5 -46.5t7 -51t15 -48t25.5 -37.5q23 1 36 26.5t19.5 59.5t8 67t2.5 50l7 7q6 0 10 -10t6 -24t3 -28.5t1 -22.5q0 -14 -0.5 -27.5t-0.5 -27.5q0 -33 7.5 -63.5t36.5 -55.5q2 -2 3.5 -3t1.5 -3q0 -6 -8 -6q-18 0 -29.5 22t-18 51t-9 58.5t-2.5 44.5
q-2 -13 -6.5 -35.5t-13.5 -44t-22 -37.5t-31 -16q-8 0 -15 7t-12 16.5t-8.5 19.5t-5.5 16q2 -32 3.5 -63t1.5 -62q0 -13 -1 -40.5t-4 -55t-7.5 -48t-11.5 -20.5q-8 0 -8 9q0 10 3 28t6 38.5t6 42.5t3 42q0 68 -7.5 134t-7.5 133v3z" />
    <glyph glyph-name="mu" unicode="&#x3bc;" horiz-adv-x="227" 
d="M26 298l8 -6q0 -21 1.5 -46.5t7 -51t15 -48t25.5 -37.5q23 1 36 26.5t19.5 59.5t8 67t2.5 50l7 7q6 0 10 -10t6 -24t3 -28.5t1 -22.5q0 -14 -0.5 -27.5t-0.5 -27.5q0 -33 7.5 -63.5t36.5 -55.5q2 -2 3.5 -3t1.5 -3q0 -6 -8 -6q-18 0 -29.5 22t-18 51t-9 58.5t-2.5 44.5
q-2 -13 -6.5 -35.5t-13.5 -44t-22 -37.5t-31 -16q-8 0 -15 7t-12 16.5t-8.5 19.5t-5.5 16q2 -32 3.5 -63t1.5 -62q0 -13 -1 -40.5t-4 -55t-7.5 -48t-11.5 -20.5q-8 0 -8 9q0 10 3 28t6 38.5t6 42.5t3 42q0 68 -7.5 134t-7.5 133v3z" />
    <glyph glyph-name="germandbls" unicode="&#xdf;" horiz-adv-x="257" 
d="M26 5q-8 0 -8 8q0 63 -4.5 124t-4.5 124q0 20 3.5 54.5t13.5 68.5t28 58.5t46 24.5q21 0 35.5 -12t22.5 -30t11.5 -38.5t3.5 -36.5q0 -35 -6.5 -71t-20.5 -68q5 1 9 1.5t9 0.5q18 0 31.5 -8.5t22.5 -22t13.5 -31t4.5 -35.5t-9 -38.5t-23.5 -38.5t-33 -29.5t-37.5 -11.5
q-24 0 -30.5 18.5t-6.5 37.5l8 7q6 0 6.5 -7.5t2 -17t6 -17t16.5 -7.5q16 0 31.5 12t27.5 29.5t19 37t7 33.5q0 29 -17 50.5t-48 21.5q-9 0 -15.5 -4.5t-11.5 -10t-10.5 -11t-14.5 -8.5l-9 8q3 11 12 20t19 14q5 10 11 28t11.5 37.5t9.5 38t4 29.5q0 12 -2.5 31t-8.5 37.5
t-17 31.5t-28 13q-26 0 -41.5 -23t-24.5 -54t-12 -63t-3 -50q0 -54 4.5 -107.5t4.5 -107.5v-32z" />
    <glyph glyph-name="Thorn" unicode="&#xde;" horiz-adv-x="264" 
d="M28 235v34t-1 51t-2 58.5t-3.5 57.5t-5.5 47t-7 28l8 10q6 0 10.5 -12.5t7 -32.5t3.5 -44t1.5 -47.5t0.5 -43v-29.5q27 8 54 15t55 7q12 0 29.5 -2.5t33.5 -8.5t27 -17t11 -27q0 -30 -21 -55t-51 -43t-64 -28.5t-60 -10.5h-13l-3 -202q0 -5 -5 -5q-3 0 -6.5 1t-3.5 6
q0 51 2.5 100.5t2.5 100.5h-1l1 12v80zM40 295q1 -35 1 -70.5v-70.5q21 0 53.5 8.5t63.5 24.5t53.5 37t22.5 47q0 12 -10 21t-24.5 14.5t-30 8.5t-27.5 3q-26 0 -51.5 -7.5t-50.5 -15.5z" />
    <glyph glyph-name="thorn" unicode="&#xfe;" horiz-adv-x="152" 
d="M14 215q0 60 -0.5 118.5t-0.5 118.5v59l7 7l8 -6l-1 -144q48 -25 78.5 -70t30.5 -99q0 -24 -8 -50t-22 -48.5t-34 -40t-45 -24.5l-4 -252q0 -2 -2 -3.5t-4 -1.5q-3 0 -6 2t-3 5l4 247q-6 -2 -10 -2q-6 0 -10.5 2.5t-4.5 8.5q0 5 5.5 6.5t9.5 1.5l12 -1v166zM28 288v-170
v-63q43 20 68.5 59.5t25.5 87.5q0 27 -7 48.5t-19 39t-29.5 32.5t-38.5 29v-63z" />
    <glyph glyph-name="Ydieresis" unicode="&#x178;" horiz-adv-x="347" 
d="M49 463l8 -6q-6 -27 -12 -46.5t-10.5 -38t-7.5 -40t-3 -51.5q0 -9 1 -31t4 -49.5t8 -57t12 -54t17 -40.5t23 -16t26.5 15.5t26 40t24 54t21 57.5t15.5 51t9 35q4 19 8.5 47t9.5 53t9.5 43t9.5 18q6 0 12.5 -16.5t14 -43t14 -59t12 -65t9.5 -61t5 -46.5l3 -44q11 8 23 16
t25 13l2 -2q-1 -6 -7 -12.5t-14 -12.5t-16 -11t-12 -8q2 -21 3 -42t1 -42q0 -68 -16 -133t-60 -119q-17 -21 -41.5 -38t-53.5 -17t-41 20t-12 46q0 47 19 94.5t49 91.5t66.5 81.5t71.5 65.5q-11 161 -54 315q-3 -17 -10 -53.5t-18 -81.5t-25.5 -92.5t-32 -87t-37.5 -65
t-42 -25.5q-15 0 -27 16t-20.5 41.5t-14 56t-9 59t-5 51.5t-1.5 34q0 48 7 97.5t27 92.5zM154 -287q11 0 22.5 6t22.5 14.5t20.5 18t16.5 17.5q22 25 36 57t22 67t11 70.5t3 67.5q0 14 -0.5 27.5t-1.5 27.5q-32 -29 -65.5 -63t-61.5 -73t-45.5 -82t-17.5 -89q0 -9 1.5 -20
t5.5 -21.5t11.5 -17.5t19.5 -7zM129 558q-5 5 -7 15l7 5q6 0 11.5 -2.5t5.5 -10.5q0 -4 -3.5 -6t-6.5 -3zM189 570q-2 -4 -6 -8t-9 -4l-7 9q0 10 11 12z" />
    <glyph glyph-name="dagger" unicode="&#x2020;" horiz-adv-x="137" 
d="M71 494q0 -80 -1.5 -160.5t-1.5 -161.5q0 -88 3 -174.5t14 -172.5l-7 -7q-7 1 -11 24t-6.5 59.5t-3.5 83t-1 94v92v78.5l-1 140v27q0 12 0.5 25.5t1 26t2 21.5t4.5 12l6 -2zM13 243q0 4 14.5 6.5t32.5 4t35 1.5h23l6 -8q-1 -4 -15 -6.5t-31.5 -3.5t-34 -1h-22.5z" />
    <glyph glyph-name="daggerdbl" unicode="&#x2021;" horiz-adv-x="137" 
d="M71 494q0 -80 -1.5 -160.5t-1.5 -161.5q0 -88 3 -174.5t14 -172.5l-7 -7q-7 1 -11 24t-6.5 59.5t-3.5 83t-1 94v92v78.5l-1 140v27q0 12 0.5 25.5t1 26t2 21.5t4.5 12l6 -2zM13 243q0 4 14.5 6.5t32.5 4t35 1.5h23l6 -8q-1 -4 -15 -6.5t-31.5 -3.5t-34 -1h-22.5zM13 43
q0 4 14.5 6.5t32.5 4t35 1.5h23l6 -8q-1 -4 -15 -6.5t-31.5 -3.5t-34 -1h-22.5z" />
    <glyph glyph-name="Scaron" unicode="&#x160;" horiz-adv-x="348" 
d="M223 480l-6 -8q-4 0 -10 4t-14 9.5t-18 9.5t-22 4q-23 0 -43.5 -12t-35.5 -31t-24 -42t-9 -44q0 -37 22 -60.5t55 -40t71 -29t71 -26.5t55 -33t22 -49q0 -35 -23 -62.5t-56 -46t-70 -28t-65 -9.5q-17 0 -37 4.5t-37.5 13.5t-29.5 23.5t-12 34.5q0 9 5.5 20.5t13 24
t15 23.5t12.5 19l6 3l8 -6v-3q-13 -18 -27.5 -38.5t-14.5 -44.5q0 -18 11 -29.5t27 -18t33.5 -9t31.5 -2.5q27 0 60.5 9t63 26t50 41.5t20.5 56.5q0 26 -22 42.5t-54.5 30t-71 25.5t-71 29.5t-54.5 42t-22 62.5q0 25 10 51.5t27.5 47.5t41 34.5t50.5 13.5q20 0 34.5 -8.5
t29.5 -19.5zM121 598q4 0 6 -5.5t3.5 -11.5t3 -11t4.5 -5q1 3 3.5 13.5t5.5 21.5t6.5 19.5t6.5 8.5l7 -8q-1 -4 -4 -16.5t-7 -25.5t-9 -23t-9 -10q-3 0 -7 6t-7.5 14.5t-6 16l-3.5 10.5z" />
    <glyph glyph-name="Zcaron" unicode="&#x17d;" horiz-adv-x="395" 
d="M9 501q1 4 8 6t16 3t19 1.5t17 0.5q11 0 34.5 0.5t52 -1t58.5 -5.5t54.5 -12.5t40 -23t15.5 -35.5q0 -15 -15.5 -46t-38.5 -71.5t-49.5 -87t-49.5 -91t-38.5 -84t-15.5 -66.5q0 -5 1 -10.5t5 -10.5q21 1 57.5 17t75.5 37.5t73.5 44t52.5 36.5h4l7 -5l-3 -8
q-10 -8 -30 -21t-45.5 -28.5t-53.5 -31t-53.5 -28t-46.5 -20.5t-31 -8q-15 0 -21.5 9.5t-6.5 23.5q0 30 15.5 71.5t38.5 86.5t50 90.5t50 85.5t38.5 70.5t15.5 45.5q0 22 -22.5 34.5t-53 18.5t-63 7.5t-52.5 1.5q-26 0 -51 -1t-51 -3zM138 603q4 0 6 -5.5t3.5 -11.5t3 -11
t4.5 -5q1 3 3.5 13.5t5.5 21.5t6.5 19.5t6.5 8.5l7 -8q-1 -4 -4 -16.5t-7 -25.5t-9 -23t-9 -10q-3 0 -7 6t-7.5 14.5t-6 16l-3.5 10.5z" />
    <glyph glyph-name="Lslash" unicode="&#x141;" horiz-adv-x="194" 
d="M28 515l7 -7q-3 -61 -7 -122t-4 -122q0 -13 0.5 -36.5t3 -51.5t7 -57t13 -52.5t21 -38.5t31.5 -15q13 0 23.5 5t20.5 11.5t19 13t19 8.5l6 -7q-1 -6 -12.5 -14t-25.5 -15t-28 -12t-20 -5q-23 0 -39 15.5t-26 39.5t-15.5 54t-8 59.5t-3 55t-0.5 41.5q0 62 4 122.5t7 122.5
zM-11 187l14.5 14.5l21.5 21.5t21 19.5t14 9.5l6 -6q0 -4 -9.5 -15t-21.5 -22.5t-23.5 -20.5t-15.5 -9l-7 8v0z" />
    <glyph glyph-name="OE" unicode="&#x152;" horiz-adv-x="344" 
d="M142 372q-8 15 -20 28t-27 21l-1 5l8 7q11 -3 22.5 -14t18.5 -20zM160 67q-5 -9 -11.5 -20t-15 -20.5t-19 -15.5t-22.5 -6q-29 0 -46 27t-26 63.5t-12 73t-3 55.5q0 12 1.5 34.5t5.5 49t10.5 54t17 50t24.5 37t33 14.5q2 0 4.5 -1t4.5 -2l5 -7l-7 -7l-7 1
q-17 -1 -29.5 -16t-21 -37.5t-14.5 -49.5t-9 -53t-4 -47.5t-1 -32.5q0 -17 2.5 -48.5t11 -63t23.5 -55t39 -23.5q10 0 19 5.5t16 14t12.5 18.5t8.5 18zM142 254v-39t2 -51.5t7 -55t15 -50t25.5 -36.5t39.5 -14q26 0 51 12t46 27l4 1l7 -7l-4 -7q-21 -16 -46 -27.5t-52 -11.5
q-28 0 -46.5 14t-31 36t-19 50t-9 57t-3 55t-0.5 45h-3l-8 7l7 7h5q2 54 5.5 107.5t3.5 107.5h-17l-8 7l7 7q46 2 91.5 6.5t91.5 10.5l7 -7q-2 -5 -23.5 -9t-49 -7t-52.5 -5t-33 -3q0 -54 -3.5 -106.5t-5.5 -106.5q29 5 59 9t59 10l8 -6q-2 -5 -19.5 -9.5t-39 -8t-41.5 -6
t-27 -3.5z" />
    <glyph glyph-name="Euro" unicode="&#x20ac;" horiz-adv-x="227" 
d="M36 201q-8 -2 -18 -2q-6 0 -10.5 2t-4.5 8q0 7 11 6.5t19 0.5q-2 8 -2 17v17q-2 -1 -6 -1h-7q-5 0 -9 1.5t-4 7.5q0 7 9.5 6.5t16.5 0.5q1 22 7 49t18 51t31 40.5t46 16.5q26 0 44 -21t18 -46q0 -8 -7 -8q-4 0 -7.5 9.5t-8.5 21.5t-14 21.5t-25 9.5q-24 0 -40.5 -15.5
t-26.5 -38t-15 -47t-5 -42.5q35 4 68.5 10.5t67.5 12.5l9 -7q0 -7 -18 -12t-42 -9t-48.5 -6.5t-36.5 -3.5v-17t1 -17q29 2 57 7t55 15q3 0 6 -1.5t3 -5.5q0 -6 -16.5 -11t-37 -9t-40 -6.5t-25.5 -3.5q2 -13 8 -34t15.5 -40.5t22.5 -33.5t30 -14q13 0 25.5 6.5t23 17
t17.5 23.5t8 25l8 7q4 0 5.5 -3t1.5 -6q0 -14 -8.5 -29t-22 -27.5t-29 -20.5t-28.5 -8q-23 0 -38.5 14.5t-26 35.5t-16 44.5t-9.5 41.5z" />
    <glyph glyph-name="colonmonetary" unicode="&#x20a1;" horiz-adv-x="213" 
d="M136 416q1 5 3 10.5t8 5.5t6 -6q0 -5 -1 -9.5t-3 -9.5q11 -11 18 -28q2 7 5 20t11 13q6 0 6 -6t-6.5 -29.5t-16.5 -56t-22 -70t-23 -71.5t-20 -60.5t-12 -36.5q8 -2 13 -2q13 0 26 6.5t23.5 17t17.5 23.5t8 25l8 7q4 0 5.5 -3t1.5 -6q0 -14 -8.5 -29t-21.5 -27.5
t-28.5 -20.5t-29.5 -8q-5 0 -10 1t-10 3l-1 -4q-2 -3 -7 -3q-3 0 -5 3.5t-2 5.5l2 5q-6 4 -10.5 9t-9.5 11q-1 -5 -3.5 -9.5t-7.5 -4.5q-3 0 -5 3.5t-2 5.5q0 3 3 11t5 11q-9 34 -20.5 65.5t-11.5 67.5q0 23 4.5 53.5t16 57.5t31.5 46t50 19q13 0 25 -6zM24 245q0 -29 6 -57
t18 -54q45 132 84 267q-8 7 -22 7q-27 0 -44 -18.5t-26 -44t-12.5 -53.5t-3.5 -47zM76 91q2 7 9.5 28t16.5 49t19 59t18.5 57.5t14 45t5.5 21.5q0 8 -5 19.5t-10 18.5q-20 -69 -41.5 -137t-44.5 -137z" />
    <glyph glyph-name="sterling" unicode="&#xa3;" horiz-adv-x="200" 
d="M32 211q-7 0 -7 7q0 3 8.5 6t19.5 5.5t21.5 4t15.5 3.5q-4 22 -8 43.5t-4 43.5q0 13 4 29t11.5 30t19.5 23t28 9t24 -10.5t8 -25.5q0 -6 -1 -14t-9 -8q-5 0 -7 7q2 8 2 16t-3 14t-12 6q-11 0 -20.5 -7.5t-16 -19t-10 -23.5t-3.5 -21q0 -23 4 -44.5t8 -43.5l60 22
q2 0 5.5 -1t3.5 -4q0 -5 -9 -9.5t-20 -9t-22.5 -8t-15.5 -4.5q8 -43 8 -82v-16.5t-2 -16.5q17 -5 35 -8.5t36 -5.5l6 -8l-7 -7q-19 2 -36.5 7.5t-35.5 10.5q-13 -50 -67 -50q-17 0 -28 12t-11 29q0 20 14 25t31 5q25 0 49 -6q3 13 3 28q0 20 -2.5 39t-6.5 39
q-15 -4 -30.5 -7.5t-30.5 -3.5zM22 88q0 -10 4.5 -17t15.5 -7q17 0 31 13.5t21 27.5q-8 2 -16.5 3t-16.5 1q-10 0 -20 -2.5t-18 -8.5z" />
    <glyph glyph-name="lira" unicode="&#x20a4;" horiz-adv-x="200" 
d="M69 187q-7 2 -7 8q0 4 4 6t9.5 3.5t11 2t8.5 0.5l-6 32q-17 -4 -36 -8t-36 -4q-3 0 -5 3t-2 5q0 3 10 6t23.5 5.5t25.5 5t17 3.5q-3 17 -5.5 34.5t-2.5 34.5q0 13 4 29t11.5 30t19.5 23t28 9t24 -10.5t8 -25.5q0 -5 -1 -13.5t-8 -8.5q-6 0 -8 7q2 8 2 16t-3 14t-12 6
q-11 0 -20 -7.5t-15.5 -18.5t-10 -23.5t-3.5 -21.5q0 -17 2.5 -35t5.5 -35q14 4 27 7.5t27 5.5l9 -7q0 -3 -8 -6.5t-18.5 -6.5t-20.5 -5.5l-14 -3.5q2 -8 3 -16l2 -16l47 12q3 0 6 -1.5t3 -4.5q0 -4 -7 -7.5t-16 -6.5t-18 -4.5t-13 -2.5q2 -13 3 -26t1 -26q0 -8 -0.5 -16
t-1.5 -16q17 -5 35 -8.5t36 -5.5l6 -8l-7 -7q-19 2 -36.5 7.5t-35.5 10.5q-13 -50 -67 -50q-17 0 -28 12t-11 29q0 20 14 25t31 5q25 0 49 -6q3 13 3 28q0 12 -1.5 24t-3.5 24zM22 88q0 -10 4.5 -17t15.5 -7q17 0 31 13.5t21 27.5q-8 2 -16.5 3t-16.5 1q-10 0 -20 -2.5
t-18 -8.5z" />
    <glyph glyph-name="yen" unicode="&#xa5;" horiz-adv-x="181" 
d="M45 120q-5 0 -7 1.5t-2 7.5q0 2 5 4.5t11.5 5.5t12.5 5t8 3l6 35q-27 -8 -50 -18l-9 -4q-5 0 -7 1.5t-2 7.5q0 3 9.5 8t22 9.5t24 8.5t15.5 5l3 19l-9 -3l-17 4q-3 1 -11 25.5t-16.5 55t-15.5 58t-7 34.5q0 2 2 4t4 2q6 0 14 -22.5t15.5 -51.5t14 -56t9.5 -36l7 -1
q4 5 10.5 15t8.5 15l44 167q2 6 7 6t7 -5h2q-4 -30 -11.5 -58t-15.5 -56t-15.5 -55.5t-12.5 -56.5l39 12h1q2 0 5 -1.5t3 -3.5q0 -5 -6.5 -8.5t-15 -6.5t-17 -5t-12.5 -3l-6 -34l69 24h1q2 0 5 -1.5t3 -3.5q0 -5 -10.5 -10.5t-24 -10.5t-27 -9t-18.5 -6q-4 -28 -7 -56
t-3 -57v-8q0 -9 -5 -9q-11 0 -11 12q1 4 2.5 19t2.5 33t2 34.5t2 24.5q-1 0 -5 -2t-8.5 -3.5t-8 -3t-4.5 -1.5z" />
    <glyph glyph-name="florin" unicode="&#x192;" horiz-adv-x="154" 
d="M45 219q-5 0 -10.5 1.5t-5.5 8.5q0 2 3 3.5t5 1.5l4 -1l20 4l20 4q0 8 -0.5 24t-0.5 35q0 18 1 37t4.5 34.5t9.5 25t17 9.5q17 0 24.5 -13t8.5 -27l-7 -8q-5 0 -6.5 5t-2.5 11t-3.5 11t-8.5 5q-7 0 -11 -9t-6.5 -22.5t-3 -30.5t-0.5 -33q0 -17 0.5 -30.5t0.5 -19.5
q8 2 15.5 5t15.5 6q2 0 5.5 -1t3.5 -4q0 -5 -5 -8t-11.5 -5.5t-13 -4.5t-10.5 -3q-1 -21 -1.5 -51t-5 -59.5t-15 -54t-32.5 -33.5l-8 2q-2 2 -6.5 8t-9.5 12t-8.5 12t-3.5 8t1 4.5t4 2.5q8 0 17 -13t14 -19l12 6q12 42 17.5 84.5t7.5 85.5q-8 -2 -17 -4t-18 -2z" />
    <glyph glyph-name="franc" unicode="&#x20a3;" horiz-adv-x="185" 
d="M59 109q-3 -1 -10 -2t-14 -1q-14 0 -14 7q0 4 4.5 6.5t10.5 3.5t12.5 1h9.5q-2 30 -4 61.5t-2 61.5q-4 -1 -10 -3l-12 -4t-11.5 -3.5t-8.5 -1.5q-5 0 -5 7q0 3 6 6.5t14 6t15.5 4.5t10.5 3q-1 11 -2.5 30t-1.5 39q0 16 1.5 31t6 27t12 19t19.5 7q20 0 40 -4t40 -6l6 -8
l-7 -7q-19 2 -37 7.5t-37 5.5q-10 0 -15.5 -5.5t-8.5 -13.5t-4 -18.5t-1 -19.5q0 -22 0.5 -41t1.5 -40q23 5 47 7t48 2l9 -7q0 -6 -12.5 -9t-29 -3.5t-34 -1t-27.5 -2.5l9 -123l14 2t14 3l9 -7q0 -4 -4.5 -6.5t-10.5 -4t-11.5 -2t-8.5 -1.5v-4q0 -21 6 -41.5t6 -39.5
q0 -3 -2.5 -4t-4.5 -1q-7 0 -11 12t-6.5 27t-3.5 29t-1 19z" />
    <glyph glyph-name="currency" unicode="&#xa4;" horiz-adv-x="202" 
d="M34 27q1 6 5.5 19t9.5 27.5t9.5 27t7.5 18.5q-9 26 -10.5 57.5t-1.5 59.5q0 14 0.5 26.5t3.5 25.5l-2 2q-6 9 -13 21t-14 25t-13 25.5t-10 22.5l-1 5q0 2 1 4.5t4 2.5q6 0 13.5 -11t15 -25.5t14 -29t10.5 -22.5q3 8 12.5 21.5t18.5 13.5q2 0 4 -2.5t3 -4.5q9 -2 14 -2.5
t8.5 -3t7 -6.5t8.5 -12q1 3 5 11.5t9 16.5t10 14.5t8 6.5q5 0 5 -7q0 -3 -4 -11l-8.5 -17t-9.5 -17.5t-6 -13.5q23 -46 23 -99q0 -19 -5.5 -42.5t-19.5 -36.5q3 -4 9.5 -16.5t13 -26.5t11.5 -26.5t5 -16.5q0 -6 -6 -6q-4 0 -9.5 10t-11.5 23.5t-11.5 26.5t-10.5 20
q-8 -8 -17.5 -15t-20.5 -7q-7 0 -12 4t-9 9q-1 -5 -5.5 -17.5t-10.5 -26t-11.5 -24t-9.5 -10.5q-2 0 -4 1.5t-2 3.5v4zM133 297q-8 14 -17.5 18.5t-24.5 7.5q-8 -10 -12.5 -23.5t-7 -28.5t-3.5 -29.5t-1 -26.5q0 -11 1 -27.5t4 -33.5t9 -32t15 -23q19 5 30.5 16t18 26
t8.5 32t2 35q0 19 -3 38.5t-11 36.5l-9 7z" />
    <glyph glyph-name="Eng" unicode="&#x14a;" horiz-adv-x="260" 
d="M222 158q0 10 -0.5 35t-2 57t-4.5 66t-8 62t-12 46.5t-16 18.5q-13 0 -27 -26t-27.5 -66t-25.5 -88.5t-22.5 -93t-18 -79.5l-10.5 -49l-8 -6l-8 5l1 2q-3 15 -3.5 30t-0.5 30q0 75 -10.5 148.5t-12.5 148.5l7 7l8 -7q2 -77 11 -152t14 -152q3 14 9.5 47.5t16.5 74.5
t22 85t26 80t29.5 59.5t32.5 23.5q12 0 21 -21t15.5 -53.5t10 -72t5.5 -76t2.5 -65t0.5 -39.5q0 -13 -0.5 -35.5t-3 -49.5t-8 -54.5t-14 -50t-22 -37t-32.5 -14.5q-6 0 -14.5 2t-8.5 11q0 4 4 4q7 0 11.5 -2.5t10.5 -2.5q14 0 24 17t16.5 43.5t11 57.5t6.5 58.5t3 47.5t1 25
z" />
    <glyph glyph-name="eng" unicode="&#x14b;" horiz-adv-x="189" 
d="M125 347q11 0 18 -14t11 -32.5t5.5 -36.5t2.5 -25l1 -2q3 -44 7 -86.5t4 -86.5q0 -16 -1.5 -40.5t-7.5 -48t-19 -40t-37 -16.5q-8 0 -16.5 4.5t-8.5 13.5q0 4 4 4q8 0 12.5 -4.5t12.5 -4.5q15 0 24.5 16t15 37.5t7 42.5t1.5 32q0 33 -3 66l-6 66l-1 -1q-1 8 -2.5 29.5
t-4.5 45t-8 43t-13 22.5q-10 0 -16.5 -17t-11.5 -44t-8.5 -60t-7 -65.5t-8 -61.5t-10.5 -46l-3 -1q-9 0 -15.5 16.5t-11.5 41.5t-8.5 55.5t-6 59t-4.5 51t-3 31.5l7 7l7 -7q9 -57 11.5 -114t18.5 -113q4 11 7.5 36.5t7 57t7.5 65t10.5 61t16 45.5t23.5 18z" />
    <glyph glyph-name="Amacron" unicode="&#x100;" horiz-adv-x="356" 
d="M8 148l7 8q9 0 27 4t36.5 9.5t32.5 9.5l14 4q0 12 1 40t3.5 63.5t7 73.5t12 69.5t18.5 52t26 20.5q13 0 23 -16.5t17.5 -42.5t12 -57.5t7.5 -60.5t4.5 -52.5t1.5 -33.5q15 6 30.5 12.5t32.5 6.5l6 -7q-1 -3 -10 -7t-20 -8t-21.5 -7t-14.5 -4q2 -20 7 -60.5t12.5 -84
t17 -81t20.5 -51.5q5 -7 15 -11.5t12 -12.5l-7 -7q-15 0 -27.5 19t-22.5 48.5t-17.5 65.5t-12.5 69.5t-8 61t-4 39.5q-27 -11 -54 -22.5t-54 -22.5v-175q0 -4 -2 -16.5t-8 -12.5t-7.5 9t-1.5 15q0 43 2 86.5t2 86.5q-26 -10 -53 -17.5t-55 -10.5zM195 484q-11 0 -19.5 -19
t-14.5 -49t-10 -65.5t-6.5 -68t-3.5 -58.5t-1 -35q27 11 53 23t53 23q-1 9 -2.5 30.5t-4.5 49.5t-7 57.5t-9.5 54.5t-12.5 41t-15 16zM126 556q0 5 12.5 8.5t27.5 6t29 3.5t18 1t10.5 -1t6.5 -7l-5 -7q-23 0 -46.5 -5.5t-46.5 -5.5z" />
    <glyph glyph-name="Aogonek" unicode="&#x104;" horiz-adv-x="356" 
d="M8 148l7 8q9 0 27 4t36.5 9.5t32.5 9.5l14 4q0 12 1 40t3.5 63.5t7 73.5t12 69.5t18.5 52t26 20.5q13 0 23 -16.5t17.5 -42.5t12 -57.5t7.5 -60.5t4.5 -52.5t1.5 -33.5q15 6 30.5 12.5t32.5 6.5l6 -7q-1 -3 -10 -7t-20 -8t-21.5 -7t-14.5 -4q2 -20 7 -60.5t12.5 -84
t17 -81t20.5 -51.5q5 -7 15 -11.5t12 -12.5l-7 -7q-15 0 -27.5 19t-22.5 48.5t-17.5 65.5t-12.5 69.5t-8 61t-4 39.5q-27 -11 -54 -22.5t-54 -22.5v-175q0 -4 -2 -16.5t-8 -12.5t-7.5 9t-1.5 15q0 43 2 86.5t2 86.5q-26 -10 -53 -17.5t-55 -10.5zM195 484q-11 0 -19.5 -19
t-14.5 -49t-10 -65.5t-6.5 -68t-3.5 -58.5t-1 -35q27 11 53 23t53 23q-1 9 -2.5 30.5t-4.5 49.5t-7 57.5t-9.5 54.5t-12.5 41t-15 16zM340 -69l6 -6q-8 -15 -16 -35.5t-8 -37.5q0 -8 9 -13l7 1l8 -8q-4 -9 -12 -9q-12 0 -20 6t-8 19q0 7 3 18t7.5 23t9.5 22.5t8 17.5z" />
    <glyph glyph-name="AEacute" unicode="&#x1fc;" horiz-adv-x="471" 
d="M252 252q0 57 5 114t5 115h-17l-8 7l7 7q46 2 91.5 6.5t91.5 10.5l7 -7q-2 -5 -23.5 -9t-49 -7t-52.5 -5t-33 -3q0 -54 -3.5 -106.5t-5.5 -106.5q29 5 59 9t59 10l8 -6q-2 -5 -19.5 -9.5t-39 -8t-41.5 -6t-27 -3.5v-39t2 -51.5t7 -55t15 -50t25.5 -36.5t39.5 -14
q26 0 51 12t46 27l4 1l7 -7l-4 -7q-21 -16 -46 -27.5t-52 -11.5q-28 0 -46.5 14t-31 36t-19 50t-9 57t-3 55t-0.5 45zM193 502q14 0 24 -16.5t17 -42.5t11.5 -57.5t7.5 -60.5t4 -52.5t2 -33.5q1 -13 4 -37t7 -53.5t10 -61.5t12 -60t13 -49t14 -30q5 -7 15 -11.5t12 -12.5
l-7 -7q-15 0 -27.5 19t-22.5 48.5t-17.5 65.5t-12.5 69.5t-8 60.5t-4 40q-27 -11 -54 -22.5t-54 -22.5v-175q0 -5 -2 -17t-8 -12t-7.5 9t-1.5 15q0 43 2 86.5t2 86.5q-26 -10 -53 -17.5t-55 -10.5l-8 8l7 8q8 0 26 4t36.5 9.5t33 9.5l14.5 4q0 12 1 40t3.5 63.5t7 73.5
t12 69.5t18.5 52t26 20.5zM195 484q-11 0 -19.5 -19t-14.5 -49t-10 -65.5t-6.5 -68t-3.5 -58.5t-1 -35q27 11 53 23t53 23q-1 9 -2.5 30.5t-4.5 49.5t-7 57.5t-9.5 54.5t-12.5 41t-15 16zM197 557l14.5 14.5l21.5 21.5t21 19.5t14 9.5l6 -6q0 -4 -9.5 -15t-21.5 -22.5
t-23.5 -20.5t-15.5 -9l-7 8v0z" />
    <glyph glyph-name="Cacute" unicode="&#x106;" horiz-adv-x="274" 
d="M188 302q-3 1 -4.5 15t-3.5 35t-5 45t-9 44.5t-16 34.5t-26 14q-20 0 -36 -15t-27.5 -38.5t-19.5 -52.5t-13.5 -57.5t-7.5 -53t-2 -38.5q0 -35 6 -75.5t22.5 -75.5t45 -58.5t72.5 -23.5q33 0 48.5 14t22 32t8.5 33.5t8 18.5l8 -8q-3 -21 -9 -40t-17.5 -33.5t-28.5 -23.5
t-41 -9q-50 0 -81 25.5t-48 63.5t-23 82.5t-6 82.5q0 27 5.5 71.5t20 87t38.5 73.5t61 31q16 0 27.5 -11.5t18 -29.5t10.5 -40t5.5 -43.5t2 -40t1.5 -29.5zM98 557l14.5 14.5l21.5 21.5t21 19.5t14 9.5l6 -6q0 -4 -9.5 -15t-21.5 -22.5t-23.5 -20.5t-15.5 -9l-7 8v0z" />
    <glyph glyph-name="Ccaron" unicode="&#x10c;" horiz-adv-x="274" 
d="M188 302q-3 1 -4.5 15t-3.5 35t-5 45t-9 44.5t-16 34.5t-26 14q-20 0 -36 -15t-27.5 -38.5t-19.5 -52.5t-13.5 -57.5t-7.5 -53t-2 -38.5q0 -35 6 -75.5t22.5 -75.5t45 -58.5t72.5 -23.5q33 0 48.5 14t22 32t8.5 33.5t8 18.5l8 -8q-3 -21 -9 -40t-17.5 -33.5t-28.5 -23.5
t-41 -9q-50 0 -81 25.5t-48 63.5t-23 82.5t-6 82.5q0 27 5.5 71.5t20 87t38.5 73.5t61 31q16 0 27.5 -11.5t18 -29.5t10.5 -40t5.5 -43.5t2 -40t1.5 -29.5zM102 599q4 0 6 -5.5t3.5 -11.5t3 -11t4.5 -5q1 3 3.5 13.5t5.5 21.5t6.5 19.5t6.5 8.5l7 -8q-1 -4 -4 -16.5
t-7 -25.5t-9 -23t-9 -10q-3 0 -7 6t-7.5 14.5t-6 16l-3.5 10.5z" />
    <glyph glyph-name="Ccircumflex" unicode="&#x108;" horiz-adv-x="274" 
d="M188 302q-3 1 -4.5 15t-3.5 35t-5 45t-9 44.5t-16 34.5t-26 14q-20 0 -36 -15t-27.5 -38.5t-19.5 -52.5t-13.5 -57.5t-7.5 -53t-2 -38.5q0 -35 6 -75.5t22.5 -75.5t45 -58.5t72.5 -23.5q33 0 48.5 14t22 32t8.5 33.5t8 18.5l8 -8q-3 -21 -9 -40t-17.5 -33.5t-28.5 -23.5
t-41 -9q-50 0 -81 25.5t-48 63.5t-23 82.5t-6 82.5q0 27 5.5 71.5t20 87t38.5 73.5t61 31q16 0 27.5 -11.5t18 -29.5t10.5 -40t5.5 -43.5t2 -40t1.5 -29.5zM127 610q-6 -5 -10 -14t-8 -19.5t-8 -19.5t-10 -13l-8 10q3 6 7.5 18t10 24t12 21t14.5 9q3 0 8 -10t10 -23
t10 -25.5t8 -16.5l-7 -11q-5 0 -9.5 9t-8.5 21t-6.5 23.5t-4.5 16.5z" />
    <glyph glyph-name="Cdotaccent" unicode="&#x10a;" horiz-adv-x="274" 
d="M188 302q-3 1 -4.5 15t-3.5 35t-5 45t-9 44.5t-16 34.5t-26 14q-20 0 -36 -15t-27.5 -38.5t-19.5 -52.5t-13.5 -57.5t-7.5 -53t-2 -38.5q0 -35 6 -75.5t22.5 -75.5t45 -58.5t72.5 -23.5q33 0 48.5 14t22 32t8.5 33.5t8 18.5l8 -8q-3 -21 -9 -40t-17.5 -33.5t-28.5 -23.5
t-41 -9q-50 0 -81 25.5t-48 63.5t-23 82.5t-6 82.5q0 27 5.5 71.5t20 87t38.5 73.5t61 31q16 0 27.5 -11.5t18 -29.5t10.5 -40t5.5 -43.5t2 -40t1.5 -29.5zM114 558q-5 5 -7 15l7 5q6 0 11.5 -2.5t5.5 -10.5q0 -4 -3.5 -6t-6.5 -3l-7 2v0z" />
    <glyph glyph-name="Dcaron" unicode="&#x10e;" horiz-adv-x="278" 
d="M17 481l8 -8q0 -64 1 -127t3 -127q1 18 3.5 45.5t8 58.5t13.5 62t21.5 56t32 40.5t43.5 15.5t43 -13t30.5 -34t20.5 -47.5t13 -53.5t6.5 -51.5t1.5 -41.5q0 -19 -1 -42t-4.5 -47t-9 -46.5t-14.5 -39.5q-6 -11 -17 -26t-24.5 -28.5t-28.5 -23t-29 -9.5q-15 0 -23 11.5
t-11 24.5l8 7q4 -8 13 -17t18 -9q33 0 54 30t33.5 70.5t17 81.5t4.5 63q0 25 -4 63.5t-16 75t-33.5 63t-55.5 26.5q-28 0 -46.5 -31t-30 -78.5t-17 -105t-8 -111t-2.5 -96v-59.5l1 -8h-9l-7 7q-8 118 -10 235.5t-4 235.5zM119 599q4 0 6 -5.5t3.5 -11.5t3 -11t4.5 -5
q1 3 3.5 13.5t5.5 21.5t6.5 19.5t6.5 8.5l7 -8q-1 -4 -4 -16.5t-7 -25.5t-9 -23t-9 -10q-3 0 -7 6t-7.5 14.5t-6 16l-3.5 10.5z" />
    <glyph glyph-name="Dcroat" unicode="&#x110;" horiz-adv-x="278" 
d="M17 481l8 -8q0 -64 1 -127t3 -127q1 18 3.5 45.5t8 58.5t13.5 62t21.5 56t32 40.5t43.5 15.5t43 -13t30.5 -34t20.5 -47.5t13 -53.5t6.5 -51.5t1.5 -41.5q0 -19 -1 -42t-4.5 -47t-9 -46.5t-14.5 -39.5q-6 -11 -17 -26t-24.5 -28.5t-28.5 -23t-29 -9.5q-15 0 -23 11.5
t-11 24.5l8 7q4 -8 13 -17t18 -9q33 0 54 30t33.5 70.5t17 81.5t4.5 63q0 25 -4 63.5t-16 75t-33.5 63t-55.5 26.5q-28 0 -46.5 -31t-30 -78.5t-17 -105t-8 -111t-2.5 -96v-59.5l1 -8h-9l-7 7q-8 118 -10 235.5t-4 235.5zM-23 193q0 5 12.5 8.5t27.5 6t29 3.5t18 1t10.5 -1
t6.5 -7l-5 -7q-23 0 -46.5 -5.5t-46.5 -5.5z" />
    <glyph glyph-name="Ebreve" unicode="&#x114;" 
d="M7 259l7 7h5q2 54 5.5 107.5t3.5 107.5h-17l-8 7l7 7q46 2 91.5 6.5t91.5 10.5l7 -7q-2 -5 -23.5 -9t-49 -7t-52.5 -5t-33 -3q0 -54 -3.5 -106.5t-5.5 -106.5q29 5 59 9t59 10l8 -6q-2 -5 -19.5 -9.5t-39 -8t-41.5 -6t-27 -3.5v-39t2 -51.5t7 -55t15 -50t25.5 -36.5
t39.5 -14q26 0 51 12t46 27l4 1l7 -7l-4 -7q-21 -16 -46 -27.5t-52 -11.5q-28 0 -46.5 14t-31 36t-19 50t-9 57t-3 55t-0.5 45h-3zM82 601l6 -6l-2 -5q1 -4 2.5 -12t4.5 -15.5t8 -13t11 -5.5q9 0 15.5 9t11.5 19.5t8.5 19.5t6.5 9l7 -7q-1 -9 -5 -20t-10 -20.5t-14.5 -16
t-19.5 -6.5q-10 0 -17.5 7t-12 17t-6.5 20.5t-2 18.5q0 2 3 5z" />
    <glyph glyph-name="Ecaron" unicode="&#x11a;" 
d="M7 259l7 7h5q2 54 5.5 107.5t3.5 107.5h-17l-8 7l7 7q46 2 91.5 6.5t91.5 10.5l7 -7q-2 -5 -23.5 -9t-49 -7t-52.5 -5t-33 -3q0 -54 -3.5 -106.5t-5.5 -106.5q29 5 59 9t59 10l8 -6q-2 -5 -19.5 -9.5t-39 -8t-41.5 -6t-27 -3.5v-39t2 -51.5t7 -55t15 -50t25.5 -36.5
t39.5 -14q26 0 51 12t46 27l4 1l7 -7l-4 -7q-21 -16 -46 -27.5t-52 -11.5q-28 0 -46.5 14t-31 36t-19 50t-9 57t-3 55t-0.5 45h-3zM85 599q4 0 6 -5.5t3.5 -11.5t3 -11t4.5 -5q1 3 3.5 13.5t5.5 21.5t6.5 19.5t6.5 8.5l7 -8q-1 -4 -4 -16.5t-7 -25.5t-9 -23t-9 -10
q-3 0 -7 6t-7.5 14.5t-6 16l-3.5 10.5z" />
    <glyph glyph-name="Edotaccent" unicode="&#x116;" 
d="M7 259l7 7h5q2 54 5.5 107.5t3.5 107.5h-17l-8 7l7 7q46 2 91.5 6.5t91.5 10.5l7 -7q-2 -5 -23.5 -9t-49 -7t-52.5 -5t-33 -3q0 -54 -3.5 -106.5t-5.5 -106.5q29 5 59 9t59 10l8 -6q-2 -5 -19.5 -9.5t-39 -8t-41.5 -6t-27 -3.5v-39t2 -51.5t7 -55t15 -50t25.5 -36.5
t39.5 -14q26 0 51 12t46 27l4 1l7 -7l-4 -7q-21 -16 -46 -27.5t-52 -11.5q-28 0 -46.5 14t-31 36t-19 50t-9 57t-3 55t-0.5 45h-3zM113 558q-5 5 -7 15l7 5q6 0 11.5 -2.5t5.5 -10.5q0 -4 -3.5 -6t-6.5 -3l-7 2v0z" />
    <glyph glyph-name="Emacron" unicode="&#x112;" 
d="M7 259l7 7h5q2 54 5.5 107.5t3.5 107.5h-17l-8 7l7 7q46 2 91.5 6.5t91.5 10.5l7 -7q-2 -5 -23.5 -9t-49 -7t-52.5 -5t-33 -3q0 -54 -3.5 -106.5t-5.5 -106.5q29 5 59 9t59 10l8 -6q-2 -5 -19.5 -9.5t-39 -8t-41.5 -6t-27 -3.5v-39t2 -51.5t7 -55t15 -50t25.5 -36.5
t39.5 -14q26 0 51 12t46 27l4 1l7 -7l-4 -7q-21 -16 -46 -27.5t-52 -11.5q-28 0 -46.5 14t-31 36t-19 50t-9 57t-3 55t-0.5 45h-3zM66 556q0 5 12.5 8.5t27.5 6t29 3.5t18 1t10.5 -1t6.5 -7l-5 -7q-23 0 -46.5 -5.5t-46.5 -5.5z" />
    <glyph glyph-name="Eogonek" unicode="&#x118;" 
d="M7 259l7 7h5q2 54 5.5 107.5t3.5 107.5h-17l-8 7l7 7q46 2 91.5 6.5t91.5 10.5l7 -7q-2 -5 -23.5 -9t-49 -7t-52.5 -5t-33 -3q0 -54 -3.5 -106.5t-5.5 -106.5q29 5 59 9t59 10l8 -6q-2 -5 -19.5 -9.5t-39 -8t-41.5 -6t-27 -3.5v-39t2 -51.5t7 -55t15 -50t25.5 -36.5
t39.5 -14q26 0 51 12t46 27l4 1l7 -7l-4 -7q-21 -16 -46 -27.5t-52 -11.5q-28 0 -46.5 14t-31 36t-19 50t-9 57t-3 55t-0.5 45h-3zM224 49l6 -6q-8 -15 -16 -35.5t-8 -37.5q0 -8 9 -13l7 1l8 -8q-4 -9 -12 -9q-12 0 -20 6t-8 19q0 7 3 18t7.5 23t9.5 22.5t8 17.5z" />
    <glyph glyph-name="Gbreve" unicode="&#x11e;" horiz-adv-x="281" 
d="M150 499q7 0 16 -2t17.5 -6.5t14.5 -11t6 -14.5l-6 -7q-8 10 -20.5 18.5t-26.5 8.5q-39 0 -64.5 -29t-40 -70t-20 -84.5t-5.5 -72.5q0 -17 1.5 -46.5t7.5 -58t19.5 -50t37.5 -21.5q17 0 31 13t26 33.5t21 46.5t15.5 51t9.5 46.5t3 34.5q0 6 -2.5 24.5t-2.5 37.5
q0 17 3.5 28.5t12.5 11.5q4 0 6.5 -4.5t4 -10.5t2 -12t0.5 -8q0 -16 -4.5 -31.5t-4.5 -30.5q0 -44 11.5 -88.5t25.5 -90.5t25.5 -92.5t11.5 -93.5q0 -25 -7.5 -62t-22.5 -71t-38.5 -58.5t-55.5 -24.5q-20 0 -32.5 14.5t-19.5 34.5t-9.5 41.5t-2.5 36.5q0 22 7.5 55.5
t22 66.5t34 58.5t43.5 31.5l6 -6q-2 -8 -17.5 -22t-33.5 -38t-33 -61t-15 -92q0 -12 2 -30.5t8 -35t16.5 -28.5t27.5 -12q24 0 43 25.5t32.5 60t21 69t7.5 51.5q0 40 -7.5 79.5t-18 79.5t-21.5 79t-19 78q-4 -19 -12.5 -53.5t-22 -68t-32.5 -58.5t-44 -25q-28 0 -44 24
t-24 56.5t-10 66t-2 52.5q0 21 2.5 49t8.5 58t16.5 58.5t26 51t37 36.5t50.5 14zM105 601l6 -6l-2 -5q1 -4 2.5 -12t4.5 -15.5t8 -13t11 -5.5q9 0 15.5 9t11.5 19.5t8.5 19.5t6.5 9l7 -7q-1 -9 -5 -20t-10 -20.5t-14.5 -16t-19.5 -6.5q-10 0 -17.5 7t-12 17t-6.5 20.5
t-2 18.5q0 2 3 5z" />
    <glyph glyph-name="Gcircumflex" unicode="&#x11c;" horiz-adv-x="281" 
d="M150 499q7 0 16 -2t17.5 -6.5t14.5 -11t6 -14.5l-6 -7q-8 10 -20.5 18.5t-26.5 8.5q-39 0 -64.5 -29t-40 -70t-20 -84.5t-5.5 -72.5q0 -17 1.5 -46.5t7.5 -58t19.5 -50t37.5 -21.5q17 0 31 13t26 33.5t21 46.5t15.5 51t9.5 46.5t3 34.5q0 6 -2.5 24.5t-2.5 37.5
q0 17 3.5 28.5t12.5 11.5q4 0 6.5 -4.5t4 -10.5t2 -12t0.5 -8q0 -16 -4.5 -31.5t-4.5 -30.5q0 -44 11.5 -88.5t25.5 -90.5t25.5 -92.5t11.5 -93.5q0 -25 -7.5 -62t-22.5 -71t-38.5 -58.5t-55.5 -24.5q-20 0 -32.5 14.5t-19.5 34.5t-9.5 41.5t-2.5 36.5q0 22 7.5 55.5
t22 66.5t34 58.5t43.5 31.5l6 -6q-2 -8 -17.5 -22t-33.5 -38t-33 -61t-15 -92q0 -12 2 -30.5t8 -35t16.5 -28.5t27.5 -12q24 0 43 25.5t32.5 60t21 69t7.5 51.5q0 40 -7.5 79.5t-18 79.5t-21.5 79t-19 78q-4 -19 -12.5 -53.5t-22 -68t-32.5 -58.5t-44 -25q-28 0 -44 24
t-24 56.5t-10 66t-2 52.5q0 21 2.5 49t8.5 58t16.5 58.5t26 51t37 36.5t50.5 14zM144 610q-6 -5 -10 -14t-8 -19.5t-8 -19.5t-10 -13l-8 10q3 6 7.5 18t10 24t12 21t14.5 9q3 0 8 -10t10 -23t10 -25.5t8 -16.5l-7 -11q-5 0 -9.5 9t-8.5 21t-6.5 23.5t-4.5 16.5z" />
    <glyph glyph-name="Gcommaaccent" unicode="&#x122;" horiz-adv-x="281" 
d="M150 499q7 0 16 -2t17.5 -6.5t14.5 -11t6 -14.5l-6 -7q-8 10 -20.5 18.5t-26.5 8.5q-39 0 -64.5 -29t-40 -70t-20 -84.5t-5.5 -72.5q0 -17 1.5 -46.5t7.5 -58t19.5 -50t37.5 -21.5q17 0 31 13t26 33.5t21 46.5t15.5 51t9.5 46.5t3 34.5q0 6 -2.5 24.5t-2.5 37.5
q0 17 3.5 28.5t12.5 11.5q4 0 6.5 -4.5t4 -10.5t2 -12t0.5 -8q0 -16 -4.5 -31.5t-4.5 -30.5q0 -44 11.5 -88.5t25.5 -90.5t25.5 -92.5t11.5 -93.5q0 -25 -7.5 -62t-22.5 -71t-38.5 -58.5t-55.5 -24.5q-20 0 -32.5 14.5t-19.5 34.5t-9.5 41.5t-2.5 36.5q0 22 7.5 55.5
t22 66.5t34 58.5t43.5 31.5l6 -6q-2 -8 -17.5 -22t-33.5 -38t-33 -61t-15 -92q0 -12 2 -30.5t8 -35t16.5 -28.5t27.5 -12q24 0 43 25.5t32.5 60t21 69t7.5 51.5q0 40 -7.5 79.5t-18 79.5t-21.5 79t-19 78q-4 -19 -12.5 -53.5t-22 -68t-32.5 -58.5t-44 -25q-28 0 -44 24
t-24 56.5t-10 66t-2 52.5q0 21 2.5 49t8.5 58t16.5 58.5t26 51t37 36.5t50.5 14zM149.002 527.002l-7 -5.99902q-7 0 -10.999 5.49902q-4 5.5 -6 12.999q-2 7.5 -3 14.999q-1 7.5 -1 12.5q0 3 1 14.999t3 24.498t5 22.499q3 9.99902 7.99902 9.99902l7 -7.99902
q0 -15.999 -5 -31.498t-5 -32.498q0 -8 1 -18.499t9 -15.499z" />
    <glyph glyph-name="Gdotaccent" unicode="&#x120;" horiz-adv-x="281" 
d="M150 499q7 0 16 -2t17.5 -6.5t14.5 -11t6 -14.5l-6 -7q-8 10 -20.5 18.5t-26.5 8.5q-39 0 -64.5 -29t-40 -70t-20 -84.5t-5.5 -72.5q0 -17 1.5 -46.5t7.5 -58t19.5 -50t37.5 -21.5q17 0 31 13t26 33.5t21 46.5t15.5 51t9.5 46.5t3 34.5q0 6 -2.5 24.5t-2.5 37.5
q0 17 3.5 28.5t12.5 11.5q4 0 6.5 -4.5t4 -10.5t2 -12t0.5 -8q0 -16 -4.5 -31.5t-4.5 -30.5q0 -44 11.5 -88.5t25.5 -90.5t25.5 -92.5t11.5 -93.5q0 -25 -7.5 -62t-22.5 -71t-38.5 -58.5t-55.5 -24.5q-20 0 -32.5 14.5t-19.5 34.5t-9.5 41.5t-2.5 36.5q0 22 7.5 55.5
t22 66.5t34 58.5t43.5 31.5l6 -6q-2 -8 -17.5 -22t-33.5 -38t-33 -61t-15 -92q0 -12 2 -30.5t8 -35t16.5 -28.5t27.5 -12q24 0 43 25.5t32.5 60t21 69t7.5 51.5q0 40 -7.5 79.5t-18 79.5t-21.5 79t-19 78q-4 -19 -12.5 -53.5t-22 -68t-32.5 -58.5t-44 -25q-28 0 -44 24
t-24 56.5t-10 66t-2 52.5q0 21 2.5 49t8.5 58t16.5 58.5t26 51t37 36.5t50.5 14zM135 558q-5 5 -7 15l7 5q6 0 11.5 -2.5t5.5 -10.5q0 -4 -3.5 -6t-6.5 -3l-7 2v0z" />
    <glyph glyph-name="Hbar" unicode="&#x126;" horiz-adv-x="346" 
d="M339 399q0 -6 -7 -8q-61 -18 -119.5 -33.5t-117.5 -40.5q-33 -14 -65 -34.5t-64 -33.5q-3 -1 -8 -1q-4 0 -4 6q0 11 24.5 25.5t62 30.5t83 32t87 29t74 22.5t45.5 12.5zM32 191q-4 -2 -12 -8t-12 -6l-7 7l3 6l27 18l-4 138t-3 138l7 7l8 -7q1 -67 2.5 -133.5t4.5 -133.5
q47 29 95 54.5t101 40.5q2 47 3.5 93t1.5 93l8 7l8 -7l-7 -181q18 4 36 7t36 4l8 -7q-2 -3 -13 -6t-24.5 -5.5t-26 -5t-16.5 -3.5q-1 -14 -1 -27.5v-27.5q0 -50 6.5 -99.5t6.5 -97.5q0 -7 -5 -9q-8 1 -12.5 22.5t-7 50.5t-3 59.5t-0.5 50.5q0 19 -0.5 37t1.5 37
q-53 -16 -100.5 -41.5t-94.5 -54.5q3 -36 3.5 -73t1.5 -74t3.5 -73t10.5 -72l-6 -9q-7 0 -11.5 16t-7.5 41.5t-5 56.5t-2.5 61.5t-0.5 57v42.5v16z" />
    <glyph glyph-name="Hcircumflex" unicode="&#x124;" horiz-adv-x="346" 
d="M32 191q-4 -2 -12 -8t-12 -6l-7 7l3 6l27 18l-4 138t-3 138l7 7l8 -7q1 -67 2.5 -133.5t4.5 -133.5q47 29 95 54.5t101 40.5q2 47 3.5 93t1.5 93l8 7l8 -7l-7 -181q18 4 36 7t36 4l8 -7q-2 -3 -13 -6t-24.5 -5.5t-26 -5t-16.5 -3.5q-1 -14 -1 -27.5v-27.5
q0 -50 6.5 -99.5t6.5 -97.5q0 -7 -5 -9q-8 1 -12.5 22.5t-7 50.5t-3 59.5t-0.5 50.5q0 19 -0.5 37t1.5 37q-53 -16 -100.5 -41.5t-94.5 -54.5q3 -36 3.5 -73t1.5 -74t3.5 -73t10.5 -72l-6 -9q-7 0 -11.5 16t-7.5 41.5t-5 56.5t-2.5 61.5t-0.5 57v42.5v16v0zM145 610
q-6 -5 -10 -14t-8 -19.5t-8 -19.5t-10 -13l-8 10q3 6 7.5 18t10 24t12 21t14.5 9q3 0 8 -10t10 -23t10 -25.5t8 -16.5l-7 -11q-5 0 -9.5 9t-8.5 21t-6.5 23.5t-4.5 16.5z" />
    <glyph glyph-name="Ibreve" unicode="&#x12c;" horiz-adv-x="100" 
d="M36 472l7 -8q2 -27 2 -54v-54v-116q0 -67 4 -132.5t19 -128.5l-5 -9q-11 1 -17 27t-9.5 68t-4.5 95t-1.5 107.5t-0.5 106t-1 90.5zM14 601l6 -6l-2 -5q1 -4 2.5 -12t4.5 -15.5t8 -13t11 -5.5q9 0 15.5 9t11.5 19.5t8.5 19.5t6.5 9l7 -7q-1 -9 -5 -20t-10 -20.5t-14.5 -16
t-19.5 -6.5q-10 0 -17.5 7t-12 17t-6.5 20.5t-2 18.5q0 2 3 5z" />
    <glyph glyph-name="Idotaccent" unicode="&#x130;" horiz-adv-x="100" 
d="M36 472l7 -8q2 -27 2 -54v-54v-116q0 -67 4 -132.5t19 -128.5l-5 -9q-11 1 -17 27t-9.5 68t-4.5 95t-1.5 107.5t-0.5 106t-1 90.5zM32 558q-5 5 -7 15l7 5q6 0 11.5 -2.5t5.5 -10.5q0 -4 -3.5 -6t-6.5 -3l-7 2v0z" />
    <glyph glyph-name="Imacron" unicode="&#x12a;" horiz-adv-x="100" 
d="M36 472l7 -8q2 -27 2 -54v-54v-116q0 -67 4 -132.5t19 -128.5l-5 -9q-11 1 -17 27t-9.5 68t-4.5 95t-1.5 107.5t-0.5 106t-1 90.5zM-17 556q0 5 12.5 8.5t27.5 6t29 3.5t18 1t10.5 -1t6.5 -7l-5 -7q-23 0 -46.5 -5.5t-46.5 -5.5z" />
    <glyph glyph-name="Iogonek" unicode="&#x12e;" horiz-adv-x="100" 
d="M36 472l7 -8q2 -27 2 -54v-54v-116q0 -67 4 -132.5t19 -128.5l-5 -9q-11 1 -17 27t-9.5 68t-4.5 95t-1.5 107.5t-0.5 106t-1 90.5zM62 -17l6 -6q-8 -15 -16 -35.5t-8 -37.5q0 -8 9 -13l7 1l8 -8q-4 -9 -12 -9q-12 0 -20 6t-8 19q0 7 3 18t7.5 23t9.5 22.5t8 17.5z" />
    <glyph glyph-name="Itilde" unicode="&#x128;" horiz-adv-x="100" 
d="M36 472l7 -8q2 -27 2 -54v-54v-116q0 -67 4 -132.5t19 -128.5l-5 -9q-11 1 -17 27t-9.5 68t-4.5 95t-1.5 107.5t-0.5 106t-1 90.5zM0 549l-7 8q1 6 4.5 16t9 19.5t12 17t13.5 7.5q6 0 11.5 -7.5t10 -17.5t8 -20t5.5 -14h1q7 11 12.5 21.5t10.5 21.5l8 -7q-1 -7 -3 -16
t-6.5 -16.5t-11 -13t-15.5 -5.5l-6 4q-8 13 -12 27.5t-14 26.5q-4 -1 -8 -7t-7 -13.5t-5.5 -14.5t-2.5 -11z" />
    <glyph glyph-name="Jcircumflex" unicode="&#x134;" horiz-adv-x="124" 
d="M48 475l7 -7q3 -45 10 -89.5t14.5 -88.5t13 -88.5t5.5 -88.5q0 -40 -7 -81t-22 -79t-40 -70t-61 -54q-10 -6 -22 -12.5t-24 -6.5q-16 0 -16 16l8 7l7 -8q46 12 77 43t49.5 71.5t26 86t7.5 87.5q0 45 -5.5 89.5t-12.5 88.5t-13.5 88t-9.5 89zM47 602q-6 -5 -10 -14
t-8 -19.5t-8 -19.5t-10 -13l-8 10q3 6 7.5 18t10 24t12 21t14.5 9q3 0 8 -10t10 -23t10 -25.5t8 -16.5l-7 -11q-5 0 -9.5 9t-8.5 21t-6.5 23.5t-4.5 16.5z" />
    <glyph glyph-name="Kcommaaccent" unicode="&#x136;" horiz-adv-x="203" 
d="M166 457l9 -8q-11 -33 -33 -74t-44.5 -83t-39.5 -82t-17 -71q0 -46 29.5 -64.5t70.5 -18.5q4 0 14.5 1t21.5 1t19 -2t8 -7l-8 -7q-14 0 -27 -0.5t-24 -0.5q-24 0 -43.5 2.5t-34 12.5t-24.5 28.5t-15 50.5v-66t1 -66l-8 -7l-8 7q0 123 -1.5 244t-1.5 244l7 8l7 -8
q0 -85 1 -168t2 -168q7 40 24.5 76.5t37.5 72.5t39.5 72t30.5 75zM72 -4l7 6q7 0 11 -5.5t6 -13t3 -15t1 -12.5q0 -3 -1 -15t-3 -24.5t-5 -22.5t-8 -10l-7 8q0 16 5 31.5t5 32.5q0 8 -1 18.5t-9 15.5z" />
    <glyph glyph-name="Lacute" unicode="&#x139;" horiz-adv-x="194" 
d="M28 515l7 -7q-3 -61 -7 -122t-4 -122q0 -13 0.5 -36.5t3 -51.5t7 -57t13 -52.5t21 -38.5t31.5 -15q13 0 23.5 5t20.5 11.5t19 13t19 8.5l6 -7q-1 -6 -12.5 -14t-25.5 -15t-28 -12t-20 -5q-23 0 -39 15.5t-26 39.5t-15.5 54t-8 59.5t-3 55t-0.5 41.5q0 62 4 122.5t7 122.5
zM-7 545l14.5 14.5l21.5 21.5t21 19.5t14 9.5l6 -6q0 -4 -9.5 -15t-21.5 -22.5t-23.5 -20.5t-15.5 -9l-7 8v0z" />
    <glyph glyph-name="Lcaron" unicode="&#x13d;" horiz-adv-x="194" 
d="M28 515l7 -7q-3 -61 -7 -122t-4 -122q0 -13 0.5 -36.5t3 -51.5t7 -57t13 -52.5t21 -38.5t31.5 -15q13 0 23.5 5t20.5 11.5t19 13t19 8.5l6 -7q-1 -6 -12.5 -14t-25.5 -15t-28 -12t-20 -5q-23 0 -39 15.5t-26 39.5t-15.5 54t-8 59.5t-3 55t-0.5 41.5q0 62 4 122.5t7 122.5
zM112 524q0 -7 -4 -25.5t-10.5 -39t-14 -36t-13.5 -16.5l-8 7q2 14 7.5 27t11.5 26t11 27t5 30l8 7z" />
    <glyph glyph-name="Lcommaaccent" unicode="&#x13b;" horiz-adv-x="194" 
d="M28 515l7 -7q-3 -61 -7 -122t-4 -122q0 -13 0.5 -36.5t3 -51.5t7 -57t13 -52.5t21 -38.5t31.5 -15q13 0 23.5 5t20.5 11.5t19 13t19 8.5l6 -7q-1 -6 -12.5 -14t-25.5 -15t-28 -12t-20 -5q-23 0 -39 15.5t-26 39.5t-15.5 54t-8 59.5t-3 55t-0.5 41.5q0 62 4 122.5t7 122.5
zM116 -32l7 6q7 0 11 -5.5t6 -13t3 -15t1 -12.5q0 -3 -1 -15t-3 -24.5t-5 -22.5t-8 -10l-7 8q0 16 5 31.5t5 32.5q0 8 -1 18.5t-9 15.5z" />
    <glyph glyph-name="Ldot" unicode="&#x13f;" horiz-adv-x="194" 
d="M28 515l7 -7q-3 -61 -7 -122t-4 -122q0 -13 0.5 -36.5t3 -51.5t7 -57t13 -52.5t21 -38.5t31.5 -15q13 0 23.5 5t20.5 11.5t19 13t19 8.5l6 -7q-1 -6 -12.5 -14t-25.5 -15t-28 -12t-20 -5q-23 0 -39 15.5t-26 39.5t-15.5 54t-8 59.5t-3 55t-0.5 41.5q0 62 4 122.5t7 122.5
zM79.2002 211.05l-8.39941 -8.40039h-3.60059q-6 3.15039 -6 10.5q0 8.40039 8.40039 10.5l8.39941 -7.34961z" />
    <glyph glyph-name="Nacute" unicode="&#x143;" horiz-adv-x="260" 
d="M13 406l8 -7q2 -77 11 -152t14 -152q3 14 9.5 47t16.5 74t22 85t26 80.5t29.5 60t32.5 23.5q9 0 15.5 -14t11 -36t6.5 -48t3.5 -50t2 -43.5t0.5 -26.5q4 -80 13.5 -152.5t39.5 -148.5v-4l-7 -7l-6 5q-15 39 -24.5 76.5t-15.5 75t-9 75.5t-5 80q0 7 -0.5 24t-1 39t-2 45.5
t-5 43t-8 32t-11.5 12.5q-13 0 -27 -26t-27.5 -66t-25.5 -88.5t-22.5 -93t-18 -79.5l-10.5 -49l-8 -6l-8 5l1 2q-2 15 -3 30t-1 30q0 75 -10.5 148.5t-12.5 148.5zM100 483l14.5 14.5l21.5 21.5t21 19.5t14 9.5l6 -6q0 -4 -9.5 -15t-21.5 -22.5t-23.5 -20.5t-15.5 -9l-7 8v0
z" />
    <glyph glyph-name="Ncaron" unicode="&#x147;" horiz-adv-x="260" 
d="M13 406l8 -7q2 -77 11 -152t14 -152q3 14 9.5 47t16.5 74t22 85t26 80.5t29.5 60t32.5 23.5q9 0 15.5 -14t11 -36t6.5 -48t3.5 -50t2 -43.5t0.5 -26.5q4 -80 13.5 -152.5t39.5 -148.5v-4l-7 -7l-6 5q-15 39 -24.5 76.5t-15.5 75t-9 75.5t-5 80q0 7 -0.5 24t-1 39t-2 45.5
t-5 43t-8 32t-11.5 12.5q-13 0 -27 -26t-27.5 -66t-25.5 -88.5t-22.5 -93t-18 -79.5l-10.5 -49l-8 -6l-8 5l1 2q-2 15 -3 30t-1 30q0 75 -10.5 148.5t-12.5 148.5zM156 559q4 0 6 -5.5t3.5 -11.5t3 -11t4.5 -5q1 3 3.5 13.5t5.5 21.5t6.5 19.5t6.5 8.5l7 -8q-1 -4 -4 -16.5
t-7 -25.5t-9 -23t-9 -10q-3 0 -7 6t-7.5 14.5t-6 16l-3.5 10.5z" />
    <glyph glyph-name="Ncommaaccent" unicode="&#x145;" horiz-adv-x="260" 
d="M13 406l8 -7q2 -77 11 -152t14 -152q3 14 9.5 47t16.5 74t22 85t26 80.5t29.5 60t32.5 23.5q9 0 15.5 -14t11 -36t6.5 -48t3.5 -50t2 -43.5t0.5 -26.5q4 -80 13.5 -152.5t39.5 -148.5v-4l-7 -7l-6 5q-15 39 -24.5 76.5t-15.5 75t-9 75.5t-5 80q0 7 -0.5 24t-1 39t-2 45.5
t-5 43t-8 32t-11.5 12.5q-13 0 -27 -26t-27.5 -66t-25.5 -88.5t-22.5 -93t-18 -79.5l-10.5 -49l-8 -6l-8 5l1 2q-2 15 -3 30t-1 30q0 75 -10.5 148.5t-12.5 148.5zM129 24l7 6q7 0 11 -5.5t6 -13t3 -15t1 -12.5q0 -3 -1 -15t-3 -24.5t-5 -22.5t-8 -10l-7 8q0 16 5 31.5
t5 32.5q0 8 -1 18.5t-9 15.5z" />
    <glyph glyph-name="Obreve" unicode="&#x14e;" horiz-adv-x="200" 
d="M111 453l-7 -7q-2 0 -3.5 0.5t-3.5 0.5q-17 -2 -29.5 -17t-21 -37.5t-14.5 -49t-9 -52t-4 -47t-1 -33.5q0 -17 2.5 -48.5t11 -63t23.5 -55t39 -23.5q25 0 40.5 24.5t24 57.5t11.5 66t3 50q0 25 -3 54.5t-11.5 58t-23.5 52t-40 37.5l-1 5l8 7q26 -6 42.5 -33t25.5 -62
t12.5 -70t3.5 -56q0 -20 -3.5 -55t-14 -69t-29 -58.5t-47.5 -24.5t-46 27t-26 63.5t-12 73t-3 55.5q0 12 1.5 35t5.5 49.5t10.5 54t17 50t24.5 36.5t33 14q2 0 4.5 -1t4.5 -2zM59 596l6 -6l-2 -5q1 -4 2.5 -12t4.5 -15.5t8 -13t11 -5.5q9 0 15.5 9t11.5 19.5t8.5 19.5t6.5 9
l7 -7q-1 -9 -5 -20t-10 -20.5t-14.5 -16t-19.5 -6.5q-10 0 -17.5 7t-12 17t-6.5 20.5t-2 18.5q0 2 3 5z" />
    <glyph glyph-name="Ohungarumlaut" unicode="&#x150;" horiz-adv-x="200" 
d="M111 453l-7 -7q-2 0 -3.5 0.5t-3.5 0.5q-17 -2 -29.5 -17t-21 -37.5t-14.5 -49t-9 -52t-4 -47t-1 -33.5q0 -17 2.5 -48.5t11 -63t23.5 -55t39 -23.5q25 0 40.5 24.5t24 57.5t11.5 66t3 50q0 25 -3 54.5t-11.5 58t-23.5 52t-40 37.5l-1 5l8 7q26 -6 42.5 -33t25.5 -62
t12.5 -70t3.5 -56q0 -20 -3.5 -55t-14 -69t-29 -58.5t-47.5 -24.5t-46 27t-26 63.5t-12 73t-3 55.5q0 12 1.5 35t5.5 49.5t10.5 54t17 50t24.5 36.5t33 14q2 0 4.5 -1t4.5 -2zM115 575q-5 -5 -15 -17.5t-20.5 -26t-19.5 -24.5t-13 -11l-6 7q1 6 9 18t18.5 25t21 24t15.5 16
l4 1l7 -8zM159 575q-5 -5 -15 -17.5t-20.5 -26t-20 -24t-12.5 -11.5l-6 10q14 22 29.5 42.5t34.5 37.5l4 1l7 -8z" />
    <glyph glyph-name="Omacron" unicode="&#x14c;" horiz-adv-x="200" 
d="M111 453l-7 -7q-2 0 -3.5 0.5t-3.5 0.5q-17 -2 -29.5 -17t-21 -37.5t-14.5 -49t-9 -52t-4 -47t-1 -33.5q0 -17 2.5 -48.5t11 -63t23.5 -55t39 -23.5q25 0 40.5 24.5t24 57.5t11.5 66t3 50q0 25 -3 54.5t-11.5 58t-23.5 52t-40 37.5l-1 5l8 7q26 -6 42.5 -33t25.5 -62
t12.5 -70t3.5 -56q0 -20 -3.5 -55t-14 -69t-29 -58.5t-47.5 -24.5t-46 27t-26 63.5t-12 73t-3 55.5q0 12 1.5 35t5.5 49.5t10.5 54t17 50t24.5 36.5t33 14q2 0 4.5 -1t4.5 -2zM34 524q0 5 12.5 8.5t27.5 6t29 3.5t18 1t10.5 -1t6.5 -7l-5 -7q-23 0 -46.5 -5.5t-46.5 -5.5z
" />
    <glyph glyph-name="Oslashacute" unicode="&#x1fe;" horiz-adv-x="200" 
d="M111 453l-7 -7q-2 0 -3.5 0.5t-3.5 0.5q-17 -2 -29.5 -17t-21 -37.5t-14.5 -49t-9 -52t-4 -47t-1 -33.5q0 -17 2.5 -48.5t11 -63t23.5 -55t39 -23.5q25 0 40.5 24.5t24 57.5t11.5 66t3 50q0 25 -3 54.5t-11.5 58t-23.5 52t-40 37.5l-1 5l8 7q26 -6 42.5 -33t25.5 -62
t12.5 -70t3.5 -56q0 -20 -3.5 -55t-14 -69t-29 -58.5t-47.5 -24.5t-46 27t-26 63.5t-12 73t-3 55.5q0 12 1.5 35t5.5 49.5t10.5 54t17 50t24.5 36.5t33 14q2 0 4.5 -1t4.5 -2zM195 482l7 -6v-3q-27 -64 -54 -128.5t-52 -129.5t-46.5 -131t-37.5 -134l-8 -6l-7 8
q32 137 85 267.5t107 260.5zM47 523l14.5 14.5l21.5 21.5t21 19.5t14 9.5l6 -6q0 -4 -9.5 -15t-21.5 -22.5t-23.5 -20.5t-15.5 -9l-7 8v0z" />
    <glyph glyph-name="Racute" unicode="&#x154;" horiz-adv-x="327" 
d="M13 448l8 -7q2 -41 5 -80.5t5 -80.5q1 19 7 52.5t17.5 65.5t29.5 56t43 24q14 0 23 -10.5t14 -25.5t6.5 -31t1.5 -26q0 -37 -8 -72t-21 -68t-30.5 -65t-35.5 -63q63 -23 125 -45.5t123 -50.5l5 -8l-9 -7q-30 14 -74.5 31.5t-85.5 33t-70.5 28t-29.5 16.5q19 28 36 62
t30 71t21 74t8 70q0 6 -1.5 18t-5.5 24t-10 21t-15 9q-16 0 -29 -17.5t-23 -45.5t-17.5 -61t-12 -65t-6.5 -57.5t-2 -37.5q0 -43 2.5 -85.5t2.5 -85.5l-8 -5l-6 6q0 109 -7.5 215.5t-13.5 215.5zM73 519l14.5 14.5l21.5 21.5t21 19.5t14 9.5l6 -6q0 -4 -9.5 -15t-21.5 -22.5
t-23.5 -20.5t-15.5 -9l-7 8v0z" />
    <glyph glyph-name="Rcaron" unicode="&#x158;" horiz-adv-x="327" 
d="M13 448l8 -7q2 -41 5 -80.5t5 -80.5q1 19 7 52.5t17.5 65.5t29.5 56t43 24q14 0 23 -10.5t14 -25.5t6.5 -31t1.5 -26q0 -37 -8 -72t-21 -68t-30.5 -65t-35.5 -63q63 -23 125 -45.5t123 -50.5l5 -8l-9 -7q-30 14 -74.5 31.5t-85.5 33t-70.5 28t-29.5 16.5q19 28 36 62
t30 71t21 74t8 70q0 6 -1.5 18t-5.5 24t-10 21t-15 9q-16 0 -29 -17.5t-23 -45.5t-17.5 -61t-12 -65t-6.5 -57.5t-2 -37.5q0 -43 2.5 -85.5t2.5 -85.5l-8 -5l-6 6q0 109 -7.5 215.5t-13.5 215.5zM85 569q4 0 6 -5.5t3.5 -11.5t3 -11t4.5 -5q1 3 3.5 13.5t5.5 21.5t6.5 19.5
t6.5 8.5l7 -8q-1 -4 -4 -16.5t-7 -25.5t-9 -23t-9 -10q-3 0 -7 6t-7.5 14.5t-6 16l-3.5 10.5z" />
    <glyph glyph-name="Rcommaaccent" unicode="&#x156;" horiz-adv-x="327" 
d="M13 448l8 -7q2 -41 5 -80.5t5 -80.5q1 19 7 52.5t17.5 65.5t29.5 56t43 24q14 0 23 -10.5t14 -25.5t6.5 -31t1.5 -26q0 -37 -8 -72t-21 -68t-30.5 -65t-35.5 -63q63 -23 125 -45.5t123 -50.5l5 -8l-9 -7q-30 14 -74.5 31.5t-85.5 33t-70.5 28t-29.5 16.5q19 28 36 62
t30 71t21 74t8 70q0 6 -1.5 18t-5.5 24t-10 21t-15 9q-16 0 -29 -17.5t-23 -45.5t-17.5 -61t-12 -65t-6.5 -57.5t-2 -37.5q0 -43 2.5 -85.5t2.5 -85.5l-8 -5l-6 6q0 109 -7.5 215.5t-13.5 215.5zM127 5l7 6q7 0 11 -5.5t6 -13t3 -15t1 -12.5q0 -3 -1 -15t-3 -24.5t-5 -22.5
t-8 -10l-7 8q0 16 5 31.5t5 32.5q0 8 -1 18.5t-9 15.5z" />
    <glyph glyph-name="Sacute" unicode="&#x15a;" horiz-adv-x="348" 
d="M223 480l-6 -8q-4 0 -10 4t-14 9.5t-18 9.5t-22 4q-23 0 -43.5 -12t-35.5 -31t-24 -42t-9 -44q0 -37 22 -60.5t55 -40t71 -29t71 -26.5t55 -33t22 -49q0 -35 -23 -62.5t-56 -46t-70 -28t-65 -9.5q-17 0 -37 4.5t-37.5 13.5t-29.5 23.5t-12 34.5q0 9 5.5 20.5t13 24
t15 23.5t12.5 19l6 3l8 -6v-3q-13 -18 -27.5 -38.5t-14.5 -44.5q0 -18 11 -29.5t27 -18t33.5 -9t31.5 -2.5q27 0 60.5 9t63 26t50 41.5t20.5 56.5q0 26 -22 42.5t-54.5 30t-71 25.5t-71 29.5t-54.5 42t-22 62.5q0 25 10 51.5t27.5 47.5t41 34.5t50.5 13.5q20 0 34.5 -8.5
t29.5 -19.5zM94 557l14.5 14.5l21.5 21.5t21 19.5t14 9.5l6 -6q0 -4 -9.5 -15t-21.5 -22.5t-23.5 -20.5t-15.5 -9l-7 8v0z" />
    <glyph glyph-name="Scedilla" unicode="&#x15e;" horiz-adv-x="348" 
d="M223 480l-6 -8q-4 0 -10 4t-14 9.5t-18 9.5t-22 4q-23 0 -43.5 -12t-35.5 -31t-24 -42t-9 -44q0 -37 22 -60.5t55 -40t71 -29t71 -26.5t55 -33t22 -49q0 -35 -23 -62.5t-56 -46t-70 -28t-65 -9.5q-17 0 -37 4.5t-37.5 13.5t-29.5 23.5t-12 34.5q0 9 5.5 20.5t13 24
t15 23.5t12.5 19l6 3l8 -6v-3q-13 -18 -27.5 -38.5t-14.5 -44.5q0 -18 11 -29.5t27 -18t33.5 -9t31.5 -2.5q27 0 60.5 9t63 26t50 41.5t20.5 56.5q0 26 -22 42.5t-54.5 30t-71 25.5t-71 29.5t-54.5 42t-22 62.5q0 25 10 51.5t27.5 47.5t41 34.5t50.5 13.5q20 0 34.5 -8.5
t29.5 -19.5zM161 1l8 -7q0 -6 -0.5 -13t-0.5 -14q0 -12 5 -18.5t11.5 -12t11.5 -10.5t5 -14q0 -13 -15 -24t-24 -16l-7 8q0 3 5 5.5t10.5 5.5t10.5 7.5t5 12.5q0 7 -5.5 11.5t-11.5 9t-11.5 12t-5.5 22.5q0 7 0.5 14t1.5 14z" />
    <glyph glyph-name="Scircumflex" unicode="&#x15c;" horiz-adv-x="348" 
d="M223 480l-6 -8q-4 0 -10 4t-14 9.5t-18 9.5t-22 4q-23 0 -43.5 -12t-35.5 -31t-24 -42t-9 -44q0 -37 22 -60.5t55 -40t71 -29t71 -26.5t55 -33t22 -49q0 -35 -23 -62.5t-56 -46t-70 -28t-65 -9.5q-17 0 -37 4.5t-37.5 13.5t-29.5 23.5t-12 34.5q0 9 5.5 20.5t13 24
t15 23.5t12.5 19l6 3l8 -6v-3q-13 -18 -27.5 -38.5t-14.5 -44.5q0 -18 11 -29.5t27 -18t33.5 -9t31.5 -2.5q27 0 60.5 9t63 26t50 41.5t20.5 56.5q0 26 -22 42.5t-54.5 30t-71 25.5t-71 29.5t-54.5 42t-22 62.5q0 25 10 51.5t27.5 47.5t41 34.5t50.5 13.5q20 0 34.5 -8.5
t29.5 -19.5zM148 610q-6 -5 -10 -14t-8 -19.5t-8 -19.5t-10 -13l-8 10q3 6 7.5 18t10 24t12 21t14.5 9q3 0 8 -10t10 -23t10 -25.5t8 -16.5l-7 -11q-5 0 -9.5 9t-8.5 21t-6.5 23.5t-4.5 16.5z" />
    <glyph glyph-name="Scommaaccent" unicode="&#x218;" horiz-adv-x="348" 
d="M223 480l-6 -8q-4 0 -10 4t-14 9.5t-18 9.5t-22 4q-23 0 -43.5 -12t-35.5 -31t-24 -42t-9 -44q0 -37 22 -60.5t55 -40t71 -29t71 -26.5t55 -33t22 -49q0 -35 -23 -62.5t-56 -46t-70 -28t-65 -9.5q-17 0 -37 4.5t-37.5 13.5t-29.5 23.5t-12 34.5q0 9 5.5 20.5t13 24
t15 23.5t12.5 19l6 3l8 -6v-3q-13 -18 -27.5 -38.5t-14.5 -44.5q0 -18 11 -29.5t27 -18t33.5 -9t31.5 -2.5q27 0 60.5 9t63 26t50 41.5t20.5 56.5q0 26 -22 42.5t-54.5 30t-71 25.5t-71 29.5t-54.5 42t-22 62.5q0 25 10 51.5t27.5 47.5t41 34.5t50.5 13.5q20 0 34.5 -8.5
t29.5 -19.5zM153 -45l7 6q7 0 11 -5.5t6 -13t3 -15t1 -12.5q0 -3 -1 -15t-3 -24.5t-5 -22.5t-8 -10l-7 8q0 16 5 31.5t5 32.5q0 8 -1 18.5t-9 15.5z" />
    <glyph glyph-name="Tbar" unicode="&#x166;" horiz-adv-x="380" 
d="M101 343q-9 0 -9 7t12.5 13t31 11t41.5 9.5t44 7.5t37.5 4.5t23.5 1.5l9 -7q0 -6 -7 -8q-21 -3 -40.5 -5t-38.5 -5t-38 -7t-40 -12q-1 0 -5 -2t-8.5 -3.5t-8 -3t-4.5 -1.5zM184 511q5 -3 6.5 -15t1.5 -25v-22q43 11 86.5 17t88.5 8l7 -7l-6 -7q-45 -3 -88 -9.5t-87 -16.5
q2 -102 10 -202.5t24 -200.5l-7 -9l-7 7q-15 100 -23.5 200t-11.5 202q-14 -4 -38 -12t-49 -16t-47 -15t-31 -8l-8 7q1 10 24 19.5t53 17.5t57.5 14t37.5 8l-1 58z" />
    <glyph glyph-name="Tcaron" unicode="&#x164;" horiz-adv-x="380" 
d="M184 511q5 -3 6.5 -15t1.5 -25v-22q43 11 86.5 17t88.5 8l7 -7l-6 -7q-45 -3 -88 -9.5t-87 -16.5q2 -102 10 -202.5t24 -200.5l-7 -9l-7 7q-15 100 -23.5 200t-11.5 202q-14 -4 -38 -12t-49 -16t-47 -15t-31 -8l-8 7q1 10 24 19.5t53 17.5t57.5 14t37.5 8l-1 58zM164 597
q4 0 6 -5.5t3.5 -11.5t3 -11t4.5 -5q1 3 3.5 13.5t5.5 21.5t6.5 19.5t6.5 8.5l7 -8q-1 -4 -4 -16.5t-7 -25.5t-9 -23t-9 -10q-3 0 -7 6t-7.5 14.5t-6 16l-3.5 10.5z" />
    <glyph glyph-name="Tcommaaccent" unicode="&#x162;" horiz-adv-x="380" 
d="M184 511q5 -3 6.5 -15t1.5 -25v-22q43 11 86.5 17t88.5 8l7 -7l-6 -7q-45 -3 -88 -9.5t-87 -16.5q2 -102 10 -202.5t24 -200.5l-7 -9l-7 7q-15 100 -23.5 200t-11.5 202q-14 -4 -38 -12t-49 -16t-47 -15t-31 -8l-8 7q1 10 24 19.5t53 17.5t57.5 14t37.5 8l-1 58zM219 -19
l7 6q7 0 11 -5.5t6 -13t3 -15t1 -12.5q0 -3 -1 -15t-3 -24.5t-5 -22.5t-8 -10l-7 8q0 16 5 31.5t5 32.5q0 8 -1 18.5t-9 15.5z" />
    <glyph glyph-name="Ubreve" unicode="&#x16c;" horiz-adv-x="253" 
d="M44 464l7 -7q-3 -84 -15 -167t-12 -168q0 -11 1 -31t5.5 -40t13 -35t24.5 -15q11 0 24.5 13.5t26 34t24.5 46t21 50t14.5 44.5t5.5 31q0 9 -0.5 29.5t-0.5 46.5q0 35 1 75t5 74.5t10.5 57.5t18.5 23q7 0 11 -7.5t6 -18t2.5 -20.5t0.5 -14q0 -30 -6.5 -67.5t-14 -73
t-13.5 -64.5t-6 -44q0 -94 15 -185q3 -19 10 -42.5t7 -41.5q0 -2 -1.5 -5t-4.5 -3q-7 0 -12 13t-9.5 34t-7.5 46.5t-5 51.5t-3.5 48.5t-1.5 37.5q-6 -18 -16 -49t-25 -61.5t-34 -52.5t-43 -22q-20 0 -31.5 19t-17 44.5t-7 51t-1.5 39.5q0 81 11 158.5t15 158.5zM219 505
q-11 -21 -14.5 -50t-4.5 -60.5t-0.5 -62.5t-1.5 -55q11 43 18.5 86t7.5 88q0 14 -1 27t-4 27zM91 601l6 -6l-2 -5q1 -4 2.5 -12t4.5 -15.5t8 -13t11 -5.5q9 0 15.5 9t11.5 19.5t8.5 19.5t6.5 9l7 -7q-1 -9 -5 -20t-10 -20.5t-14.5 -16t-19.5 -6.5q-10 0 -17.5 7t-12 17
t-6.5 20.5t-2 18.5q0 2 3 5z" />
    <glyph glyph-name="Uhungarumlaut" unicode="&#x170;" horiz-adv-x="253" 
d="M44 464l7 -7q-3 -84 -15 -167t-12 -168q0 -11 1 -31t5.5 -40t13 -35t24.5 -15q11 0 24.5 13.5t26 34t24.5 46t21 50t14.5 44.5t5.5 31q0 9 -0.5 29.5t-0.5 46.5q0 35 1 75t5 74.5t10.5 57.5t18.5 23q7 0 11 -7.5t6 -18t2.5 -20.5t0.5 -14q0 -30 -6.5 -67.5t-14 -73
t-13.5 -64.5t-6 -44q0 -94 15 -185q3 -19 10 -42.5t7 -41.5q0 -2 -1.5 -5t-4.5 -3q-7 0 -12 13t-9.5 34t-7.5 46.5t-5 51.5t-3.5 48.5t-1.5 37.5q-6 -18 -16 -49t-25 -61.5t-34 -52.5t-43 -22q-20 0 -31.5 19t-17 44.5t-7 51t-1.5 39.5q0 81 11 158.5t15 158.5zM219 505
q-11 -21 -14.5 -50t-4.5 -60.5t-0.5 -62.5t-1.5 -55q11 43 18.5 86t7.5 88q0 14 -1 27t-4 27zM160 618q-5 -5 -15 -17.5t-20.5 -26t-19.5 -24.5t-13 -11l-6 7q1 6 9 18t18.5 25t21 24t15.5 16l4 1l7 -8zM204 618q-5 -5 -15 -17.5t-20.5 -26t-20 -24t-12.5 -11.5l-6 10
q14 22 29.5 42.5t34.5 37.5l4 1l7 -8z" />
    <glyph glyph-name="Umacron" unicode="&#x16a;" horiz-adv-x="253" 
d="M44 464l7 -7q-3 -84 -15 -167t-12 -168q0 -11 1 -31t5.5 -40t13 -35t24.5 -15q11 0 24.5 13.5t26 34t24.5 46t21 50t14.5 44.5t5.5 31q0 9 -0.5 29.5t-0.5 46.5q0 35 1 75t5 74.5t10.5 57.5t18.5 23q7 0 11 -7.5t6 -18t2.5 -20.5t0.5 -14q0 -30 -6.5 -67.5t-14 -73
t-13.5 -64.5t-6 -44q0 -94 15 -185q3 -19 10 -42.5t7 -41.5q0 -2 -1.5 -5t-4.5 -3q-7 0 -12 13t-9.5 34t-7.5 46.5t-5 51.5t-3.5 48.5t-1.5 37.5q-6 -18 -16 -49t-25 -61.5t-34 -52.5t-43 -22q-20 0 -31.5 19t-17 44.5t-7 51t-1.5 39.5q0 81 11 158.5t15 158.5zM219 505
q-11 -21 -14.5 -50t-4.5 -60.5t-0.5 -62.5t-1.5 -55q11 43 18.5 86t7.5 88q0 14 -1 27t-4 27zM74 556q0 5 12.5 8.5t27.5 6t29 3.5t18 1t10.5 -1t6.5 -7l-5 -7q-23 0 -46.5 -5.5t-46.5 -5.5z" />
    <glyph glyph-name="Uogonek" unicode="&#x172;" horiz-adv-x="253" 
d="M44 464l7 -7q-3 -84 -15 -167t-12 -168q0 -11 1 -31t5.5 -40t13 -35t24.5 -15q11 0 24.5 13.5t26 34t24.5 46t21 50t14.5 44.5t5.5 31q0 9 -0.5 29.5t-0.5 46.5q0 35 1 75t5 74.5t10.5 57.5t18.5 23q7 0 11 -7.5t6 -18t2.5 -20.5t0.5 -14q0 -30 -6.5 -67.5t-14 -73
t-13.5 -64.5t-6 -44q0 -94 15 -185q3 -19 10 -42.5t7 -41.5q0 -2 -1.5 -5t-4.5 -3q-7 0 -12 13t-9.5 34t-7.5 46.5t-5 51.5t-3.5 48.5t-1.5 37.5q-6 -18 -16 -49t-25 -61.5t-34 -52.5t-43 -22q-20 0 -31.5 19t-17 44.5t-7 51t-1.5 39.5q0 81 11 158.5t15 158.5zM219 505
q-11 -21 -14.5 -50t-4.5 -60.5t-0.5 -62.5t-1.5 -55q11 43 18.5 86t7.5 88q0 14 -1 27t-4 27zM224 -48l6 -6q-8 -15 -16 -35.5t-8 -37.5q0 -8 9 -13l7 1l8 -8q-4 -9 -12 -9q-12 0 -20 6t-8 19q0 7 3 18t7.5 23t9.5 22.5t8 17.5z" />
    <glyph glyph-name="Uring" unicode="&#x16e;" horiz-adv-x="253" 
d="M44 464l7 -7q-3 -84 -15 -167t-12 -168q0 -11 1 -31t5.5 -40t13 -35t24.5 -15q11 0 24.5 13.5t26 34t24.5 46t21 50t14.5 44.5t5.5 31q0 9 -0.5 29.5t-0.5 46.5q0 35 1 75t5 74.5t10.5 57.5t18.5 23q7 0 11 -7.5t6 -18t2.5 -20.5t0.5 -14q0 -30 -6.5 -67.5t-14 -73
t-13.5 -64.5t-6 -44q0 -94 15 -185q3 -19 10 -42.5t7 -41.5q0 -2 -1.5 -5t-4.5 -3q-7 0 -12 13t-9.5 34t-7.5 46.5t-5 51.5t-3.5 48.5t-1.5 37.5q-6 -18 -16 -49t-25 -61.5t-34 -52.5t-43 -22q-20 0 -31.5 19t-17 44.5t-7 51t-1.5 39.5q0 81 11 158.5t15 158.5zM219 505
q-11 -21 -14.5 -50t-4.5 -60.5t-0.5 -62.5t-1.5 -55q11 43 18.5 86t7.5 88q0 14 -1 27t-4 27zM119 605q14 0 29 -6t15 -23q0 -19 -18 -27.5t-33 -8.5q-11 0 -16.5 8t-5.5 19q0 13 7 25.5t22 12.5zM114 553q10 0 23.5 6t13.5 18q0 11 -11.5 13.5t-19.5 2.5t-12 -10t-4 -16
q0 -5 3.5 -8.5t6.5 -5.5z" />
    <glyph glyph-name="Utilde" unicode="&#x168;" horiz-adv-x="253" 
d="M44 464l7 -7q-3 -84 -15 -167t-12 -168q0 -11 1 -31t5.5 -40t13 -35t24.5 -15q11 0 24.5 13.5t26 34t24.5 46t21 50t14.5 44.5t5.5 31q0 9 -0.5 29.5t-0.5 46.5q0 35 1 75t5 74.5t10.5 57.5t18.5 23q7 0 11 -7.5t6 -18t2.5 -20.5t0.5 -14q0 -30 -6.5 -67.5t-14 -73
t-13.5 -64.5t-6 -44q0 -94 15 -185q3 -19 10 -42.5t7 -41.5q0 -2 -1.5 -5t-4.5 -3q-7 0 -12 13t-9.5 34t-7.5 46.5t-5 51.5t-3.5 48.5t-1.5 37.5q-6 -18 -16 -49t-25 -61.5t-34 -52.5t-43 -22q-20 0 -31.5 19t-17 44.5t-7 51t-1.5 39.5q0 81 11 158.5t15 158.5zM219 505
q-11 -21 -14.5 -50t-4.5 -60.5t-0.5 -62.5t-1.5 -55q11 43 18.5 86t7.5 88q0 14 -1 27t-4 27zM80 549l-7 8q1 6 4.5 16t9 19.5t12 17t13.5 7.5q6 0 11.5 -7.5t10 -17.5t8 -20t5.5 -14h1q7 11 12.5 21.5t10.5 21.5l8 -7q-1 -7 -3 -16t-6.5 -16.5t-11 -13t-15.5 -5.5l-6 4
q-8 13 -12 27.5t-14 26.5q-4 -1 -8 -7t-7 -13.5t-5.5 -14.5t-2.5 -11z" />
    <glyph glyph-name="Wacute" unicode="&#x1e82;" horiz-adv-x="324" 
d="M49 532l8 -7q-2 -63 -7 -125.5t-11 -125.5t-10.5 -125.5t-4.5 -125.5q0 -22 6 -41q11 11 21 40t18.5 67t15 81.5t11.5 83.5t7.5 72.5t2.5 50.5l7 5l8 -5q0 -11 -0.5 -31.5t-0.5 -46.5q0 -42 2.5 -91.5t11 -93t25 -72.5t43.5 -29q30 0 48 28.5t27.5 66.5t12.5 76.5t3 59.5
q0 34 -3 63.5t-10 57.5t-18 55.5t-26 57.5l-1 3l7 9q11 -6 20 -23.5t16.5 -42.5t13.5 -53.5t9.5 -55t5.5 -48.5t2 -34q0 -25 -4 -64.5t-15.5 -77t-33 -65t-56.5 -27.5q-20 0 -34.5 12.5t-24.5 32t-16 44t-9 49.5t-4.5 47.5t-1.5 37.5q-2 -9 -5.5 -32t-9 -51t-13 -58.5
t-16 -55.5t-17.5 -41t-19 -16q-11 0 -15.5 13t-4.5 21q0 66 4.5 131t10.5 130.5t11 130.5t6 131zM123 557l14.5 14.5l21.5 21.5t21 19.5t14 9.5l6 -6q0 -4 -9.5 -15t-21.5 -22.5t-23.5 -20.5t-15.5 -9l-7 8v0z" />
    <glyph glyph-name="Wcircumflex" unicode="&#x174;" horiz-adv-x="324" 
d="M49 532l8 -7q-2 -63 -7 -125.5t-11 -125.5t-10.5 -125.5t-4.5 -125.5q0 -22 6 -41q11 11 21 40t18.5 67t15 81.5t11.5 83.5t7.5 72.5t2.5 50.5l7 5l8 -5q0 -11 -0.5 -31.5t-0.5 -46.5q0 -42 2.5 -91.5t11 -93t25 -72.5t43.5 -29q30 0 48 28.5t27.5 66.5t12.5 76.5t3 59.5
q0 34 -3 63.5t-10 57.5t-18 55.5t-26 57.5l-1 3l7 9q11 -6 20 -23.5t16.5 -42.5t13.5 -53.5t9.5 -55t5.5 -48.5t2 -34q0 -25 -4 -64.5t-15.5 -77t-33 -65t-56.5 -27.5q-20 0 -34.5 12.5t-24.5 32t-16 44t-9 49.5t-4.5 47.5t-1.5 37.5q-2 -9 -5.5 -32t-9 -51t-13 -58.5
t-16 -55.5t-17.5 -41t-19 -16q-11 0 -15.5 13t-4.5 21q0 66 4.5 131t10.5 130.5t11 130.5t6 131zM138 610q-6 -5 -10 -14t-8 -19.5t-8 -19.5t-10 -13l-8 10q3 6 7.5 18t10 24t12 21t14.5 9q3 0 8 -10t10 -23t10 -25.5t8 -16.5l-7 -11q-5 0 -9.5 9t-8.5 21t-6.5 23.5
t-4.5 16.5z" />
    <glyph glyph-name="Wdieresis" unicode="&#x1e84;" horiz-adv-x="324" 
d="M49 532l8 -7q-2 -63 -7 -125.5t-11 -125.5t-10.5 -125.5t-4.5 -125.5q0 -22 6 -41q11 11 21 40t18.5 67t15 81.5t11.5 83.5t7.5 72.5t2.5 50.5l7 5l8 -5q0 -11 -0.5 -31.5t-0.5 -46.5q0 -42 2.5 -91.5t11 -93t25 -72.5t43.5 -29q30 0 48 28.5t27.5 66.5t12.5 76.5t3 59.5
q0 34 -3 63.5t-10 57.5t-18 55.5t-26 57.5l-1 3l7 9q11 -6 20 -23.5t16.5 -42.5t13.5 -53.5t9.5 -55t5.5 -48.5t2 -34q0 -25 -4 -64.5t-15.5 -77t-33 -65t-56.5 -27.5q-20 0 -34.5 12.5t-24.5 32t-16 44t-9 49.5t-4.5 47.5t-1.5 37.5q-2 -9 -5.5 -32t-9 -51t-13 -58.5
t-16 -55.5t-17.5 -41t-19 -16q-11 0 -15.5 13t-4.5 21q0 66 4.5 131t10.5 130.5t11 130.5t6 131zM96 558q-5 5 -7 15l7 5q6 0 11.5 -2.5t5.5 -10.5q0 -4 -3.5 -6t-6.5 -3zM156 570q-2 -4 -6 -8t-9 -4l-7 9q0 10 11 12z" />
    <glyph glyph-name="Wgrave" unicode="&#x1e80;" horiz-adv-x="324" 
d="M49 532l8 -7q-2 -63 -7 -125.5t-11 -125.5t-10.5 -125.5t-4.5 -125.5q0 -22 6 -41q11 11 21 40t18.5 67t15 81.5t11.5 83.5t7.5 72.5t2.5 50.5l7 5l8 -5q0 -11 -0.5 -31.5t-0.5 -46.5q0 -42 2.5 -91.5t11 -93t25 -72.5t43.5 -29q30 0 48 28.5t27.5 66.5t12.5 76.5t3 59.5
q0 34 -3 63.5t-10 57.5t-18 55.5t-26 57.5l-1 3l7 9q11 -6 20 -23.5t16.5 -42.5t13.5 -53.5t9.5 -55t5.5 -48.5t2 -34q0 -25 -4 -64.5t-15.5 -77t-33 -65t-56.5 -27.5q-20 0 -34.5 12.5t-24.5 32t-16 44t-9 49.5t-4.5 47.5t-1.5 37.5q-2 -9 -5.5 -32t-9 -51t-13 -58.5
t-16 -55.5t-17.5 -41t-19 -16q-11 0 -15.5 13t-4.5 21q0 66 4.5 131t10.5 130.5t11 130.5t6 131zM90 615l7 7q6 0 16.5 -11t22 -25.5t20 -28t9.5 -18.5l-7 -8q-3 1 -12.5 12t-20 24.5t-20.5 26t-15 17.5v4z" />
    <glyph glyph-name="Ycircumflex" unicode="&#x176;" horiz-adv-x="347" 
d="M49 463l8 -6q-6 -27 -12 -46.5t-10.5 -38t-7.5 -40t-3 -51.5q0 -9 1 -31t4 -49.5t8 -57t12 -54t17 -40.5t23 -16t26.5 15.5t26 40t24 54t21 57.5t15.5 51t9 35q4 19 8.5 47t9.5 53t9.5 43t9.5 18q6 0 12.5 -16.5t14 -43t14 -59t12 -65t9.5 -61t5 -46.5l3 -44q11 8 23 16
t25 13l2 -2q-1 -6 -7 -12.5t-14 -12.5t-16 -11t-12 -8q2 -21 3 -42t1 -42q0 -68 -16 -133t-60 -119q-17 -21 -41.5 -38t-53.5 -17t-41 20t-12 46q0 47 19 94.5t49 91.5t66.5 81.5t71.5 65.5q-11 161 -54 315q-3 -17 -10 -53.5t-18 -81.5t-25.5 -92.5t-32 -87t-37.5 -65
t-42 -25.5q-15 0 -27 16t-20.5 41.5t-14 56t-9 59t-5 51.5t-1.5 34q0 48 7 97.5t27 92.5zM154 -287q11 0 22.5 6t22.5 14.5t20.5 18t16.5 17.5q22 25 36 57t22 67t11 70.5t3 67.5q0 14 -0.5 27.5t-1.5 27.5q-32 -29 -65.5 -63t-61.5 -73t-45.5 -82t-17.5 -89q0 -9 1.5 -20
t5.5 -21.5t11.5 -17.5t19.5 -7zM159 610q-6 -5 -10 -14t-8 -19.5t-8 -19.5t-10 -13l-8 10q3 6 7.5 18t10 24t12 21t14.5 9q3 0 8 -10t10 -23t10 -25.5t8 -16.5l-7 -11q-5 0 -9.5 9t-8.5 21t-6.5 23.5t-4.5 16.5z" />
    <glyph glyph-name="Ygrave" unicode="&#x1ef2;" horiz-adv-x="347" 
d="M49 463l8 -6q-6 -27 -12 -46.5t-10.5 -38t-7.5 -40t-3 -51.5q0 -9 1 -31t4 -49.5t8 -57t12 -54t17 -40.5t23 -16t26.5 15.5t26 40t24 54t21 57.5t15.5 51t9 35q4 19 8.5 47t9.5 53t9.5 43t9.5 18q6 0 12.5 -16.5t14 -43t14 -59t12 -65t9.5 -61t5 -46.5l3 -44q11 8 23 16
t25 13l2 -2q-1 -6 -7 -12.5t-14 -12.5t-16 -11t-12 -8q2 -21 3 -42t1 -42q0 -68 -16 -133t-60 -119q-17 -21 -41.5 -38t-53.5 -17t-41 20t-12 46q0 47 19 94.5t49 91.5t66.5 81.5t71.5 65.5q-11 161 -54 315q-3 -17 -10 -53.5t-18 -81.5t-25.5 -92.5t-32 -87t-37.5 -65
t-42 -25.5q-15 0 -27 16t-20.5 41.5t-14 56t-9 59t-5 51.5t-1.5 34q0 48 7 97.5t27 92.5zM154 -287q11 0 22.5 6t22.5 14.5t20.5 18t16.5 17.5q22 25 36 57t22 67t11 70.5t3 67.5q0 14 -0.5 27.5t-1.5 27.5q-32 -29 -65.5 -63t-61.5 -73t-45.5 -82t-17.5 -89q0 -9 1.5 -20
t5.5 -21.5t11.5 -17.5t19.5 -7zM100 615l7 7q6 0 16.5 -11t22 -25.5t20 -28t9.5 -18.5l-7 -8q-3 1 -12.5 12t-20 24.5t-20.5 26t-15 17.5v4z" />
    <glyph glyph-name="Zacute" unicode="&#x179;" horiz-adv-x="395" 
d="M9 501q1 4 8 6t16 3t19 1.5t17 0.5q11 0 34.5 0.5t52 -1t58.5 -5.5t54.5 -12.5t40 -23t15.5 -35.5q0 -15 -15.5 -46t-38.5 -71.5t-49.5 -87t-49.5 -91t-38.5 -84t-15.5 -66.5q0 -5 1 -10.5t5 -10.5q21 1 57.5 17t75.5 37.5t73.5 44t52.5 36.5h4l7 -5l-3 -8
q-10 -8 -30 -21t-45.5 -28.5t-53.5 -31t-53.5 -28t-46.5 -20.5t-31 -8q-15 0 -21.5 9.5t-6.5 23.5q0 30 15.5 71.5t38.5 86.5t50 90.5t50 85.5t38.5 70.5t15.5 45.5q0 22 -22.5 34.5t-53 18.5t-63 7.5t-52.5 1.5q-26 0 -51 -1t-51 -3zM159 557l14.5 14.5l21.5 21.5t21 19.5
t14 9.5l6 -6q0 -4 -9.5 -15t-21.5 -22.5t-23.5 -20.5t-15.5 -9l-7 8v0z" />
    <glyph glyph-name="Zdotaccent" unicode="&#x17b;" horiz-adv-x="395" 
d="M9 501q1 4 8 6t16 3t19 1.5t17 0.5q11 0 34.5 0.5t52 -1t58.5 -5.5t54.5 -12.5t40 -23t15.5 -35.5q0 -15 -15.5 -46t-38.5 -71.5t-49.5 -87t-49.5 -91t-38.5 -84t-15.5 -66.5q0 -5 1 -10.5t5 -10.5q21 1 57.5 17t75.5 37.5t73.5 44t52.5 36.5h4l7 -5l-3 -8
q-10 -8 -30 -21t-45.5 -28.5t-53.5 -31t-53.5 -28t-46.5 -20.5t-31 -8q-15 0 -21.5 9.5t-6.5 23.5q0 30 15.5 71.5t38.5 86.5t50 90.5t50 85.5t38.5 70.5t15.5 45.5q0 22 -22.5 34.5t-53 18.5t-63 7.5t-52.5 1.5q-26 0 -51 -1t-51 -3zM192 558q-5 5 -7 15l7 5q6 0 11.5 -2.5
t5.5 -10.5q0 -4 -3.5 -6t-6.5 -3l-7 2v0z" />
    <glyph glyph-name="Abreve" unicode="&#x102;" horiz-adv-x="356" 
d="M8 148l7 8q9 0 27 4t36.5 9.5t32.5 9.5l14 4q0 12 1 40t3.5 63.5t7 73.5t12 69.5t18.5 52t26 20.5q13 0 23 -16.5t17.5 -42.5t12 -57.5t7.5 -60.5t4.5 -52.5t1.5 -33.5q15 6 30.5 12.5t32.5 6.5l6 -7q-1 -3 -10 -7t-20 -8t-21.5 -7t-14.5 -4q2 -20 7 -60.5t12.5 -84
t17 -81t20.5 -51.5q5 -7 15 -11.5t12 -12.5l-7 -7q-15 0 -27.5 19t-22.5 48.5t-17.5 65.5t-12.5 69.5t-8 61t-4 39.5q-27 -11 -54 -22.5t-54 -22.5v-175q0 -4 -2 -16.5t-8 -12.5t-7.5 9t-1.5 15q0 43 2 86.5t2 86.5q-26 -10 -53 -17.5t-55 -10.5zM195 484q-11 0 -19.5 -19
t-14.5 -49t-10 -65.5t-6.5 -68t-3.5 -58.5t-1 -35q27 11 53 23t53 23q-1 9 -2.5 30.5t-4.5 49.5t-7 57.5t-9.5 54.5t-12.5 41t-15 16zM161 601l6 -6l-2 -5q1 -4 2.5 -12t4.5 -15.5t8 -13t11 -5.5q9 0 15.5 9t11.5 19.5t8.5 19.5t6.5 9l7 -7q-1 -9 -5 -20t-10 -20.5
t-14.5 -16t-19.5 -6.5q-10 0 -17.5 7t-12 17t-6.5 20.5t-2 18.5q0 2 3 5z" />
    <glyph glyph-name="exclamdown" unicode="&#xa1;" horiz-adv-x="94" 
d="M45.002 13.0283l-6.99902 7v129.992q0 59.9961 -1.5 118.992q-1.5 58.9971 -6.5 118.993l7 6q6.99902 -1 9.99902 -25.499q3 -24.498 4.5 -58.9961t1.5 -71.9961v-63.4961v-153.99zM26.0039 462.001l7.99902 8h2q6 -4 6 -10q0 -2.99902 -1 -5.99902t3.99902 -4l-17.998 7
z" />
    <glyph glyph-name="questiondown" unicode="&#xbf;" horiz-adv-x="147" 
d="M63.0049 26.0283q19.999 0 33.498 9.99902q13.499 10 30.498 13l8 -7q-2 -5 -10.999 -10.499q-9 -5.5 -19.999 -10.5q-11 -4.99902 -21.499 -7.99902t-15.499 -3q-16.999 0 -27.498 7q-10.5 6.99902 -15.999 18.499q-5.5 11.499 -7.5 25.498t-2 26.998
q0 38.998 6.5 77.9951q6.5 38.998 14.999 76.9961q8.49902 37.9971 16.999 76.4951q8.49902 38.4971 13.499 77.4951l7 6l7.99902 -6q-5 -40.998 -13.999 -81.4951t-17.499 -80.9951q-8.49902 -40.4971 -14.499 -81.4951q-6 -40.9971 -6 -82.9951q0 -16.999 7 -30.498
t26.998 -13.499zM73.0049 453.002l-7 8v12.999l7 6l7.99902 -6v-12.999z" />
    <glyph glyph-name="section" unicode="&#xa7;" horiz-adv-x="217" 
d="M39 277q-5 -11 -9 -23.5t-4 -25.5q0 -18 13 -28t32.5 -16t42.5 -10.5t42.5 -12.5t32.5 -21.5t13 -37.5q0 -22 -10.5 -42t-27 -35t-38 -24t-42.5 -9q-25 0 -39.5 8t-22 22t-10 32.5t-2.5 38.5q0 8 7 10l8 -8q0 -15 1 -30.5t6.5 -29t16 -22t29.5 -8.5q20 0 39.5 7.5
t34.5 20.5t24.5 31t9.5 39t-13 32.5t-32.5 18t-42.5 11t-42.5 12t-32.5 20.5t-13 37q0 14 4.5 27t10.5 25zM175 141q5 10 8 20.5t3 21.5q0 21 -13 32.5t-32.5 18t-42.5 11t-42.5 12t-32.5 20.5t-13 37q0 17 8.5 38t22.5 39.5t32 31t37 12.5q14 0 26 -9l2 -5l-7 -7
q-7 1 -13 4t-13 3q-16 0 -30 -12.5t-25 -30.5t-17.5 -37.5t-6.5 -32.5q0 -18 13 -28t32.5 -16t42.5 -10.5t42.5 -12.5t32.5 -21.5t13 -37.5q0 -14 -4.5 -27.5t-12.5 -24.5z" />
    <glyph glyph-name="periodcentered" unicode="&#xb7;" horiz-adv-x="55" 
d="M37 290l-8 -9h-3q-6 3 -6 11q0 5 1 8.5t7 3.5l8 -8z" />
    <glyph glyph-name="bullet" unicode="&#x2022;" horiz-adv-x="73" 
d="M49 254q15 -8 15 -23q0 -12 -9 -23.5t-22 -11.5q-14 0 -20 13t-6 24t6 22.5t19 11.5q8 0 16 -5zM38 210q-7 2 -10.5 8t-3.5 12q0 7 4 12t9 9q-4 2 -6 2q-6 0 -7.5 -5t-1.5 -10t2.5 -17t10.5 -12zM47 235l-2 4q-7 -4 -7 -13l2 -2l4 2z" />
    <glyph glyph-name="ellipsis" unicode="&#x2026;" horiz-adv-x="165" 
d="M36 21l-7 -8h-3q-5 3 -5 10q0 8 7 10l7 -7zM91 21l-7 -8h-3q-5 3 -5 10q0 8 7 10l7 -7zM146 21l-7 -8h-3q-5 3 -5 10q0 8 7 10l7 -7z" />
    <glyph glyph-name="uni1E02" unicode="&#x1e02;" horiz-adv-x="327" 
d="M17 461l7 -7q4 -62 7.5 -122.5t6.5 -122.5q1 14 4 36.5t8 49t12.5 53t18.5 48.5t25.5 35.5t34.5 13.5q22 0 28 -17.5t6 -35.5q0 -36 -7.5 -71t-17.5 -70q6 1 12 1h12q24 0 49.5 -5.5t46 -17t34 -30.5t13.5 -46t-15.5 -52.5t-39.5 -45.5t-52.5 -32.5t-53.5 -12.5
q-6 0 -16.5 2t-20.5 6t-17.5 10t-7.5 14l8 7h4q23 -23 57 -23q23 0 47 11t44 28.5t33 40t13 46.5t-14 41t-34 27t-43.5 14.5t-42.5 4.5q-11 0 -20 -3l-6 -15t-9.5 -20.5t-12 -18t-13.5 -7.5q-8 0 -10.5 9t-2.5 15q0 17 13 30t28 18q11 32 18.5 64.5t7.5 65.5v12.5t-1.5 17
t-5 15t-9.5 6.5q-22 0 -37.5 -19.5t-26 -50t-17 -67.5t-9.5 -72.5t-4 -64.5t-1 -43q0 -5 1 -19t1 -29q0 -17 -2.5 -30.5t-9.5 -13.5l-4 3q0 109 -8 216t-16 216zM109 194q5 8 9 15t7 15q-6 -6 -11 -13.5t-5 -16.5zM126 494q-5 5 -7 15l7 5q6 0 11.5 -2.5t5.5 -10.5
q0 -4 -3.5 -6t-6.5 -3l-7 2v0z" />
    <glyph glyph-name="uni1E03" unicode="&#x1e03;" horiz-adv-x="256" 
d="M77 35q-8 0 -12 24t-6 63t-4.5 88.5t-7 100.5t-13 98.5t-23.5 83.5l-1 4l7 8q8 0 12.5 -12t6.5 -18q13 -47 20 -98t10.5 -103.5t5.5 -104.5t6 -101q3 13 7.5 38t11 55.5t14.5 62t18 57.5t22 42.5t27 16.5q19 0 31.5 -15.5t19.5 -36.5t9.5 -43t2.5 -36q0 -17 -5.5 -51
t-16.5 -68t-27 -59.5t-38 -25.5q-9 0 -13.5 5t-6.5 12.5t-2.5 16t-1.5 14.5l8 8l6 -5l6 -34l9 -1q34 35 52 83.5t18 97.5q0 10 -3 30t-9.5 40.5t-16 36t-22.5 15.5q-11 0 -21 -16.5t-18.5 -42.5t-16 -57t-13 -60t-10 -52t-6.5 -32q-2 -5 -5.5 -17t-10.5 -12zM169 395
q-5 5 -7 15l7 5q6 0 11.5 -2.5t5.5 -10.5q0 -4 -3.5 -6t-6.5 -3l-7 2v0z" />
    <glyph glyph-name="uni1E0A" unicode="&#x1e0a;" horiz-adv-x="278" 
d="M17 481l8 -8q0 -64 1 -127t3 -127q1 18 3.5 45.5t8 58.5t13.5 62t21.5 56t32 40.5t43.5 15.5t43 -13t30.5 -34t20.5 -47.5t13 -53.5t6.5 -51.5t1.5 -41.5q0 -19 -1 -42t-4.5 -47t-9 -46.5t-14.5 -39.5q-6 -11 -17 -26t-24.5 -28.5t-28.5 -23t-29 -9.5q-15 0 -23 11.5
t-11 24.5l8 7q4 -8 13 -17t18 -9q33 0 54 30t33.5 70.5t17 81.5t4.5 63q0 25 -4 63.5t-16 75t-33.5 63t-55.5 26.5q-28 0 -46.5 -31t-30 -78.5t-17 -105t-8 -111t-2.5 -96v-59.5l1 -8h-9l-7 7q-8 118 -10 235.5t-4 235.5zM134 558q-5 5 -7 15l7 5q6 0 11.5 -2.5t5.5 -10.5
q0 -4 -3.5 -6t-6.5 -3l-7 2v0z" />
    <glyph glyph-name="uni1E0B" unicode="&#x1e0b;" horiz-adv-x="211" 
d="M75 347q22 0 37.5 -16t27.5 -31q-1 5 -1 15v22q0 23 1.5 52.5t5.5 55t11.5 43t19.5 17.5q7 0 11 -9t6.5 -20t3 -22.5t0.5 -15.5q0 -26 -2.5 -56.5t-7.5 -61.5t-11.5 -60.5t-14.5 -54.5q7 -61 20 -122t30 -120l-7 -8l-6 4q-17 52 -29 105t-19 107q-5 -14 -13 -37
t-20 -44.5t-27 -37.5t-33 -16q-17 0 -27 17t-14.5 40.5t-5.5 48.5t-1 40v43t5 55t19 47t41 20zM148 199q-2 17 -3.5 39.5t-8 42.5t-20 33.5t-38.5 13.5q-22 0 -33 -17t-15.5 -40.5t-5 -48t-0.5 -38.5q0 -8 0.5 -29.5t4 -44t10.5 -40.5t20 -18t27.5 19.5t27 44.5t22 49
t12.5 34zM154 346q0 -25 0.5 -51.5t4.5 -51.5q10 47 17.5 93.5t7.5 94.5q0 15 -2 29.5t-7 28.5q-14 -32 -17.5 -70t-3.5 -73zM166 158v8v-8zM61 381q-5 5 -7 15l7 5q6 0 11.5 -2.5t5.5 -10.5q0 -4 -3.5 -6t-6.5 -3l-7 2v0z" />
    <glyph glyph-name="uni1E1E" unicode="&#x1e1e;" horiz-adv-x="357" 
d="M10 37l5 7q22 5 39 13t36 19v39q0 29 1 68.5t4 82.5t8.5 85t15.5 75.5t24 54t34 20.5q23 0 47.5 -13t45 -33t33.5 -44.5t13 -47.5q0 -50 -19.5 -91.5t-50 -77.5t-68.5 -66.5t-74 -57.5l2 -57q30 23 61 37t70 14q30 0 50 -13t31 -33.5t15.5 -46.5t4.5 -51
q0 -26 -6.5 -64.5t-20.5 -73.5t-38 -60t-58 -25q-23 0 -41.5 16t-32 41.5t-22.5 57t-14.5 63t-8 59t-2.5 44.5q-3 -4 -8 -14.5l-10 -21t-9.5 -19t-7.5 -9.5l-7 9q0 19 14 40.5t27 34.5l-2 32t-1 32q-14 -8 -32.5 -20t-35.5 -12l-4 1zM328 -81q0 23 -4.5 47t-15.5 43
t-29.5 31t-46.5 12q-34 0 -67.5 -17.5t-56.5 -40.5q0 -17 2 -44t7 -58t13 -63t20.5 -57.5t29 -41.5t38.5 -16q29 0 50 23.5t34.5 56.5t19.5 68t6 57zM183 481q-19 0 -32.5 -21.5t-22 -55.5t-14 -75t-8 -79t-3 -69.5t-0.5 -45.5v-24.5t1 -24.5q28 24 62 53.5t64 63t50.5 71
t20.5 77.5q0 22 -9.5 45t-26 42t-38 31t-44.5 12zM173 558q-5 5 -7 15l7 5q6 0 11.5 -2.5t5.5 -10.5q0 -4 -3.5 -6t-6.5 -3l-7 2v0z" />
    <glyph glyph-name="uni1E1F" unicode="&#x1e1f;" horiz-adv-x="189" 
d="M4 178q0 2 5.5 5t13 6.5t14 6.5t9.5 5q1 12 3.5 37.5t7 57t11.5 64.5t17 60.5t23 45t29 17.5q20 0 30 -17.5t10 -34.5q0 -26 -10.5 -60.5t-27.5 -69t-38 -64t-41 -44.5l-6 -127q19 11 41 11q25 0 42.5 -14t27.5 -35t14.5 -45t4.5 -44q0 -14 -4 -45t-12.5 -62.5
t-22.5 -55.5t-33 -24t-31.5 18t-20.5 46t-12 62t-6 65.5t-2 57v36.5q-3 -3 -6 -8t-7 -10t-7.5 -9t-6.5 -5l-7 8q1 11 13.5 23.5l20.5 20.5q0 32 1 62.5t3 62.5q-7 -4 -14.5 -8t-15.5 -4l-5 1zM166 -56q0 17 -2.5 37.5t-10 38.5t-21.5 30.5t-36 12.5t-42 -15q0 -10 0.5 -34.5
t2 -55t4.5 -64t9.5 -61t16 -45t23.5 -17.5q16 0 27 23t17.5 52.5t9 58t2.5 39.5zM145 468q-15 0 -27 -15.5t-20.5 -40t-14.5 -54t-10 -57.5t-6.5 -51.5t-3.5 -35.5q19 18 37 45t32 57t22.5 61t8.5 58q0 9 -3 21t-15 12zM137 520q-5 5 -7 15l7 5q6 0 11.5 -2.5t5.5 -10.5
q0 -4 -3.5 -6t-6.5 -3l-7 2v0z" />
    <glyph glyph-name="uni1E40" unicode="&#x1e40;" horiz-adv-x="377" 
d="M16 443l7 -7q2 -77 4.5 -153t7.5 -153q1 12 6 43.5t12.5 71.5t16.5 83t19 79t20.5 59t20.5 23q6 0 10 -15.5t5.5 -37t2 -43.5t0.5 -34q0 -3 0.5 -21t2 -43.5t3 -55t4 -57t6 -48.5t7.5 -29q10 16 20 49.5t19.5 74t20 83.5t21 78t22.5 57.5t25 22.5q7 0 12.5 -18.5t10 -49
t8.5 -68.5t7.5 -77.5t6.5 -76.5t6 -64q2 -23 7.5 -48t5.5 -47q0 -2 -1.5 -5.5t-4.5 -3.5q-6 0 -10.5 16.5t-8.5 43.5t-7.5 61t-6.5 69.5t-6 68.5t-5 58q-3 31 -5.5 61.5t-13.5 59.5q-11 -15 -21 -47t-20 -72t-20.5 -82.5t-20.5 -78t-20.5 -58t-20.5 -22.5q-9 0 -16 29.5
t-11 67.5t-6 73.5t-2 48.5v49q0 28 -1.5 54.5t-8.5 52.5q-8 -13 -17.5 -44.5t-19 -73.5t-18 -89.5t-15.5 -91t-11 -78.5t-4 -52q0 -1 0.5 -2t0.5 -2t-2 -1h-4h-1l-6 3q-2 4 -4 32t-4.5 69t-4.5 89t-3.5 91.5t-2.5 76.5t-1 44zM198 523q-5 5 -7 15l7 5q6 0 11.5 -2.5
t5.5 -10.5q0 -4 -3.5 -6t-6.5 -3l-7 2v0z" />
    <glyph glyph-name="uni1E41" unicode="&#x1e41;" horiz-adv-x="297" 
d="M16 341l7 -7v-35v-41q0 -54 2.5 -108.5t13.5 -105.5q10 20 17 48.5t12 58.5l10 60t10 54t12 38.5t17 14.5q7 0 11 -9t6 -20.5t2.5 -23t0.5 -15.5q0 -8 -0.5 -19.5t-0.5 -25.5q0 -15 0.5 -31t2 -31t4.5 -27t8 -19q13 17 21.5 42.5t15 54t11.5 56.5t12 49l8 5l6 -5
q7 -27 8 -66.5t3.5 -78.5t12 -73t35.5 -51l2 -6l-10 -7q-25 12 -36.5 44t-15.5 69.5t-4 75t-3 61.5q-3 -12 -8.5 -42.5t-13 -62.5t-18.5 -56.5t-26 -24.5q-10 0 -15.5 13.5t-8.5 35t-3.5 47t-1.5 49.5t-2 43.5t-4 27.5q-8 -15 -11 -31.5t-7 -33.5q-2 -7 -5.5 -26t-8 -42
t-10.5 -48.5t-12.5 -46.5t-12.5 -34.5t-12 -13.5q-5 0 -9 16.5t-7 43t-5 60.5t-3.5 68.5t-2.5 67t-1 57.5zM166 368q-5 5 -7 15l7 5q6 0 11.5 -2.5t5.5 -10.5q0 -4 -3.5 -6t-6.5 -3l-7 2v0z" />
    <glyph glyph-name="uni1E56" unicode="&#x1e56;" horiz-adv-x="265" 
d="M21 451l8 -7q0 -88 4 -174.5t11 -174.5v222q0 8 -0.5 20.5t-0.5 29.5q0 25 1.5 53.5t7.5 53t17.5 41t30.5 16.5q18 0 36.5 -16.5t34.5 -42.5t30 -58t24.5 -63t16 -58t5.5 -42q0 -41 -23.5 -65t-64.5 -24q-5 0 -15.5 1t-22 3t-20 5.5t-9.5 9.5l6 7q18 -2 36 -7t36 -5
q16 0 27.5 7t19 18t11 25.5t3.5 28.5t-5 39t-14 54t-22 59t-27.5 54.5t-31 40t-33.5 15.5q-16 0 -25 -21t-13 -48.5t-4.5 -54t-0.5 -36.5q0 -84 2 -166t2 -165v-7.5t-1 -14t-3.5 -13.5t-6.5 -6q-5 0 -9 14t-6 32.5t-3.5 37.5t-2.5 29q-7 87 -10 173t-4 173zM92 573
q-5 5 -7 15l7 5q6 0 11.5 -2.5t5.5 -10.5q0 -4 -3.5 -6t-6.5 -3l-7 2v0z" />
    <glyph glyph-name="uni1E57" unicode="&#x1e57;" horiz-adv-x="207" 
d="M56 -127q1 22 -4 51t-7 49l-39 320l-2 4l9 12q5 -1 8.5 -13.5t6 -32t3.5 -42.5t2.5 -44.5t3.5 -39t6 -24.5q1 12 3.5 35.5t7 51t11.5 56t17 51.5t23.5 38t30.5 15q16 0 27 -19t17.5 -44t9 -50t2.5 -36q0 -20 -3.5 -56t-14 -71.5t-29 -61.5t-47.5 -26q-11 0 -24 8.5
t-14 20.5l8 11q8 -4 17.5 -14t16.5 -10q22 0 36.5 23.5t23 55t12 63t3.5 46.5q0 10 -1.5 33.5t-6 48t-13.5 43.5t-23 19l-11 -5q-21 -30 -33.5 -63.5t-19 -69t-9 -72t-2.5 -71.5v-48.5t1 -53.5t4 -53.5t8 -47.5h-3l-5 -4l-7 6v11zM126 404q-5 5 -7 15l7 5q6 0 11.5 -2.5
t5.5 -10.5q0 -4 -3.5 -6t-6.5 -3l-7 2v0z" />
    <glyph glyph-name="uni1E60" unicode="&#x1e60;" horiz-adv-x="348" 
d="M223 480l-6 -8q-4 0 -10 4t-14 9.5t-18 9.5t-22 4q-23 0 -43.5 -12t-35.5 -31t-24 -42t-9 -44q0 -37 22 -60.5t55 -40t71 -29t71 -26.5t55 -33t22 -49q0 -35 -23 -62.5t-56 -46t-70 -28t-65 -9.5q-17 0 -37 4.5t-37.5 13.5t-29.5 23.5t-12 34.5q0 9 5.5 20.5t13 24
t15 23.5t12.5 19l6 3l8 -6v-3q-13 -18 -27.5 -38.5t-14.5 -44.5q0 -18 11 -29.5t27 -18t33.5 -9t31.5 -2.5q27 0 60.5 9t63 26t50 41.5t20.5 56.5q0 26 -22 42.5t-54.5 30t-71 25.5t-71 29.5t-54.5 42t-22 62.5q0 25 10 51.5t27.5 47.5t41 34.5t50.5 13.5q20 0 34.5 -8.5
t29.5 -19.5zM140 554q-5 5 -7 15l7 5q6 0 11.5 -2.5t5.5 -10.5q0 -4 -3.5 -6t-6.5 -3l-7 2v0z" />
    <glyph glyph-name="uni1E61" unicode="&#x1e61;" horiz-adv-x="217" 
d="M138 351l-7 -7q-7 1 -13 4t-13 3q-16 0 -30 -12.5t-25 -30.5t-17.5 -37.5t-6.5 -32.5q0 -18 13 -28t32.5 -16t42.5 -10.5t42.5 -12.5t32.5 -21.5t13 -37.5q0 -22 -10.5 -42t-27 -35t-38 -24t-42.5 -9q-25 0 -39.5 8t-22 22t-10 32.5t-2.5 38.5q0 8 7 10l8 -8
q0 -15 1 -30.5t6.5 -29t16 -22t29.5 -8.5q20 0 39.5 7.5t34.5 20.5t24.5 31t9.5 39t-13 32.5t-32.5 18t-42.5 11t-42.5 12t-32.5 20.5t-13 37q0 17 8.5 38t22.5 39.5t32 31t37 12.5q14 0 26 -9zM84 408q-5 5 -7 15l7 5q6 0 11.5 -2.5t5.5 -10.5q0 -4 -3.5 -6t-6.5 -3l-7 2v0
z" />
    <glyph glyph-name="uni1E6A" unicode="&#x1e6a;" horiz-adv-x="380" 
d="M184 511q5 -3 6.5 -15t1.5 -25v-22q43 11 86.5 17t88.5 8l7 -7l-6 -7q-45 -3 -88 -9.5t-87 -16.5q2 -102 10 -202.5t24 -200.5l-7 -9l-7 7q-15 100 -23.5 200t-11.5 202q-14 -4 -38 -12t-49 -16t-47 -15t-31 -8l-8 7q1 10 24 19.5t53 17.5t57.5 14t37.5 8l-1 58zM176 557
q-5 5 -7 15l7 5q6 0 11.5 -2.5t5.5 -10.5q0 -4 -3.5 -6t-6.5 -3l-7 2v0z" />
    <glyph glyph-name="uni1E6B" unicode="&#x1e6b;" horiz-adv-x="160" 
d="M2 290q0 4 9.5 7.5t21 6t22.5 4t15 2.5q4 45 7 90l6 90l7 7l7 -7q-2 -45 -5.5 -89t-6.5 -89l54 8l7 -7q0 -4 -8.5 -7t-19 -4.5t-20.5 -2.5t-14 -2q-4 -42 -6 -84.5t-2 -84.5q0 -33 3 -65.5t13 -64.5q4 -11 11.5 -24t8.5 -24l-7 -8l-6 5q-12 27 -19.5 47.5t-11 40t-4.5 41
t-1 50.5q0 42 1 84t4 84q-15 -2 -29.5 -4.5t-28.5 -6.5zM90 536q-5 5 -7 15l7 5q6 0 11.5 -2.5t5.5 -10.5q0 -4 -3.5 -6t-6.5 -3l-7 2v0z" />
    </font>
</defs>
</svg>
